<?xml version="1.0" standalone="no"?>
<!DOCTYPE svg PUBLIC "-//W3C//DTD SVG 1.1//EN" "http://www.w3.org/Graphics/SVG/1.1/DTD/svg11.dtd" >
<svg xmlns="http://www.w3.org/2000/svg" xmlns:xlink="http://www.w3.org/1999/xlink" version="1.1">
<metadata>
Created by FontForge 20170731 at Thu Jun  4 17:59:02 2020
 By Aleksey,,,
Copyright (c) 2020 by Ingka Centres Holding BV. All rights reserved. Designed by Letters from Sweden &#38; Format Studios
</metadata>
<defs>
<font id="LivelyHeadline-Bold" horiz-adv-x="585" >
  <font-face 
    font-family="Lively Headline"
    font-weight="700"
    font-stretch="normal"
    units-per-em="1000"
    panose-1="0 0 8 0 0 0 0 0 0 0"
    ascent="750"
    descent="-250"
    x-height="487"
    cap-height="699"
    bbox="-486 -230 1192 924"
    underline-thickness="70"
    underline-position="-185"
    unicode-range="U+0020-FB02"
  />
<missing-glyph horiz-adv-x="1351" 
d="M930.5 781.5q116.5 -68.5 184.5 -185.5t68 -255t-68 -255t-184.5 -185.5t-254.5 -68.5t-254.5 68.5t-185 185.5t-68.5 255t68.5 255t185 185.5t254.5 68.5t254.5 -68.5zM825.5 75.5q68.5 39.5 110 107.5t43.5 148q0 4 -2.5 7t-6.5 3h-588q-4 0 -7 -3t-3 -7q2 -80 44 -148
t110.5 -107.5t149.5 -39.5t149.5 39.5z" />
    <glyph glyph-name="fi" unicode="fi" horiz-adv-x="726" 
d="M341 586q-32 0 -55.5 -18t-23.5 -62v-19h146v-126h-146v-361h-144v361h-85v126h85v29q0 96 53 147t146 51q56 0 109 -17l-28 -120q-30 9 -57 9zM515 487h144v-487h-144v487zM523 568.5q-27 26.5 -27 63.5t26.5 63.5t64.5 26.5t64.5 -26.5t26.5 -63.5t-27 -63.5t-64 -26.5
t-64 26.5z" />
    <glyph glyph-name="fl" unicode="fl" horiz-adv-x="726" 
d="M341 586q-32 0 -55.5 -18t-23.5 -62v-19h146v-126h-146v-361h-144v361h-85v126h85v29q0 96 53 147t146 51q56 0 109 -17l-28 -120q-30 9 -57 9zM515 699h144v-699h-144v699z" />
    <glyph glyph-name="f_f.liga" unicode="ff" horiz-adv-x="896" 
d="M341 586q-32 0 -55.5 -18t-23.5 -62v-19h146v-126h-146v-361h-144v361h-85v126h85v29q0 96 53 147t146 51q56 0 109 -17l-28 -120q-30 9 -57 9zM789 586q-32 0 -55.5 -18t-23.5 -62v-19h146v-126h-146v-361h-144v361h-85v126h85v29q0 96 53 147t146 51q48 0 89.5 -11.5
t70.5 -29.5l-42 -110q-48 23 -94 23z" />
    <glyph glyph-name=".notdef" horiz-adv-x="1351" 
d="M930.5 781.5q116.5 -68.5 184.5 -185.5t68 -255t-68 -255t-184.5 -185.5t-254.5 -68.5t-254.5 68.5t-185 185.5t-68.5 255t68.5 255t185 185.5t254.5 68.5t254.5 -68.5zM825.5 75.5q68.5 39.5 110 107.5t43.5 148q0 4 -2.5 7t-6.5 3h-588q-4 0 -7 -3t-3 -7q2 -80 44 -148
t110.5 -107.5t149.5 -39.5t149.5 39.5z" />
    <glyph glyph-name=".null" horiz-adv-x="0" 
 />
    <glyph glyph-name="nonmarkingreturn" horiz-adv-x="333" 
 />
    <glyph glyph-name="space" unicode=" " horiz-adv-x="220" 
 />
    <glyph glyph-name="exclam" unicode="!" horiz-adv-x="334" 
d="M94 243v456h147v-456h-147zM96.5 15q-26.5 26 -26.5 70q0 39 28.5 67.5t68.5 28.5t68.5 -28.5t28.5 -67.5t-28.5 -67.5t-68.5 -28.5q-44 0 -70.5 26z" />
    <glyph glyph-name="quotedbl" unicode="&#x22;" horiz-adv-x="481" 
d="M60 699h143v-272h-143v272zM278 699h143v-272h-143v272z" />
    <glyph glyph-name="numbersign" unicode="#" horiz-adv-x="622" 
d="M596 415h-114l-21 -131h102v-95h-117l-30 -189h-100l30 189h-120l-30 -189h-101l30 189h-99v95h114l21 131h-102v95h117l30 189h101l-30 -189h120l30 189h100l-30 -189h99v-95zM361 284l21 131h-120l-21 -131h120z" />
    <glyph glyph-name="dollar" unicode="$" horiz-adv-x="620" 
d="M547 100.5q-29 -48.5 -81 -78.5t-118 -36v-86h-68v87q-70 6 -134.5 34t-105.5 71l85 109q29 -29 70.5 -50.5t84.5 -29.5v177l-15 4q-93 26 -145.5 73.5t-52.5 124.5q0 56 26.5 102t75 75t111.5 35v88h68v-87q63 -5 118 -27.5t91 -56.5l-89 -108q-21 22 -53.5 37.5
t-66.5 21.5v-156l24 -7q96 -27 150 -76.5t54 -132.5q0 -59 -29 -107.5zM228 472.5q17 -15.5 52 -28.5v136q-33 -7 -51 -25.5t-18 -44.5q0 -22 17 -37.5zM410 146.5q22 20.5 22 54.5q0 29 -20 46t-64 31v-158q40 6 62 26.5z" />
    <glyph glyph-name="percent" unicode="%" horiz-adv-x="844" 
d="M122.5 410q-38.5 22 -60.5 59.5t-22 82.5t22 82.5t60.5 59.5t85.5 22t85 -21.5t60 -59.5t22 -83t-22 -83t-60 -59.5t-85 -21.5t-85.5 22zM719 640l-508 -649l-87 68l508 649zM251.5 503.5q17.5 19.5 17.5 48.5t-17.5 48.5t-43.5 19.5t-43.5 -19.5t-17.5 -48.5t17.5 -48.5
t43.5 -19.5t43.5 19.5zM551.5 8q-38.5 22 -60.5 59.5t-22 82.5t22 82.5t60.5 59.5t85.5 22t85 -21.5t60 -59.5t22 -83t-22 -83t-60 -59.5t-85 -21.5t-85.5 22zM680.5 101.5q17.5 19.5 17.5 48.5t-17.5 48.5t-43.5 19.5t-43.5 -19.5t-17.5 -48.5t17.5 -48.5t43.5 -19.5
t43.5 19.5z" />
    <glyph glyph-name="ampersand" unicode="&#x26;" horiz-adv-x="687" 
d="M517 0l-43 48q-49 -31 -100.5 -46.5t-100.5 -15.5q-117 0 -181.5 52.5t-64.5 139.5q0 120 148 201q-37 45 -51 81t-14 83q0 44 25 83t71.5 63t108.5 24t109.5 -24t73 -63t25.5 -84q0 -56 -31.5 -104t-104.5 -92l99 -110q37 46 62 107l126 -34q-36 -100 -98 -171l125 -138
h-184zM267 583.5q-18 -19.5 -18 -42.5q0 -22 11 -44t44 -59q47 29 63.5 53.5t16.5 53.5q0 23 -18 40.5t-50 17.5q-31 0 -49 -19.5zM384 147l-129 143q-39 -23 -57 -47t-18 -52q0 -32 24 -54.5t73 -22.5t107 33z" />
    <glyph glyph-name="quotesingle" unicode="'" horiz-adv-x="263" 
d="M60 699h143v-272h-143v272z" />
    <glyph glyph-name="parenleft" unicode="(" horiz-adv-x="392" 
d="M149 -48.5q-29 70.5 -46.5 160t-17.5 183.5t17.5 183.5t46.5 160t62 111.5h166v-2q-27 -36 -58.5 -102.5t-54.5 -158.5t-23 -192t23 -192.5t54.5 -159.5t58.5 -101v-2h-166q-33 41 -62 111.5z" />
    <glyph glyph-name="parenright" unicode=")" horiz-adv-x="392" 
d="M15 -160v2q27 34 58.5 101t54.5 159.5t23 192.5t-23 192t-54.5 158.5t-58.5 102.5v2h166q33 -41 62 -111.5t46.5 -160t17.5 -183.5t-17.5 -183.5t-46.5 -160t-62 -111.5h-166z" />
    <glyph glyph-name="asterisk" unicode="*" horiz-adv-x="426" 
d="M385 486l-49 -84l-81 53l6 -96h-96l6 96l-81 -53l-48 84l86 43l-87 43l49 84l81 -53l-6 96h96l-6 -96l81 53l48 -84l-86 -43z" />
    <glyph glyph-name="plus" unicode="+" horiz-adv-x="652" 
d="M586 399v-139h-190v-190h-139v190h-191v139h191v191h139v-191h190z" />
    <glyph glyph-name="comma" unicode="," horiz-adv-x="290" 
d="M215.5 154.5q29.5 -30.5 29.5 -76.5q0 -53 -31 -105.5t-61 -85.5h-92q17 18 36 45.5t32 57.5q-36 5 -60 33t-24 64q0 40 29 69t70 29q42 0 71.5 -30.5z" />
    <glyph glyph-name="hyphen" unicode="-" horiz-adv-x="421" 
d="M47 332h327v-144h-327v144z" />
    <glyph glyph-name="period" unicode="." horiz-adv-x="290" 
d="M74 18q-29 29 -29 70t29 70t71 29t71 -29t29 -70t-29 -70t-71 -29t-71 29z" />
    <glyph glyph-name="slash" unicode="/" horiz-adv-x="558" 
d="M423 760l115 -61l-403 -760l-115 61z" />
    <glyph glyph-name="zero" unicode="0" horiz-adv-x="634" 
d="M176.5 27.5q-63.5 43.5 -100 125.5t-36.5 195t36.5 195t100 125.5t140.5 43.5t140.5 -43.5t100 -125.5t36.5 -195t-36.5 -195t-100 -125.5t-140.5 -43.5t-140.5 43.5zM410 180.5q35 56.5 35 167.5t-35 167.5t-93 56.5t-93 -56.5t-35 -167.5t35 -167.5t93 -56.5t93 56.5z
" />
    <glyph glyph-name="one" unicode="1" horiz-adv-x="480" 
d="M376 699v-699h-147v472q-32 -32 -77.5 -46.5t-97.5 -14.5v137q42 0 83 18t69 52.5t33 80.5h137z" />
    <glyph glyph-name="two" unicode="2" horiz-adv-x="632" 
d="M570 136v-136h-485v112q136 99 229 197.5t93 177.5q0 44 -28 66t-79 22q-42 0 -86 -22.5t-84 -67.5l-103 97q54 64 125 97t152 33q74 0 132 -25.5t91 -75t33 -119.5q0 -173 -240 -356h250z" />
    <glyph glyph-name="three" unicode="3" horiz-adv-x="615" 
d="M526.5 355q44.5 -55 44.5 -133q0 -65 -34 -119t-92.5 -85.5t-130.5 -31.5q-83 0 -154 28t-115 74l96 109q29 -32 74 -51.5t93 -19.5q52 0 83 28t31 67q0 37 -29.5 62t-81.5 25q-35 0 -72 -13l-71 96q44 33 95 78.5t92 93.5h-290v136h473v-121q-56 -80 -137 -151
q81 -17 125.5 -72z" />
    <glyph glyph-name="four" unicode="4" horiz-adv-x="680" 
d="M640 279v-136h-91v-143h-147v143h-353v114q30 93 110 233.5t155 234.5l127 -74q-58 -70 -120.5 -173t-103.5 -199h185v154h147v-154h91z" />
    <glyph glyph-name="five" unicode="5" horiz-adv-x="624" 
d="M453 416q54 -25 87.5 -74t33.5 -118q0 -65 -34 -119.5t-93 -86.5t-132 -32q-82 0 -152.5 28t-114.5 74l96 109q29 -32 73.5 -51.5t91.5 -19.5q52 0 84 28t32 68q0 38 -31.5 62t-78.5 24q-33 0 -59.5 -8t-42.5 -20l-140 30l40 391q147 -17 233 -17q116 0 184 26l17 -125
q-65 -39 -193 -39q-67 0 -120 10l-15 -141q23 12 55.5 19t62.5 7q62 0 116 -25z" />
    <glyph glyph-name="six" unicode="6" horiz-adv-x="623" 
d="M467.5 431q52.5 -30 82.5 -82.5t30 -117.5q0 -68 -34 -124t-93.5 -88.5t-131.5 -32.5q-74 0 -135 33t-96.5 93t-35.5 138q0 89 37.5 179t103 164.5t147.5 121.5l101 -90q-51 -32 -110 -88t-87 -108q45 32 105 32q64 0 116.5 -30zM399 153q33 31 33 77t-33 76.5t-82 30.5
t-82 -30.5t-33 -76.5t33 -77t82 -31t82 31z" />
    <glyph glyph-name="seven" unicode="7" horiz-adv-x="591" 
d="M551 699v-126q-75 -72 -131 -173.5t-85 -207t-29 -192.5h-163q0 80 28 183.5t78 205t115 174.5h-327v136h514z" />
    <glyph glyph-name="eight" unicode="8" horiz-adv-x="610" 
d="M534 295.5q26 -43.5 26 -95.5q0 -60 -32.5 -109t-90.5 -77t-132 -28t-132 28t-90.5 77t-32.5 109q0 53 26.5 97t72.5 72q-37 27 -58 65.5t-21 82.5q0 55 30.5 100t84.5 71t122 26t122 -26t84.5 -71t30.5 -100q0 -45 -21.5 -83.5t-59.5 -66.5q45 -28 71 -71.5zM241 565
q-25 -23 -25 -57t25.5 -57.5t65.5 -23.5t65.5 23.5t25.5 57.5t-25 57t-66 23t-66 -23zM380 146q30 27 30 66q0 40 -30 66t-75 26t-75 -26t-30 -66q0 -39 30 -66t75 -27t75 27z" />
    <glyph glyph-name="nine" unicode="9" horiz-adv-x="623" 
d="M437 680q61 -33 96.5 -93t35.5 -138q0 -89 -37.5 -179t-103 -164.5t-147.5 -121.5l-101 90q51 32 110 88t87 108q-45 -32 -105 -32q-64 0 -116.5 30t-82.5 82.5t-30 117.5q0 68 34 124t93.5 88.5t131.5 32.5q74 0 135 -33zM388 392.5q33 30.5 33 76.5t-33 77t-82 31
t-82 -31t-33 -77t33 -76.5t82 -30.5t82 30.5z" />
    <glyph glyph-name="colon" unicode=":" horiz-adv-x="330" 
d="M94 18q-29 29 -29 70t29 70t71 29t71 -29t29 -70t-29 -70t-71 -29t-71 29zM94 333q-29 29 -29 70t29 70t71 29t71 -29t29 -70t-29 -70t-71 -29t-71 29z" />
    <glyph glyph-name="semicolon" unicode=";" horiz-adv-x="330" 
d="M235.5 154.5q29.5 -30.5 29.5 -76.5q0 -53 -31 -105.5t-61 -85.5h-92q17 18 36 45.5t32 57.5q-36 5 -60 33t-24 64q0 40 29 69t70 29q42 0 71.5 -30.5zM94 333q-29 29 -29 70t29 70t71 29t71 -29t29 -70t-29 -70t-71 -29t-71 29z" />
    <glyph glyph-name="less" unicode="&#x3c;" horiz-adv-x="652" 
d="M586 569v-143l-332 -97l332 -97v-142l-520 167v145z" />
    <glyph glyph-name="equal" unicode="=" horiz-adv-x="652" 
d="M66 280h520v-139h-520v139zM66 518h520v-139h-520v139z" />
    <glyph glyph-name="greater" unicode="&#x3e;" horiz-adv-x="652" 
d="M586 257l-520 -167v142l332 97l-332 97v143l520 -167v-145z" />
    <glyph glyph-name="question" unicode="?" horiz-adv-x="515" 
d="M275 407.5q44 70.5 44 110.5q0 29 -20 45t-60 16q-35 0 -69 -16.5t-64 -42.5l-74 114q88 80 214 80q103 0 164 -51t61 -135q0 -59 -46 -139.5t-110 -145.5h-169q85 94 129 164.5zM161.5 16.5q-28.5 28.5 -28.5 67.5t28.5 67.5t68.5 28.5t68.5 -28.5t28.5 -67.5
q0 -44 -26.5 -70t-70.5 -26q-40 0 -68.5 28.5z" />
    <glyph glyph-name="at" unicode="@" horiz-adv-x="929" 
d="M684.5 605.5q95.5 -46.5 150 -127.5t54.5 -181q0 -88 -30.5 -145.5t-76.5 -84.5t-94 -27q-96 0 -134 71q-25 -34 -62 -52.5t-82 -18.5q-51 0 -90.5 24t-61.5 65.5t-22 92.5q0 66 26 118.5t71.5 81.5t101.5 29q42 0 75.5 -16t54.5 -46l8 46h108l-38 -217q-3 -18 -3 -32
q0 -31 14.5 -46.5t40.5 -15.5q22 0 42.5 17.5t34 56.5t13.5 98q0 77 -39.5 136.5t-111 92t-164.5 32.5q-90 0 -163.5 -41.5t-116 -116t-42.5 -169.5q0 -85 38.5 -150t112 -101t175.5 -36q43 0 86.5 8.5t71.5 24.5l40 -84q-33 -21 -86.5 -31.5t-113.5 -10.5
q-133 0 -230.5 48.5t-149.5 135t-52 196.5q0 119 57.5 215.5t156.5 151.5t216 55q119 0 214.5 -46.5zM510 176.5q28 38.5 28 92.5q0 39 -22.5 62t-54.5 23q-52 0 -79.5 -36t-27.5 -92q0 -38 23 -63t56 -25q49 0 77 38.5z" />
    <glyph glyph-name="A" unicode="A" horiz-adv-x="731" 
d="M563 0l-46 121q-70 -26 -153 -26q-87 0 -157 27l-46 -122h-153l275 699h165l275 -699h-160zM467 252l-106 277l-104 -276q46 -17 107 -17q57 0 103 16z" />
    <glyph glyph-name="B" unicode="B" horiz-adv-x="661" 
d="M596.5 300q26.5 -41 26.5 -93q0 -59 -28.5 -106.5t-81 -74t-121.5 -26.5h-322v699h310q67 0 118.5 -24t79.5 -67t28 -97q0 -47 -21.5 -84.5t-59.5 -61.5q45 -24 71.5 -65zM216 564v-139h159q38 0 60 18.5t22 50.5q0 31 -23 50.5t-60 19.5h-158zM449.5 157.5
q24.5 22.5 24.5 57.5q0 36 -25 57.5t-69 21.5h-164v-159h168q41 0 65.5 22.5z" />
    <glyph glyph-name="C" unicode="C" horiz-adv-x="749" 
d="M226.5 35.5q-85.5 48.5 -136 131.5t-50.5 183t50.5 183t136 131.5t185.5 48.5q99 0 181.5 -43t133.5 -119l-126 -77q-34 45 -83.5 71t-105.5 26q-59 0 -109.5 -29t-80.5 -79.5t-30 -112.5t30 -112.5t80.5 -79.5t109.5 -29q58 0 108 27t84 74l124 -80q-51 -76 -134 -119.5
t-182 -43.5q-100 0 -185.5 48.5z" />
    <glyph glyph-name="D" unicode="D" horiz-adv-x="742" 
d="M521 654.5q85 -44.5 133 -124.5t48 -181t-48 -180.5t-133 -124t-192 -44.5h-259v699h259q107 0 192 -44.5zM445 168q50 26 77.5 73t27.5 108q0 62 -27.5 109t-77.5 73t-116 26h-109v-415h109q66 0 116 26z" />
    <glyph glyph-name="E" unicode="E" horiz-adv-x="650" 
d="M616 44q-51 -27 -127.5 -42.5t-155.5 -15.5q-120 0 -193.5 49.5t-73.5 164.5v499h522v-140h-372v-124h318v-140h-318v-57q0 -59 36 -82.5t103 -23.5q63 0 122 13t101 34z" />
    <glyph glyph-name="F" unicode="F" horiz-adv-x="622" 
d="M578 559h-358v-145h310v-140h-310v-274h-150v699h508v-140z" />
    <glyph glyph-name="G" unicode="G" horiz-adv-x="788" 
d="M225 35q-88 48 -136.5 131t-48.5 184q0 100 50.5 183t136 131.5t185.5 48.5q95 0 177 -43t133 -117l-128 -74q-30 43 -78.5 67.5t-104.5 24.5q-59 0 -109.5 -29t-80 -79.5t-29.5 -112.5q0 -63 28.5 -113.5t80.5 -79.5t119 -29q49 0 90.5 13t66 37t24.5 54q0 43 -83 43
q-34 0 -73.5 -6.5t-67.5 -15.5l-36 127q88 31 206 31q105 0 155.5 -42.5t50.5 -109.5q0 -83 -47.5 -144.5t-123 -94.5t-157.5 -33q-112 0 -200 48z" />
    <glyph glyph-name="H" unicode="H" horiz-adv-x="769" 
d="M699 699v-699h-150v292q-80 -33 -165 -33t-164 33v-292h-150v699h150v-254q31 -21 73 -33t91 -12q99 0 165 45v254h150z" />
    <glyph glyph-name="I" unicode="I" horiz-adv-x="290" 
d="M70 699h150v-699h-150v699z" />
    <glyph glyph-name="J" unicode="J" horiz-adv-x="457" 
d="M143 129q48 0 72.5 24.5t24.5 90.5v455h150v-485q0 -120 -65.5 -174.5t-171.5 -54.5q-78 0 -152 28l50 134q49 -18 92 -18z" />
    <glyph glyph-name="K" unicode="K" horiz-adv-x="676" 
d="M511 291q59 -65 93.5 -143t40.5 -148h-159q-6 53 -41 122.5t-95 120.5t-134 52v-295h-146v699h146v-281l256 281h196l-291 -311q75 -32 134 -97z" />
    <glyph glyph-name="L" unicode="L" horiz-adv-x="594" 
d="M220 140h332v-140h-482v700h150v-560z" />
    <glyph glyph-name="M" unicode="M" horiz-adv-x="896" 
d="M686 0l-28 491q-50 -136 -146 -303h-132q-96 171 -146 306l-28 -494h-145l39 699h190q62 -165 157 -343q90 169 157 343h191l40 -699h-149z" />
    <glyph glyph-name="N" unicode="N" horiz-adv-x="775" 
d="M705 699v-699h-150q-88 87 -184.5 216.5t-153.5 242.5v-459h-147v699h179q52 -120 143 -261.5t166 -230.5v492h147z" />
    <glyph glyph-name="O" unicode="O" horiz-adv-x="824" 
d="M226.5 35.5q-85.5 48.5 -136 131.5t-50.5 183t50.5 183t136 131.5t185.5 48.5t185.5 -48.5t136 -131.5t50.5 -183t-50.5 -183t-136 -131.5t-185.5 -48.5t-185.5 48.5zM521.5 158q50.5 29 80.5 79.5t30 112.5t-30 112.5t-80.5 79.5t-109.5 29t-109.5 -29t-80.5 -79.5
t-30 -112.5t30 -112.5t80.5 -79.5t109.5 -29t109.5 29z" />
    <glyph glyph-name="P" unicode="P" horiz-adv-x="650" 
d="M494 667.5q60 -31.5 93 -86t33 -122.5q0 -71 -35.5 -127.5t-96.5 -88t-136 -31.5q-74 0 -132 18v-230h-150v699h288q76 0 136 -31.5zM433.5 381q34.5 31 34.5 78q0 45 -33.5 72.5t-88.5 27.5h-126v-188q53 -21 114 -21q65 0 99.5 31z" />
    <glyph glyph-name="Q" unicode="Q" horiz-adv-x="824" 
d="M713 -64q-71 35 -138 87q-78 -36 -163 -36q-100 0 -185.5 48.5t-136 131.5t-50.5 183t50.5 183t136 131.5t185.5 48.5t185.5 -48.5t136 -131.5t50.5 -183q0 -67 -23.5 -127.5t-65.5 -108.5q45 -36 96 -65zM222 237.5q30 -50.5 80.5 -79.5t109.5 -29q24 0 41 4
q-50 55 -78 103l115 82q29 -44 93 -108q49 62 49 140q0 62 -30 112.5t-80.5 79.5t-109.5 29t-109.5 -29t-80.5 -79.5t-30 -112.5t30 -112.5z" />
    <glyph glyph-name="R" unicode="R" horiz-adv-x="666" 
d="M584 159q34 -74 39 -159h-150q-11 95 -61.5 169t-153.5 74h-42v-243h-146v699h300q69 0 126 -28.5t90.5 -79.5t33.5 -115q0 -68 -35 -119t-95 -75q60 -49 94 -123zM358 372q50 0 80 25.5t30 68.5q0 42 -30.5 67.5t-79.5 25.5h-142v-187h142z" />
    <glyph glyph-name="S" unicode="S" horiz-adv-x="587" 
d="M197 149q54 -23 102 -23q50 0 80 21t30 57q0 31 -25.5 47t-79.5 31l-59 17q-197 56 -197 202q0 61 32 109.5t89.5 76t129.5 27.5q73 0 140 -24t108 -62l-95 -113q-27 28 -70.5 44.5t-83.5 16.5q-43 0 -70.5 -20t-27.5 -50q0 -25 25.5 -40.5t72.5 -28.5l59 -17
q96 -28 150 -78.5t54 -133.5q0 -63 -34 -114t-93 -80t-133 -29q-80 0 -157.5 29t-125.5 79l89 115q36 -36 90 -59z" />
    <glyph glyph-name="T" unicode="T" horiz-adv-x="632" 
d="M241 559h-210v140h570v-140h-210v-559h-150v559z" />
    <glyph glyph-name="U" unicode="U" horiz-adv-x="742" 
d="M209 27q-69 40 -105.5 108t-36.5 152v412h150v-411q0 -68 41.5 -113.5t112.5 -45.5q72 0 113 45t41 114v411h150v-412q0 -84 -36.5 -152t-105.5 -108t-162 -40t-162 40z" />
    <glyph glyph-name="V" unicode="V" horiz-adv-x="745" 
d="M567 699h163l-275 -699h-165l-275 699h165l195 -507z" />
    <glyph glyph-name="W" unicode="W" horiz-adv-x="1084" 
d="M1064 699l-208 -699h-188q-56 239 -128 472q-64 -210 -128 -472h-184l-208 699h161l146 -506q55 233 139 476h148q89 -244 147 -477l143 507h160z" />
    <glyph glyph-name="X" unicode="X" horiz-adv-x="694" 
d="M503 0q-57 150 -156 269q-99 -119 -156 -269h-166q32 98 85 189.5t119 168.5q-135 165 -190 341h163q53 -138 145 -255q92 117 145 255h163q-55 -176 -190 -341q66 -77 119 -168.5t85 -189.5h-166z" />
    <glyph glyph-name="Y" unicode="Y" horiz-adv-x="652" 
d="M543.5 473.5q-62.5 -108.5 -142.5 -199.5v-274h-150v276q-80 90 -143 198.5t-94 224.5h163q23 -74 62.5 -151t87.5 -133q49 55 88.5 132.5t62.5 151.5h160q-32 -117 -94.5 -225.5z" />
    <glyph glyph-name="Z" unicode="Z" horiz-adv-x="643" 
d="M443 335q-96 -110 -194 -195h350v-140h-556v138q116 106 218 213t166 208h-374v140h547v-140q-61 -114 -157 -224z" />
    <glyph glyph-name="bracketleft" unicode="[" horiz-adv-x="365" 
d="M101 750h230v-123h-83v-664h83v-123h-230v910z" />
    <glyph glyph-name="backslash" unicode="\" horiz-adv-x="558" 
d="M538 0l-115 -61l-403 760l115 61z" />
    <glyph glyph-name="bracketright" unicode="]" horiz-adv-x="365" 
d="M264 -160h-230v123h83v664h-83v123h230v-910z" />
    <glyph glyph-name="asciicircum" unicode="^" horiz-adv-x="637" 
d="M257 699h122l188 -376h-136l-112 229l-112 -229h-137z" />
    <glyph glyph-name="underscore" unicode="_" horiz-adv-x="568" 
d="M-29 -80h626v-70h-626v70z" />
    <glyph glyph-name="grave" unicode="`" horiz-adv-x="330" 
d="M133 557l-88 142h161l79 -142h-152z" />
    <glyph glyph-name="a" unicode="a" horiz-adv-x="638" 
d="M571 487v-487h-142v49q-57 -62 -147 -62q-68 0 -124.5 32.5t-89 91t-32.5 132.5t32.5 133t89 91.5t124.5 32.5q90 0 147 -62v49h142zM396 150q36 37 36 93q0 55 -36 93t-89 38t-89 -37.5t-36 -93.5t36 -93t89 -37t89 37z" />
    <glyph glyph-name="b" unicode="b" horiz-adv-x="638" 
d="M480.5 467.5q56.5 -32.5 89 -91.5t32.5 -133t-32.5 -132.5t-89 -91t-124.5 -32.5q-90 0 -147 62v-49h-142v699h144v-259q57 60 145 60q68 0 124.5 -32.5zM420 150q36 37 36 93t-36 93.5t-89 37.5t-89 -38t-36 -93q0 -56 36 -93t89 -37t89 37z" />
    <glyph glyph-name="c" unicode="c" horiz-adv-x="553" 
d="M167.5 19.5q-61.5 33.5 -96.5 92.5t-35 131t35 131t96.5 92.5t136.5 33.5q74 0 133 -29.5t95 -81.5l-112 -76q-47 58 -116 58q-51 0 -86.5 -37t-35.5 -91t35.5 -91t86.5 -37q73 0 120 63l109 -79q-37 -53 -95 -83t-134 -30q-75 0 -136.5 33.5z" />
    <glyph glyph-name="d" unicode="d" horiz-adv-x="638" 
d="M571 699v-699h-142v49q-57 -62 -147 -62q-68 0 -124.5 32.5t-89 91t-32.5 132.5t32.5 133t89 91.5t124.5 32.5q88 0 145 -60v259h144zM396 150q36 37 36 93q0 55 -36 93t-89 38t-89 -37.5t-36 -93.5t36 -93t89 -37t89 37z" />
    <glyph glyph-name="e" unicode="e" 
d="M430 465.5q60 -34.5 92 -95.5t27 -137l-353 -65q37 -54 119 -54q76 0 144 51l75 -103q-51 -42 -105.5 -59t-114.5 -17q-80 0 -143.5 33t-99 91.5t-35.5 131.5q0 71 34 130t93.5 93.5t132.5 34.5q74 0 134 -34.5zM217.5 351.5q-31.5 -27.5 -40.5 -73.5l222 41
q-15 28 -42 44t-62 16q-46 0 -77.5 -27.5z" />
    <glyph glyph-name="f" unicode="f" horiz-adv-x="448" 
d="M341 586q-32 0 -55.5 -18t-23.5 -62v-19h146v-126h-146v-361h-144v361h-85v126h85v29q0 96 53 147t146 51q48 0 89.5 -11.5t70.5 -29.5l-42 -110q-48 23 -94 23z" />
    <glyph glyph-name="g" unicode="g" horiz-adv-x="634" 
d="M567 487v-453q0 -78 -33 -134t-92 -85.5t-135 -29.5q-68 0 -130 17t-111 52l66 114q34 -24 76.5 -39.5t91.5 -15.5q59 0 92 29t33 81v34q-55 -60 -144 -60q-67 0 -122.5 32t-88 89t-32.5 130t32.5 130.5t88 89.5t122.5 32q89 0 144 -60v47h142zM392.5 158.5
q35.5 35.5 35.5 89.5q0 53 -35.5 89.5t-86.5 36.5q-52 0 -87 -36.5t-35 -89.5q0 -54 35 -89.5t87 -35.5q51 0 86.5 35.5z" />
    <glyph glyph-name="h" unicode="h" horiz-adv-x="610" 
d="M500.5 447.5q49.5 -52.5 49.5 -138.5v-309h-144v281q0 42 -26 66t-65 24q-44 0 -74 -30.5t-30 -79.5v-261h-144v699h144v-260q58 61 155 61q85 0 134.5 -52.5z" />
    <glyph glyph-name="i" unicode="i" horiz-adv-x="278" 
d="M67 487h144v-487h-144v487zM75 568.5q-27 26.5 -27 63.5t26.5 63.5t64.5 26.5t64.5 -26.5t26.5 -63.5t-27 -63.5t-64 -26.5t-64 26.5z" />
    <glyph glyph-name="j" unicode="j" horiz-adv-x="279" 
d="M185.5 -29q-26.5 -98 -72.5 -174l-129 52q41 74 61.5 156t20.5 213v269h146v-284q0 -134 -26.5 -232zM75 568.5q-27 26.5 -27 63.5t26.5 63.5t64.5 26.5t64.5 -26.5t26.5 -63.5t-27 -63.5t-64 -26.5t-64 26.5z" />
    <glyph glyph-name="k" unicode="k" horiz-adv-x="574" 
d="M487.5 168q48.5 -80 58.5 -168h-151q-5 44 -29 92.5t-64 84t-91 41.5v-218h-144v699h144v-396l163 184h183l-187 -200q69 -39 117.5 -119z" />
    <glyph glyph-name="l" unicode="l" horiz-adv-x="278" 
d="M67 699h144v-699h-144v699z" />
    <glyph glyph-name="m" unicode="m" horiz-adv-x="929" 
d="M817.5 447.5q51.5 -52.5 51.5 -138.5v-309h-144v281q0 42 -25 66t-62 24q-42 0 -70 -30.5t-28 -79.5v-261h-144v281q0 42 -25 66t-62 24q-42 0 -70 -30.5t-28 -79.5v-261h-144v487h142v-50q56 63 152 63q50 0 87.5 -19.5t61.5 -56.5q64 76 170 76q86 0 137.5 -52.5z" />
    <glyph glyph-name="n" unicode="n" horiz-adv-x="610" 
d="M500.5 447.5q49.5 -52.5 49.5 -138.5v-309h-144v281q0 42 -26 66t-65 24q-44 0 -74 -30.5t-30 -79.5v-261h-144v487h142v-50q59 63 157 63q85 0 134.5 -52.5z" />
    <glyph glyph-name="o" unicode="o" horiz-adv-x="610" 
d="M168.5 20.5q-61.5 33.5 -97 92t-35.5 130.5t35.5 131t97 92.5t136.5 33.5t136.5 -33.5t97 -92.5t35.5 -131t-35.5 -130.5t-97 -92t-136.5 -33.5t-136.5 33.5zM392.5 152q35.5 36 35.5 91t-35.5 91.5t-87.5 36.5t-87.5 -36.5t-35.5 -91.5t35.5 -91t87.5 -36t87.5 36z" />
    <glyph glyph-name="p" unicode="p" horiz-adv-x="639" 
d="M481.5 467.5q56.5 -32.5 89 -91.5t32.5 -133t-32.5 -132.5t-89 -91t-124.5 -32.5q-90 0 -146 61v-248h-144v687h142v-50q57 63 148 63q68 0 124.5 -32.5zM421 150q36 37 36 93t-36 93.5t-89 37.5t-89 -38t-36 -93q0 -56 36 -93t89 -37t89 37z" />
    <glyph glyph-name="q" unicode="q" horiz-adv-x="639" 
d="M572 487v-687h-144v248q-56 -61 -146 -61q-68 0 -124.5 32.5t-89 91t-32.5 132.5t32.5 133t89 91.5t124.5 32.5q91 0 148 -63v50h142zM396 150q36 37 36 93q0 55 -36 93t-89 38t-89 -37.5t-36 -93.5t36 -93t89 -37t89 37z" />
    <glyph glyph-name="r" unicode="r" horiz-adv-x="449" 
d="M429 361q-94 -8 -156 -68.5t-62 -197.5v-95h-144v487h142v-98q65 104 197 107z" />
    <glyph glyph-name="s" unicode="s" horiz-adv-x="487" 
d="M169.5 125.5q42.5 -16.5 84.5 -16.5q60 0 60 33q0 15 -18 24t-58 19l-41 10q-71 17 -110.5 52t-39.5 95q0 44 25 80.5t70 58t102 21.5q62 0 114.5 -18.5t85.5 -46.5l-74 -102q-25 21 -59 32t-64 11q-27 0 -41.5 -8t-14.5 -20q0 -13 13.5 -20.5t44.5 -15.5l38 -10
q84 -22 126 -55.5t42 -97.5q0 -48 -24 -85.5t-68.5 -58.5t-104.5 -21q-71 0 -133.5 20.5t-105.5 58.5l80 100q28 -23 70.5 -39.5z" />
    <glyph glyph-name="t" unicode="t" horiz-adv-x="485" 
d="M305 -13q-92 0 -139.5 49t-47.5 144v181h-85v126h85v130h144v-130h173v-126h-173v-168q0 -73 67 -73q44 0 88 25l44 -114q-67 -44 -156 -44z" />
    <glyph glyph-name="u" unicode="u" horiz-adv-x="592" 
d="M173 14.5q-54 27.5 -83.5 78t-29.5 115.5v279h144v-271q0 -43 25.5 -71.5t66.5 -28.5t66.5 28.5t25.5 71.5v271h144v-279q0 -65 -29.5 -115.5t-83.5 -78t-123 -27.5t-123 27.5z" />
    <glyph glyph-name="v" unicode="v" horiz-adv-x="588" 
d="M578 465q-61 -85 -125 -215t-100 -250h-143l-195 487h155l113 -296q26 80 78 184.5t95 154.5z" />
    <glyph glyph-name="w" unicode="w" horiz-adv-x="889" 
d="M879 465q-56 -78 -117.5 -211.5t-99.5 -253.5h-141l-91 262l-95 -262h-138l-182 487h154l105 -304l97 274h122l96 -269q24 80 74.5 184.5t92.5 157.5z" />
    <glyph glyph-name="x" unicode="x" horiz-adv-x="571" 
d="M391 0q-34 93 -105 179q-72 -85 -106 -179h-156q39 126 145 246q-103 119 -139 241h156q33 -89 99 -172q66 82 100 172h156q-36 -122 -139 -239q108 -124 145 -248h-156z" />
    <glyph glyph-name="y" unicode="y" horiz-adv-x="602" 
d="M577 487q-47 -187 -144 -381.5t-214 -326.5l-116 73q69 81 120 160l-207 475h160l134 -319q68 141 113 319h154z" />
    <glyph glyph-name="z" unicode="z" horiz-adv-x="524" 
d="M473 126v-126h-422v124q136 108 252 237h-252v126h418v-126q-75 -106 -221 -235h225z" />
    <glyph glyph-name="braceleft" unicode="{" horiz-adv-x="390" 
d="M190 -111q-56 49 -56 129v147q0 29 -20.5 46t-59.5 17h-19v138h19q39 0 59.5 17t20.5 45v144q0 80 56 129t156 49h10v-123h-10q-33 0 -50 -15t-17 -40v-134q0 -43 -17.5 -79.5t-45.5 -62.5q28 -25 45.5 -61.5t17.5 -79.5v-137q0 -25 17 -40t50 -15h10v-123h-10
q-100 0 -156 49z" />
    <glyph glyph-name="bar" unicode="|" horiz-adv-x="405" 
d="M135 790h136v-926h-136v926z" />
    <glyph glyph-name="braceright" unicode="}" horiz-adv-x="390" 
d="M34 -160v123h10q33 0 50 15t17 40v137q0 43 17.5 79.5t45.5 61.5q-28 26 -45.5 62.5t-17.5 79.5v134q0 25 -17 40t-50 15h-10v123h10q100 0 156 -49t56 -129v-144q0 -28 20.5 -45t59.5 -17h19v-138h-19q-39 0 -59.5 -17t-20.5 -46v-147q0 -80 -56 -129t-156 -49h-10z" />
    <glyph glyph-name="asciitilde" unicode="~" horiz-adv-x="695" 
d="M116.5 370q43.5 46 111.5 46q27 0 54.5 -7.5t67.5 -21.5q30 -11 50.5 -17t37.5 -6q30 0 43.5 13.5t15.5 39.5h132q-7 -81 -50.5 -128t-108.5 -47q-30 0 -58.5 7.5t-69.5 22.5q-36 12 -53 17t-33 5q-31 0 -44.5 -13.5t-15.5 -39.5h-130q7 83 50.5 129z" />
    <glyph glyph-name="uni00A0" unicode="&#xa0;" horiz-adv-x="352" 
 />
    <glyph glyph-name="exclamdown" unicode="&#xa1;" horiz-adv-x="334" 
d="M237.5 475q26.5 -26 26.5 -70q0 -39 -28.5 -67.5t-68.5 -28.5t-68.5 28.5t-28.5 67.5t28.5 67.5t68.5 28.5q44 0 70.5 -26zM240 -209h-147v456h147v-456z" />
    <glyph glyph-name="cent" unicode="&#xa2;" horiz-adv-x="591" 
d="M470 141.5q-51 -30.5 -114 -37.5v-104h-72v104q-66 8 -117.5 43.5t-80.5 90.5t-29 121t29 121t80.5 90.5t117.5 43.5v85h72v-85q62 -7 113 -37t83 -78l-114 -70q-34 45 -82 57v-254q53 14 86 62l111 -73q-32 -49 -83 -79.5zM223 280q23 -34 61 -46v250q-38 -12 -61 -46
t-23 -79t23 -79z" />
    <glyph glyph-name="sterling" unicode="&#xa3;" horiz-adv-x="661" 
d="M258 138h352v-138h-525v138q31 0 50.5 24t19.5 66v51h-70v111h70v84q0 71 30 125t83 83.5t121 29.5q89 0 144.5 -36.5t80.5 -85.5l-118 -74q-34 61 -105 61q-40 0 -66 -28t-26 -85v-74h182v-111h-182v-40q0 -55 -41 -101z" />
    <glyph glyph-name="yen" unicode="&#xa5;" horiz-adv-x="651" 
d="M436 366h123v-87h-158v-56h158v-87h-158v-136h-147v136h-161v87h161v56h-161v87h126q-131 163 -186 333h158q20 -62 57.5 -131.5t79.5 -120.5q42 49 79.5 119t58.5 133h155q-54 -169 -185 -333z" />
    <glyph glyph-name="brokenbar" unicode="&#xa6;" horiz-adv-x="405" 
d="M135 790h136v-406h-136v406zM135 270h136v-406h-136v406z" />
    <glyph glyph-name="section" unicode="&#xa7;" horiz-adv-x="663" 
d="M571.5 154.5q-21.5 -40.5 -60.5 -69.5q29 -44 29 -103q0 -56 -30 -100.5t-81.5 -70t-112.5 -25.5q-69 0 -123 21t-87 55l92 99q26 -21 53.5 -31t63.5 -10q34 0 55.5 16t21.5 42q0 25 -19.5 40.5t-59.5 27.5l-57 17q-92 28 -139 74t-47 122q0 46 21.5 86.5t60.5 69.5
q-29 44 -29 103q0 56 30 100.5t81.5 70t112.5 25.5q69 0 123 -21t87 -55l-92 -99q-26 21 -53.5 31t-63.5 10q-34 0 -55.5 -16t-21.5 -42q0 -25 19.5 -40.5t59.5 -27.5l57 -17q92 -28 139 -74t47 -122q0 -46 -21.5 -86.5zM358 181q28 -8 46 -16q42 25 42 64q0 29 -21.5 45
t-65.5 29l-54 16q-28 8 -46 16q-42 -25 -42 -64q0 -29 21.5 -45t65.5 -29z" />
    <glyph glyph-name="dieresis" unicode="&#xa8;" horiz-adv-x="501" 
d="M71 571.5q-26 25.5 -26 60.5q0 36 26 61t62 25t62 -25t26 -61q0 -35 -26 -60.5t-62 -25.5t-62 25.5zM306 571.5q-26 25.5 -26 60.5q0 36 26 61t62 25t62 -25t26 -61q0 -35 -26 -60.5t-62 -25.5t-62 25.5z" />
    <glyph glyph-name="copyright" unicode="&#xa9;" horiz-adv-x="832" 
d="M227.5 33q-86.5 49 -137 133t-50.5 184t50.5 184t137 133t188.5 49t188.5 -49t137 -133t50.5 -184t-50.5 -184t-137 -133t-188.5 -49t-188.5 49zM562.5 100.5q66.5 37.5 105.5 103t39 146.5t-39 146.5t-105.5 103t-146.5 37.5t-146.5 -37.5t-105 -103t-38.5 -146.5
t38.5 -146.5t105 -103t146.5 -37.5t146.5 37.5zM318 178q-47 27 -74 73t-27 102q0 55 27 101t74 73t104 27q54 0 101 -23t73 -65l-89 -63q-15 22 -36.5 32.5t-44.5 10.5q-40 0 -65.5 -26.5t-25.5 -66.5t25.5 -66.5t65.5 -26.5q24 0 45.5 10.5t36.5 32.5l88 -64
q-26 -41 -73 -64.5t-101 -23.5q-57 0 -104 27z" />
    <glyph glyph-name="ordfeminine" unicode="&#xaa;" horiz-adv-x="474" 
d="M429 699v-359h-101v39q-17 -21 -46 -32t-61 -11q-52 0 -92 24.5t-62 66.5t-22 94t22 94.5t62 67t92 24.5q30 0 59.5 -11t47.5 -32v35h101zM302.5 458q24.5 25 24.5 63t-24.5 63.5t-63.5 25.5q-38 0 -63.5 -26t-25.5 -63t26 -62.5t63 -25.5q39 0 63.5 25z" />
    <glyph glyph-name="guillemotleft" unicode="&#xab;" horiz-adv-x="661" 
d="M317 277l141 201h163l-139 -201l139 -201h-163zM40 277l141 201h163l-139 -201l139 -201h-163z" />
    <glyph glyph-name="logicalnot" unicode="&#xac;" horiz-adv-x="652" 
d="M439 256h-373v147h520v-333h-147v186z" />
    <glyph glyph-name="uni00AD" unicode="&#xad;" horiz-adv-x="421" 
d="M47 332h327v-144h-327v144z" />
    <glyph glyph-name="registered" unicode="&#xae;" horiz-adv-x="520" 
d="M370.5 754.5q50.5 -29.5 80 -80t29.5 -110.5t-29.5 -110.5t-80 -80t-110.5 -29.5t-110.5 29.5t-80 80t-29.5 110.5t29.5 110.5t80 80t110.5 29.5t110.5 -29.5zM345.5 417q38.5 23 61 62t22.5 85t-22.5 85t-61 62t-85.5 23q-46 0 -84.5 -23t-61 -62t-22.5 -85t22.5 -85
t61 -62t84.5 -23q47 0 85.5 23zM344 507.5q11 -23.5 13 -50.5h-50q-4 31 -19 54t-48 23h-11v-77h-51v223h98q33 0 56.5 -20.5t23.5 -50.5q0 -21 -11.5 -37.5t-30.5 -24.5q19 -16 30 -39.5zM270 576q16 0 25.5 8t9.5 21q0 14 -9.5 22t-25.5 8h-41v-59h41z" />
    <glyph glyph-name="macron" unicode="&#xaf;" horiz-adv-x="404" 
d="M45 679h314v-119h-314v119z" />
    <glyph glyph-name="degree" unicode="&#xb0;" horiz-adv-x="432" 
d="M133 453q-38 22 -60.5 60t-22.5 83t22.5 83t60.5 60.5t82 22.5t82.5 -22.5t61.5 -60.5t23 -83t-23 -83t-61.5 -60t-82.5 -22t-82 22zM265.5 546q20.5 20 20.5 50t-20.5 50t-50.5 20q-29 0 -49.5 -20t-20.5 -50t20.5 -50t49.5 -20q30 0 50.5 20z" />
    <glyph glyph-name="plusminus" unicode="&#xb1;" horiz-adv-x="652" 
d="M66 143h520v-139h-520v139zM586 516v-139h-190v-190h-139v190h-191v139h191v191h139v-191h190z" />
    <glyph glyph-name="uni00B2" unicode="&#xb2;" horiz-adv-x="373" 
d="M343 441v-94h-300v82q181 114 181 195q0 21 -12.5 32.5t-33.5 11.5q-44 0 -66 -58l-90 42q24 58 66.5 85.5t93.5 27.5q40 0 73.5 -18t53 -49.5t19.5 -69.5q0 -43 -26.5 -91t-90.5 -96h132z" />
    <glyph glyph-name="uni00B3" unicode="&#xb3;" horiz-adv-x="341" 
d="M290.5 552q28.5 -33 28.5 -82q0 -41 -22 -73t-58.5 -50t-79.5 -18q-41 0 -80.5 17t-62.5 42l69 71q11 -15 31.5 -25.5t44.5 -10.5t40 13t16 35q0 21 -15.5 34t-38.5 13q-28 0 -51 -15l-59 56l103 96h-132v95h270v-82l-75 -69q43 -14 71.5 -47z" />
    <glyph glyph-name="acute" unicode="&#xb4;" horiz-adv-x="330" 
d="M124 699h161l-87 -142h-153z" />
    <glyph glyph-name="uni00B5" unicode="&#xb5;" horiz-adv-x="615" 
d="M548 0h-134v50q-36 -61 -113 -61q-54 0 -90 34v-203h-144v667h144v-283q0 -36 28.5 -61.5t68.5 -25.5t68 25.5t28 61.5v283h144v-487z" />
    <glyph glyph-name="paragraph" unicode="&#xb6;" horiz-adv-x="652" 
d="M253 273q-61 0 -112.5 27.5t-81 76.5t-29.5 109t29.5 109t81 76.5t112.5 27.5h129v-799h-106v373h-23zM476 699h106v-799h-106v799z" />
    <glyph glyph-name="periodcentered" unicode="&#xb7;" horiz-adv-x="290" 
d="M74 204q-29 29 -29 70t29 70t71 29t71 -29t29 -70t-29 -70t-71 -29t-71 29z" />
    <glyph glyph-name="cedilla" unicode="&#xb8;" horiz-adv-x="357" 
d="M170 -143q43 0 43 30q0 16 -22 28.5t-67 19.5l42 75q63 -10 104.5 -41.5t41.5 -85.5q0 -51 -39 -82t-97 -31q-38 0 -73.5 12.5t-57.5 31.5l42 73q38 -30 83 -30z" />
    <glyph glyph-name="uni00B9" unicode="&#xb9;" horiz-adv-x="296" 
d="M221 750v-403h-114v302h-62v101h176z" />
    <glyph glyph-name="ordmasculine" unicode="&#xba;" horiz-adv-x="481" 
d="M143 356.5q-45 25.5 -71.5 69.5t-26.5 95q0 52 26 95.5t71 69t99 25.5q53 0 98 -25.5t71 -69t26 -95.5q0 -51 -26.5 -95t-71 -69.5t-97.5 -25.5t-98 25.5zM306 457q27 27 27 64t-27 63.5t-65 26.5q-36 0 -63.5 -26.5t-27.5 -63.5t26.5 -64t64.5 -27t65 27z" />
    <glyph glyph-name="guillemotright" unicode="&#xbb;" horiz-adv-x="661" 
d="M317 76l141 201l-141 201h164l140 -201l-140 -201h-164zM40 76l141 201l-141 201h164l140 -201l-140 -201h-164z" />
    <glyph glyph-name="onequarter" unicode="&#xbc;" horiz-adv-x="930" 
d="M636 708l87 -68l-508 -649l-87 68zM221 296h-114v302h-62v101h176v-403zM906 168v-95h-59v-73h-99v73h-237v93q31 61 74 126t88 120l85 -53q-83 -100 -130 -191h120v72h99v-72h59z" />
    <glyph glyph-name="onehalf" unicode="&#xbd;" horiz-adv-x="928" 
d="M636 708l87 -68l-508 -649l-87 68zM221 296h-114v302h-62v101h176v-403zM898 94v-94h-300v82q181 114 181 195q0 21 -12.5 32.5t-33.5 11.5q-44 0 -66 -58l-90 42q24 58 66.5 85.5t93.5 27.5q40 0 73.5 -18t53 -49.5t19.5 -69.5q0 -43 -26.5 -91t-90.5 -96h132z" />
    <glyph glyph-name="threequarters" unicode="&#xbe;" horiz-adv-x="975" 
d="M681 708l87 -68l-508 -649l-87 68zM297 346q-22 -32 -58.5 -50t-79.5 -18q-41 0 -80.5 17t-62.5 42l69 71q11 -15 31.5 -25.5t44.5 -10.5t40 13t16 35q0 21 -15.5 34t-38.5 13q-28 0 -51 -15l-59 56l103 96h-132v95h270v-82l-75 -69q43 -14 71.5 -47t28.5 -82
q0 -41 -22 -73zM951 168v-95h-59v-73h-99v73h-237v93q31 61 74 126t88 120l85 -53q-83 -100 -130 -191h120v72h99v-72h59z" />
    <glyph glyph-name="questiondown" unicode="&#xbf;" horiz-adv-x="460" 
d="M323.5 472.5q28.5 -28.5 28.5 -67.5t-28.5 -67.5t-68.5 -28.5t-68.5 28.5t-28.5 67.5q0 44 26.5 70t70.5 26q40 0 68.5 -28.5zM210 81.5q-44 -70.5 -44 -110.5q0 -29 20 -45t60 -16q35 0 69 16.5t64 42.5l74 -114q-88 -80 -214 -80q-103 0 -164 51t-61 135q0 59 46 139.5
t110 145.5h169q-85 -94 -129 -164.5z" />
    <glyph glyph-name="Agrave" unicode="&#xc0;" horiz-adv-x="731" 
d="M563 0l-46 121q-70 -26 -153 -26q-87 0 -157 27l-46 -122h-153l275 699h165l275 -699h-160zM467 252l-106 277l-104 -276q46 -17 107 -17q57 0 103 16zM295 759l-88 142h161l79 -142h-152z" />
    <glyph glyph-name="Aacute" unicode="&#xc1;" horiz-adv-x="731" 
d="M563 0l-46 121q-70 -26 -153 -26q-87 0 -157 27l-46 -122h-153l275 699h165l275 -699h-160zM467 252l-106 277l-104 -276q46 -17 107 -17q57 0 103 16zM366 901h161l-87 -142h-153z" />
    <glyph glyph-name="Acircumflex" unicode="&#xc2;" horiz-adv-x="731" 
d="M563 0l-46 121q-70 -26 -153 -26q-87 0 -157 27l-46 -122h-153l275 699h165l275 -699h-160zM467 252l-106 277l-104 -276q46 -17 107 -17q57 0 103 16zM262 901h208l99 -142h-155l-48 65l-46 -65h-157z" />
    <glyph glyph-name="Atilde" unicode="&#xc3;" horiz-adv-x="731" 
d="M563 0l-46 121q-70 -26 -153 -26q-87 0 -157 27l-46 -122h-153l275 699h165l275 -699h-160zM467 252l-106 277l-104 -276q46 -17 107 -17q57 0 103 16zM394 756q-19 7 -39 19q-27 16 -41 16q-31 0 -37 -42h-104q7 76 41 114t81 38q23 0 41 -7t40 -19q15 -9 24 -13t18 -4
q31 0 36 43h106q-6 -77 -40 -114.5t-82 -37.5q-25 0 -44 7z" />
    <glyph glyph-name="Adieresis" unicode="&#xc4;" horiz-adv-x="731" 
d="M563 0l-46 121q-70 -26 -153 -26q-87 0 -157 27l-46 -122h-153l275 699h165l275 -699h-160zM467 252l-106 277l-104 -276q46 -17 107 -17q57 0 103 16zM169.5 772q-26.5 26 -26.5 61q0 36 26.5 61.5t62.5 25.5t62.5 -25.5t26.5 -61.5q0 -35 -26.5 -61t-62.5 -26t-62.5 26
zM438.5 772q-26.5 26 -26.5 61q0 36 26.5 61.5t62.5 25.5t62.5 -25.5t26.5 -61.5q0 -35 -26.5 -61t-62.5 -26t-62.5 26z" />
    <glyph glyph-name="Aring" unicode="&#xc5;" horiz-adv-x="731" 
d="M563 0l-46 121q-70 -26 -153 -26q-87 0 -157 27l-46 -122h-153l257 653q-23 19 -35.5 46t-12.5 58q0 39 20 71.5t54.5 51.5t75.5 19t75.5 -19t54.5 -51.5t20 -71.5q0 -32 -13 -59t-37 -47l256 -651h-160zM325.5 797q-16.5 -16 -16.5 -40t16.5 -39.5t41.5 -15.5
q24 0 40.5 15.5t16.5 39.5t-16.5 40t-40.5 16q-25 0 -41.5 -16zM467 252l-106 277l-104 -276q46 -17 107 -17q57 0 103 16z" />
    <glyph glyph-name="AE" unicode="&#xc6;" horiz-adv-x="1037" 
d="M1003 44q-51 -27 -127.5 -42.5t-155.5 -15.5q-105 0 -175 37.5t-87 123.5h-215l-74 -147h-169l360 699h615v-140h-372v-124h318v-140h-318v-57q0 -59 36 -82.5t103 -23.5q63 0 122 13t101 34zM453 562l-142 -280h142v280z" />
    <glyph glyph-name="Ccedilla" unicode="&#xc7;" horiz-adv-x="749" 
d="M613.5 42q-69.5 -42 -152.5 -52q77 -35 77 -107q0 -51 -39 -82t-97 -31q-38 0 -73.5 12.5t-57.5 31.5l42 73q38 -30 83 -30q43 0 43 30q0 16 -22 28.5t-67 19.5l30 53q-94 8 -171.5 58t-123 130t-45.5 174q0 100 50.5 183t136 131.5t185.5 48.5q99 0 181.5 -43
t133.5 -119l-126 -77q-34 45 -83.5 71t-105.5 26q-59 0 -109.5 -29t-80.5 -79.5t-30 -112.5t30 -112.5t80.5 -79.5t109.5 -29q58 0 108 27t84 74l124 -80q-45 -66 -114.5 -108z" />
    <glyph glyph-name="Egrave" unicode="&#xc8;" horiz-adv-x="650" 
d="M616 44q-51 -27 -127.5 -42.5t-155.5 -15.5q-120 0 -193.5 49.5t-73.5 164.5v499h522v-140h-372v-124h318v-140h-318v-57q0 -59 36 -82.5t103 -23.5q63 0 122 13t101 34zM259 759l-88 142h161l79 -142h-152z" />
    <glyph glyph-name="Eacute" unicode="&#xc9;" horiz-adv-x="650" 
d="M616 44q-51 -27 -127.5 -42.5t-155.5 -15.5q-120 0 -193.5 49.5t-73.5 164.5v499h522v-140h-372v-124h318v-140h-318v-57q0 -59 36 -82.5t103 -23.5q63 0 122 13t101 34zM330 901h161l-87 -142h-153z" />
    <glyph glyph-name="Ecircumflex" unicode="&#xca;" horiz-adv-x="650" 
d="M616 44q-51 -27 -127.5 -42.5t-155.5 -15.5q-120 0 -193.5 49.5t-73.5 164.5v499h522v-140h-372v-124h318v-140h-318v-57q0 -59 36 -82.5t103 -23.5q63 0 122 13t101 34zM226 901h208l99 -142h-155l-48 65l-46 -65h-157z" />
    <glyph glyph-name="Edieresis" unicode="&#xcb;" horiz-adv-x="650" 
d="M616 44q-51 -27 -127.5 -42.5t-155.5 -15.5q-120 0 -193.5 49.5t-73.5 164.5v499h522v-140h-372v-124h318v-140h-318v-57q0 -59 36 -82.5t103 -23.5q63 0 122 13t101 34zM133.5 772q-26.5 26 -26.5 61q0 36 26.5 61.5t62.5 25.5t62.5 -25.5t26.5 -61.5q0 -35 -26.5 -61
t-62.5 -26t-62.5 26zM402.5 772q-26.5 26 -26.5 61q0 36 26.5 61.5t62.5 25.5t62.5 -25.5t26.5 -61.5q0 -35 -26.5 -61t-62.5 -26t-62.5 26z" />
    <glyph glyph-name="Igrave" unicode="&#xcc;" horiz-adv-x="290" 
d="M70 699h150v-699h-150v699zM73 759l-88 142h161l79 -142h-152z" />
    <glyph glyph-name="Iacute" unicode="&#xcd;" horiz-adv-x="290" 
d="M70 699h150v-699h-150v699zM144 901h161l-87 -142h-153z" />
    <glyph glyph-name="Icircumflex" unicode="&#xce;" horiz-adv-x="290" 
d="M70 699h150v-699h-150v699zM40 901h208l99 -142h-155l-48 65l-46 -65h-157z" />
    <glyph glyph-name="Idieresis" unicode="&#xcf;" horiz-adv-x="290" 
d="M70 699h150v-699h-150v699zM-35 773.5q-26 25.5 -26 60.5q0 36 26 61t62 25t62 -25t26 -61q0 -35 -26 -60.5t-62 -25.5t-62 25.5zM200 773.5q-26 25.5 -26 60.5q0 36 26 61t62 25t62 -25t26 -61q0 -35 -26 -60.5t-62 -25.5t-62 25.5z" />
    <glyph glyph-name="Eth" unicode="&#xd0;" horiz-adv-x="762" 
d="M541 654.5q85 -44.5 133 -124.5t48 -181t-48 -180.5t-133 -124t-192 -44.5h-259v282h-60v136h60v281h259q107 0 192 -44.5zM465 168q50 26 77.5 73t27.5 108q0 62 -27.5 109t-77.5 73t-116 26h-109v-139h157v-136h-157v-140h109q66 0 116 26z" />
    <glyph glyph-name="Ntilde" unicode="&#xd1;" horiz-adv-x="775" 
d="M705 699v-699h-150q-88 87 -184.5 216.5t-153.5 242.5v-459h-147v699h179q52 -120 143 -261.5t166 -230.5v492h147zM415 756q-19 7 -39 19q-27 16 -41 16q-31 0 -37 -42h-104q7 76 41 114t81 38q23 0 41 -7t40 -19q15 -9 24 -13t18 -4q31 0 36 43h106q-6 -77 -40 -114.5
t-82 -37.5q-25 0 -44 7z" />
    <glyph glyph-name="Ograve" unicode="&#xd2;" horiz-adv-x="824" 
d="M226.5 35.5q-85.5 48.5 -136 131.5t-50.5 183t50.5 183t136 131.5t185.5 48.5t185.5 -48.5t136 -131.5t50.5 -183t-50.5 -183t-136 -131.5t-185.5 -48.5t-185.5 48.5zM521.5 158q50.5 29 80.5 79.5t30 112.5t-30 112.5t-80.5 79.5t-109.5 29t-109.5 -29t-80.5 -79.5
t-30 -112.5t30 -112.5t80.5 -79.5t109.5 -29t109.5 29zM340 759l-88 142h161l79 -142h-152z" />
    <glyph glyph-name="Oacute" unicode="&#xd3;" horiz-adv-x="824" 
d="M226.5 35.5q-85.5 48.5 -136 131.5t-50.5 183t50.5 183t136 131.5t185.5 48.5t185.5 -48.5t136 -131.5t50.5 -183t-50.5 -183t-136 -131.5t-185.5 -48.5t-185.5 48.5zM521.5 158q50.5 29 80.5 79.5t30 112.5t-30 112.5t-80.5 79.5t-109.5 29t-109.5 -29t-80.5 -79.5
t-30 -112.5t30 -112.5t80.5 -79.5t109.5 -29t109.5 29zM411 901h161l-87 -142h-153z" />
    <glyph glyph-name="Ocircumflex" unicode="&#xd4;" horiz-adv-x="824" 
d="M226.5 35.5q-85.5 48.5 -136 131.5t-50.5 183t50.5 183t136 131.5t185.5 48.5t185.5 -48.5t136 -131.5t50.5 -183t-50.5 -183t-136 -131.5t-185.5 -48.5t-185.5 48.5zM521.5 158q50.5 29 80.5 79.5t30 112.5t-30 112.5t-80.5 79.5t-109.5 29t-109.5 -29t-80.5 -79.5
t-30 -112.5t30 -112.5t80.5 -79.5t109.5 -29t109.5 29zM307 901h208l99 -142h-155l-48 65l-46 -65h-157z" />
    <glyph glyph-name="Otilde" unicode="&#xd5;" horiz-adv-x="824" 
d="M226.5 35.5q-85.5 48.5 -136 131.5t-50.5 183t50.5 183t136 131.5t185.5 48.5t185.5 -48.5t136 -131.5t50.5 -183t-50.5 -183t-136 -131.5t-185.5 -48.5t-185.5 48.5zM521.5 158q50.5 29 80.5 79.5t30 112.5t-30 112.5t-80.5 79.5t-109.5 29t-109.5 -29t-80.5 -79.5
t-30 -112.5t30 -112.5t80.5 -79.5t109.5 -29t109.5 29zM439 756q-19 7 -39 19q-27 16 -41 16q-31 0 -37 -42h-104q7 76 41 114t81 38q23 0 41 -7t40 -19q15 -9 24 -13t18 -4q31 0 36 43h106q-6 -77 -40 -114.5t-82 -37.5q-25 0 -44 7z" />
    <glyph glyph-name="Odieresis" unicode="&#xd6;" horiz-adv-x="824" 
d="M226.5 35.5q-85.5 48.5 -136 131.5t-50.5 183t50.5 183t136 131.5t185.5 48.5t185.5 -48.5t136 -131.5t50.5 -183t-50.5 -183t-136 -131.5t-185.5 -48.5t-185.5 48.5zM521.5 158q50.5 29 80.5 79.5t30 112.5t-30 112.5t-80.5 79.5t-109.5 29t-109.5 -29t-80.5 -79.5
t-30 -112.5t30 -112.5t80.5 -79.5t109.5 -29t109.5 29zM214.5 772q-26.5 26 -26.5 61q0 36 26.5 61.5t62.5 25.5t62.5 -25.5t26.5 -61.5q0 -35 -26.5 -61t-62.5 -26t-62.5 26zM483.5 772q-26.5 26 -26.5 61q0 36 26.5 61.5t62.5 25.5t62.5 -25.5t26.5 -61.5q0 -35 -26.5 -61
t-62.5 -26t-62.5 26z" />
    <glyph glyph-name="multiply" unicode="&#xd7;" horiz-adv-x="652" 
d="M579 489l-160 -160l159 -159l-94 -93l-158 159l-159 -159l-93 93l159 159l-160 160l93 93l160 -160l159 160z" />
    <glyph glyph-name="Oslash" unicode="&#xd8;" horiz-adv-x="824" 
d="M759 481.5q25 -62.5 25 -131.5q0 -100 -50.5 -183t-136 -131.5t-185.5 -48.5q-95 0 -178 44l-53 -65l-97 77l52 64q-46 49 -71 111.5t-25 131.5q0 100 50.5 183t136 131.5t185.5 48.5q95 0 178 -44l53 65l97 -77l-52 -64q46 -49 71 -111.5zM231 224l266 330
q-40 17 -85 17q-59 0 -109.5 -29t-80.5 -79.5t-30 -112.5q0 -71 39 -126zM521.5 158q50.5 29 80.5 79.5t30 112.5q0 71 -39 126l-266 -330q40 -17 85 -17q59 0 109.5 29z" />
    <glyph glyph-name="Ugrave" unicode="&#xd9;" horiz-adv-x="742" 
d="M209 27q-69 40 -105.5 108t-36.5 152v412h150v-411q0 -68 41.5 -113.5t112.5 -45.5q72 0 113 45t41 114v411h150v-412q0 -84 -36.5 -152t-105.5 -108t-162 -40t-162 40zM299 759l-88 142h161l79 -142h-152z" />
    <glyph glyph-name="Uacute" unicode="&#xda;" horiz-adv-x="742" 
d="M209 27q-69 40 -105.5 108t-36.5 152v412h150v-411q0 -68 41.5 -113.5t112.5 -45.5q72 0 113 45t41 114v411h150v-412q0 -84 -36.5 -152t-105.5 -108t-162 -40t-162 40zM370 901h161l-87 -142h-153z" />
    <glyph glyph-name="Ucircumflex" unicode="&#xdb;" horiz-adv-x="742" 
d="M209 27q-69 40 -105.5 108t-36.5 152v412h150v-411q0 -68 41.5 -113.5t112.5 -45.5q72 0 113 45t41 114v411h150v-412q0 -84 -36.5 -152t-105.5 -108t-162 -40t-162 40zM266 901h208l99 -142h-155l-48 65l-46 -65h-157z" />
    <glyph glyph-name="Udieresis" unicode="&#xdc;" horiz-adv-x="742" 
d="M209 27q-69 40 -105.5 108t-36.5 152v412h150v-411q0 -68 41.5 -113.5t112.5 -45.5q72 0 113 45t41 114v411h150v-412q0 -84 -36.5 -152t-105.5 -108t-162 -40t-162 40zM173.5 772q-26.5 26 -26.5 61q0 36 26.5 61.5t62.5 25.5t62.5 -25.5t26.5 -61.5q0 -35 -26.5 -61
t-62.5 -26t-62.5 26zM442.5 772q-26.5 26 -26.5 61q0 36 26.5 61.5t62.5 25.5t62.5 -25.5t26.5 -61.5q0 -35 -26.5 -61t-62.5 -26t-62.5 26z" />
    <glyph glyph-name="Yacute" unicode="&#xdd;" horiz-adv-x="652" 
d="M543.5 473.5q-62.5 -108.5 -142.5 -199.5v-274h-150v276q-80 90 -143 198.5t-94 224.5h163q23 -74 62.5 -151t87.5 -133q49 55 88.5 132.5t62.5 151.5h160q-32 -117 -94.5 -225.5zM325 901h161l-87 -142h-153z" />
    <glyph glyph-name="Thorn" unicode="&#xde;" horiz-adv-x="640" 
d="M484 555.5q60 -31.5 93 -86t33 -122.5q0 -71 -35.5 -127.5t-96.5 -88t-136 -31.5q-69 0 -122 15v-115h-150v699h150v-112h128q76 0 136 -31.5zM423.5 269q34.5 31 34.5 78q0 45 -33.5 72.5t-88.5 27.5h-116v-192q50 -17 104 -17q65 0 99.5 31z" />
    <glyph glyph-name="germandbls" unicode="&#xdf;" horiz-adv-x="650" 
d="M576.5 313.5q39.5 -47.5 39.5 -114.5q0 -65 -30 -111t-82 -69.5t-118 -23.5q-36 0 -70.5 4.5t-56.5 13.5l28 121q50 -9 82 -9q51 0 76 20.5t25 57.5q0 40 -40.5 67t-100.5 33l-18 2v129l9 1q43 5 66 26.5t23 53.5q0 31 -25.5 50.5t-71.5 19.5q-51 0 -76.5 -30t-25.5 -82
v-473h-144v477q0 71 29.5 124.5t85.5 83t133 29.5q69 0 124 -22.5t86 -64t31 -96.5q0 -47 -22.5 -83t-62.5 -60q67 -27 106.5 -74.5z" />
    <glyph glyph-name="agrave" unicode="&#xe0;" horiz-adv-x="638" 
d="M571 487v-487h-142v49q-57 -62 -147 -62q-68 0 -124.5 32.5t-89 91t-32.5 132.5t32.5 133t89 91.5t124.5 32.5q90 0 147 -62v49h142zM396 150q36 37 36 93q0 55 -36 93t-89 38t-89 -37.5t-36 -93.5t36 -93t89 -37t89 37zM246 557l-88 142h161l79 -142h-152z" />
    <glyph glyph-name="aacute" unicode="&#xe1;" horiz-adv-x="638" 
d="M571 487v-487h-142v49q-57 -62 -147 -62q-68 0 -124.5 32.5t-89 91t-32.5 132.5t32.5 133t89 91.5t124.5 32.5q90 0 147 -62v49h142zM396 150q36 37 36 93q0 55 -36 93t-89 38t-89 -37.5t-36 -93.5t36 -93t89 -37t89 37zM317 699h161l-87 -142h-153z" />
    <glyph glyph-name="acircumflex" unicode="&#xe2;" horiz-adv-x="638" 
d="M571 487v-487h-142v49q-57 -62 -147 -62q-68 0 -124.5 32.5t-89 91t-32.5 132.5t32.5 133t89 91.5t124.5 32.5q90 0 147 -62v49h142zM396 150q36 37 36 93q0 55 -36 93t-89 38t-89 -37.5t-36 -93.5t36 -93t89 -37t89 37zM213 699h208l99 -142h-155l-48 65l-46 -65h-157z
" />
    <glyph glyph-name="atilde" unicode="&#xe3;" horiz-adv-x="638" 
d="M571 487v-487h-142v49q-57 -62 -147 -62q-68 0 -124.5 32.5t-89 91t-32.5 132.5t32.5 133t89 91.5t124.5 32.5q90 0 147 -62v49h142zM396 150q36 37 36 93q0 55 -36 93t-89 38t-89 -37.5t-36 -93.5t36 -93t89 -37t89 37zM345 554q-19 7 -39 19q-27 16 -41 16
q-31 0 -37 -42h-104q7 76 41 114t81 38q23 0 41 -7t40 -19q15 -9 24 -13t18 -4q31 0 36 43h106q-6 -77 -40 -114.5t-82 -37.5q-25 0 -44 7z" />
    <glyph glyph-name="adieresis" unicode="&#xe4;" horiz-adv-x="638" 
d="M571 487v-487h-142v49q-57 -62 -147 -62q-68 0 -124.5 32.5t-89 91t-32.5 132.5t32.5 133t89 91.5t124.5 32.5q90 0 147 -62v49h142zM396 150q36 37 36 93q0 55 -36 93t-89 38t-89 -37.5t-36 -93.5t36 -93t89 -37t89 37zM138 571.5q-26 25.5 -26 60.5q0 36 26 61t62 25
t62 -25t26 -61q0 -35 -26 -60.5t-62 -25.5t-62 25.5zM373 571.5q-26 25.5 -26 60.5q0 36 26 61t62 25t62 -25t26 -61q0 -35 -26 -60.5t-62 -25.5t-62 25.5z" />
    <glyph glyph-name="aring" unicode="&#xe5;" horiz-adv-x="638" 
d="M247 551.5q-32 17.5 -51 47.5t-19 67q0 36 19 66t51 47.5t71 17.5t71 -17.5t51 -47.5t19 -66q0 -37 -19 -67t-51 -47.5t-71 -17.5t-71 17.5zM278.5 703.5q-16.5 -15.5 -16.5 -37.5t16.5 -37.5t39.5 -15.5t39.5 15.5t16.5 37.5t-16.5 37.5t-39.5 15.5t-39.5 -15.5z
M571 487v-487h-142v49q-57 -62 -147 -62q-68 0 -124.5 32.5t-89 91t-32.5 132.5t32.5 133t89 91.5t124.5 32.5q90 0 147 -62v49h142zM396 150q36 37 36 93q0 55 -36 93t-89 38t-89 -37.5t-36 -93.5t36 -93t89 -37t89 37z" />
    <glyph glyph-name="ae" unicode="&#xe6;" horiz-adv-x="975" 
d="M830 466.5q54 -33.5 83.5 -93t26.5 -134.5l-348 -71q37 -54 116 -54q78 0 145 50l76 -107q-78 -71 -191 -71q-110 0 -176 64v-50h-133v49q-57 -62 -147 -62q-68 0 -124.5 32.5t-89 91t-32.5 132.5t32.5 133t89 91.5t124.5 32.5q90 0 147 -62v49h133v-48q58 61 146 61
q68 0 122 -33.5zM613.5 349.5q-31.5 -29.5 -39.5 -75.5l218 45q-15 28 -40.5 44t-60.5 16q-46 0 -77.5 -29.5zM396 150q36 37 36 93q0 55 -36 93t-89 38t-89 -37.5t-36 -93.5t36 -93t89 -37t89 37z" />
    <glyph glyph-name="ccedilla" unicode="&#xe7;" horiz-adv-x="553" 
d="M452 24q-49 -29 -112 -36q73 -37 73 -105q0 -51 -39 -82t-97 -31q-38 0 -73.5 12.5t-57.5 31.5l42 73q38 -30 83 -30q43 0 43 30q0 16 -22 28.5t-67 19.5l31 55q-64 10 -114 45.5t-78 89.5t-28 118q0 72 35 131t96.5 92.5t136.5 33.5q74 0 133 -29.5t95 -81.5l-112 -76
q-47 58 -116 58q-51 0 -86.5 -37t-35.5 -91t35.5 -91t86.5 -37q73 0 120 63l109 -79q-32 -46 -81 -75z" />
    <glyph glyph-name="egrave" unicode="&#xe8;" 
d="M430 465.5q60 -34.5 92 -95.5t27 -137l-353 -65q37 -54 119 -54q76 0 144 51l75 -103q-51 -42 -105.5 -59t-114.5 -17q-80 0 -143.5 33t-99 91.5t-35.5 131.5q0 71 34 130t93.5 93.5t132.5 34.5q74 0 134 -34.5zM217.5 351.5q-31.5 -27.5 -40.5 -73.5l222 41
q-15 28 -42 44t-62 16q-46 0 -77.5 -27.5zM230 557l-88 142h161l79 -142h-152z" />
    <glyph glyph-name="eacute" unicode="&#xe9;" 
d="M430 465.5q60 -34.5 92 -95.5t27 -137l-353 -65q37 -54 119 -54q76 0 144 51l75 -103q-51 -42 -105.5 -59t-114.5 -17q-80 0 -143.5 33t-99 91.5t-35.5 131.5q0 71 34 130t93.5 93.5t132.5 34.5q74 0 134 -34.5zM217.5 351.5q-31.5 -27.5 -40.5 -73.5l222 41
q-15 28 -42 44t-62 16q-46 0 -77.5 -27.5zM301 699h161l-87 -142h-153z" />
    <glyph glyph-name="ecircumflex" unicode="&#xea;" 
d="M430 465.5q60 -34.5 92 -95.5t27 -137l-353 -65q37 -54 119 -54q76 0 144 51l75 -103q-51 -42 -105.5 -59t-114.5 -17q-80 0 -143.5 33t-99 91.5t-35.5 131.5q0 71 34 130t93.5 93.5t132.5 34.5q74 0 134 -34.5zM217.5 351.5q-31.5 -27.5 -40.5 -73.5l222 41
q-15 28 -42 44t-62 16q-46 0 -77.5 -27.5zM197 699h208l99 -142h-155l-48 65l-46 -65h-157z" />
    <glyph glyph-name="edieresis" unicode="&#xeb;" 
d="M430 465.5q60 -34.5 92 -95.5t27 -137l-353 -65q37 -54 119 -54q76 0 144 51l75 -103q-51 -42 -105.5 -59t-114.5 -17q-80 0 -143.5 33t-99 91.5t-35.5 131.5q0 71 34 130t93.5 93.5t132.5 34.5q74 0 134 -34.5zM217.5 351.5q-31.5 -27.5 -40.5 -73.5l222 41
q-15 28 -42 44t-62 16q-46 0 -77.5 -27.5zM122 571.5q-26 25.5 -26 60.5q0 36 26 61t62 25t62 -25t26 -61q0 -35 -26 -60.5t-62 -25.5t-62 25.5zM357 571.5q-26 25.5 -26 60.5q0 36 26 61t62 25t62 -25t26 -61q0 -35 -26 -60.5t-62 -25.5t-62 25.5z" />
    <glyph glyph-name="igrave" unicode="&#xec;" horiz-adv-x="278" 
d="M67 487h144v-487h-144v487zM67 557l-88 142h161l79 -142h-152z" />
    <glyph glyph-name="iacute" unicode="&#xed;" horiz-adv-x="278" 
d="M67 487h144v-487h-144v487zM138 699h161l-87 -142h-153z" />
    <glyph glyph-name="icircumflex" unicode="&#xee;" horiz-adv-x="278" 
d="M67 487h144v-487h-144v487zM34 699h208l99 -142h-155l-48 65l-46 -65h-157z" />
    <glyph glyph-name="idieresis" unicode="&#xef;" horiz-adv-x="278" 
d="M67 487h144v-487h-144v487zM-41 571.5q-26 25.5 -26 60.5q0 36 26 61t62 25t62 -25t26 -61q0 -35 -26 -60.5t-62 -25.5t-62 25.5zM194 571.5q-26 25.5 -26 60.5q0 36 26 61t62 25t62 -25t26 -61q0 -35 -26 -60.5t-62 -25.5t-62 25.5z" />
    <glyph glyph-name="eth" unicode="&#xf0;" horiz-adv-x="610" 
d="M531.5 438q32.5 -85 32.5 -167q0 -91 -36 -155.5t-96.5 -98t-132.5 -33.5q-70 0 -130.5 31t-96.5 89t-36 135q0 74 34.5 127.5t89.5 81t116 27.5q52 0 92 -20q-23 45 -51 85l-112 -49l-37 76l94 41q-50 53 -98 91h190q24 -22 36 -35l80 35l37 -76l-61 -27
q53 -73 85.5 -158zM385.5 151q33.5 34 33.5 86t-33 86t-87 34q-53 0 -85 -34t-32 -87q0 -52 32 -85.5t85 -33.5t86.5 34z" />
    <glyph glyph-name="ntilde" unicode="&#xf1;" horiz-adv-x="610" 
d="M500.5 447.5q49.5 -52.5 49.5 -138.5v-309h-144v281q0 42 -26 66t-65 24q-44 0 -74 -30.5t-30 -79.5v-261h-144v487h142v-50q59 63 157 63q85 0 134.5 -52.5zM335 554q-19 7 -39 19q-27 16 -41 16q-31 0 -37 -42h-104q7 76 41 114t81 38q23 0 41 -7t40 -19q15 -9 24 -13
t18 -4q31 0 36 43h106q-6 -77 -40 -114.5t-82 -37.5q-25 0 -44 7z" />
    <glyph glyph-name="ograve" unicode="&#xf2;" horiz-adv-x="610" 
d="M168.5 20.5q-61.5 33.5 -97 92t-35.5 130.5t35.5 131t97 92.5t136.5 33.5t136.5 -33.5t97 -92.5t35.5 -131t-35.5 -130.5t-97 -92t-136.5 -33.5t-136.5 33.5zM392.5 152q35.5 36 35.5 91t-35.5 91.5t-87.5 36.5t-87.5 -36.5t-35.5 -91.5t35.5 -91t87.5 -36t87.5 36z
M234 557l-88 142h161l79 -142h-152z" />
    <glyph glyph-name="oacute" unicode="&#xf3;" horiz-adv-x="610" 
d="M168.5 20.5q-61.5 33.5 -97 92t-35.5 130.5t35.5 131t97 92.5t136.5 33.5t136.5 -33.5t97 -92.5t35.5 -131t-35.5 -130.5t-97 -92t-136.5 -33.5t-136.5 33.5zM392.5 152q35.5 36 35.5 91t-35.5 91.5t-87.5 36.5t-87.5 -36.5t-35.5 -91.5t35.5 -91t87.5 -36t87.5 36z
M305 699h161l-87 -142h-153z" />
    <glyph glyph-name="ocircumflex" unicode="&#xf4;" horiz-adv-x="610" 
d="M168.5 20.5q-61.5 33.5 -97 92t-35.5 130.5t35.5 131t97 92.5t136.5 33.5t136.5 -33.5t97 -92.5t35.5 -131t-35.5 -130.5t-97 -92t-136.5 -33.5t-136.5 33.5zM392.5 152q35.5 36 35.5 91t-35.5 91.5t-87.5 36.5t-87.5 -36.5t-35.5 -91.5t35.5 -91t87.5 -36t87.5 36z
M201 699h208l99 -142h-155l-48 65l-46 -65h-157z" />
    <glyph glyph-name="otilde" unicode="&#xf5;" horiz-adv-x="610" 
d="M168.5 20.5q-61.5 33.5 -97 92t-35.5 130.5t35.5 131t97 92.5t136.5 33.5t136.5 -33.5t97 -92.5t35.5 -131t-35.5 -130.5t-97 -92t-136.5 -33.5t-136.5 33.5zM392.5 152q35.5 36 35.5 91t-35.5 91.5t-87.5 36.5t-87.5 -36.5t-35.5 -91.5t35.5 -91t87.5 -36t87.5 36z
M333 554q-19 7 -39 19q-27 16 -41 16q-31 0 -37 -42h-104q7 76 41 114t81 38q23 0 41 -7t40 -19q15 -9 24 -13t18 -4q31 0 36 43h106q-6 -77 -40 -114.5t-82 -37.5q-25 0 -44 7z" />
    <glyph glyph-name="odieresis" unicode="&#xf6;" horiz-adv-x="610" 
d="M168.5 20.5q-61.5 33.5 -97 92t-35.5 130.5t35.5 131t97 92.5t136.5 33.5t136.5 -33.5t97 -92.5t35.5 -131t-35.5 -130.5t-97 -92t-136.5 -33.5t-136.5 33.5zM392.5 152q35.5 36 35.5 91t-35.5 91.5t-87.5 36.5t-87.5 -36.5t-35.5 -91.5t35.5 -91t87.5 -36t87.5 36z
M126 571.5q-26 25.5 -26 60.5q0 36 26 61t62 25t62 -25t26 -61q0 -35 -26 -60.5t-62 -25.5t-62 25.5zM361 571.5q-26 25.5 -26 60.5q0 36 26 61t62 25t62 -25t26 -61q0 -35 -26 -60.5t-62 -25.5t-62 25.5z" />
    <glyph glyph-name="divide" unicode="&#xf7;" horiz-adv-x="652" 
d="M254 457q-29 29 -29 70t29 70t71 29t71 -29t29 -70t-29 -70t-71 -29t-71 29zM586 260h-520v139h520v-139zM254 63q-29 29 -29 70t29 70t71 29t71 -29t29 -70t-29 -70t-71 -29t-71 29z" />
    <glyph glyph-name="oslash" unicode="&#xf8;" horiz-adv-x="610" 
d="M557.5 335.5q16.5 -43.5 16.5 -92.5q0 -72 -35.5 -130.5t-97 -92t-136.5 -33.5q-67 0 -122 26l-46 -56l-80 64l43 53q-31 34 -47.5 77t-16.5 92q0 72 35.5 131t97 92.5t136.5 33.5q67 0 122 -26l48 58l80 -64l-45 -55q31 -34 47.5 -77.5zM193 188l146 178q-18 5 -34 5
q-52 0 -87.5 -36.5t-35.5 -91.5q0 -30 11 -55zM392.5 152q35.5 36 35.5 91q0 31 -12 56l-145 -178q18 -5 34 -5q52 0 87.5 36z" />
    <glyph glyph-name="ugrave" unicode="&#xf9;" horiz-adv-x="592" 
d="M173 14.5q-54 27.5 -83.5 78t-29.5 115.5v279h144v-271q0 -43 25.5 -71.5t66.5 -28.5t66.5 28.5t25.5 71.5v271h144v-279q0 -65 -29.5 -115.5t-83.5 -78t-123 -27.5t-123 27.5zM224 557l-88 142h161l79 -142h-152z" />
    <glyph glyph-name="uacute" unicode="&#xfa;" horiz-adv-x="592" 
d="M173 14.5q-54 27.5 -83.5 78t-29.5 115.5v279h144v-271q0 -43 25.5 -71.5t66.5 -28.5t66.5 28.5t25.5 71.5v271h144v-279q0 -65 -29.5 -115.5t-83.5 -78t-123 -27.5t-123 27.5zM295 699h161l-87 -142h-153z" />
    <glyph glyph-name="ucircumflex" unicode="&#xfb;" horiz-adv-x="592" 
d="M173 14.5q-54 27.5 -83.5 78t-29.5 115.5v279h144v-271q0 -43 25.5 -71.5t66.5 -28.5t66.5 28.5t25.5 71.5v271h144v-279q0 -65 -29.5 -115.5t-83.5 -78t-123 -27.5t-123 27.5zM191 699h208l99 -142h-155l-48 65l-46 -65h-157z" />
    <glyph glyph-name="udieresis" unicode="&#xfc;" horiz-adv-x="592" 
d="M173 14.5q-54 27.5 -83.5 78t-29.5 115.5v279h144v-271q0 -43 25.5 -71.5t66.5 -28.5t66.5 28.5t25.5 71.5v271h144v-279q0 -65 -29.5 -115.5t-83.5 -78t-123 -27.5t-123 27.5zM116 571.5q-26 25.5 -26 60.5q0 36 26 61t62 25t62 -25t26 -61q0 -35 -26 -60.5t-62 -25.5
t-62 25.5zM351 571.5q-26 25.5 -26 60.5q0 36 26 61t62 25t62 -25t26 -61q0 -35 -26 -60.5t-62 -25.5t-62 25.5z" />
    <glyph glyph-name="yacute" unicode="&#xfd;" horiz-adv-x="602" 
d="M577 487q-47 -187 -144 -381.5t-214 -326.5l-116 73q69 81 120 160l-207 475h160l134 -319q68 141 113 319h154zM294 699h161l-87 -142h-153z" />
    <glyph glyph-name="thorn" unicode="&#xfe;" horiz-adv-x="639" 
d="M481.5 467.5q56.5 -32.5 89 -91.5t32.5 -133t-32.5 -132.5t-89 -91t-124.5 -32.5q-90 0 -146 61v-248h-144v899h144v-260q58 61 146 61q68 0 124.5 -32.5zM421 150q36 37 36 93t-36 93.5t-89 37.5t-89 -38t-36 -93q0 -56 36 -93t89 -37t89 37z" />
    <glyph glyph-name="ydieresis" unicode="&#xff;" horiz-adv-x="602" 
d="M577 487q-47 -187 -144 -381.5t-214 -326.5l-116 73q69 81 120 160l-207 475h160l134 -319q68 141 113 319h154zM115 571.5q-26 25.5 -26 60.5q0 36 26 61t62 25t62 -25t26 -61q0 -35 -26 -60.5t-62 -25.5t-62 25.5zM350 571.5q-26 25.5 -26 60.5q0 36 26 61t62 25
t62 -25t26 -61q0 -35 -26 -60.5t-62 -25.5t-62 25.5z" />
    <glyph glyph-name="Amacron" unicode="&#x100;" horiz-adv-x="731" 
d="M563 0l-46 121q-70 -26 -153 -26q-87 0 -157 27l-46 -122h-153l275 699h165l275 -699h-160zM467 252l-106 277l-104 -276q46 -17 107 -17q57 0 103 16zM210 881h314v-119h-314v119z" />
    <glyph glyph-name="amacron" unicode="&#x101;" horiz-adv-x="638" 
d="M571 487v-487h-142v49q-57 -62 -147 -62q-68 0 -124.5 32.5t-89 91t-32.5 132.5t32.5 133t89 91.5t124.5 32.5q90 0 147 -62v49h142zM396 150q36 37 36 93q0 55 -36 93t-89 38t-89 -37.5t-36 -93.5t36 -93t89 -37t89 37zM161 679h314v-119h-314v119z" />
    <glyph glyph-name="Abreve" unicode="&#x102;" horiz-adv-x="731" 
d="M563 0l-46 121q-70 -26 -153 -26q-87 0 -157 27l-46 -122h-153l275 699h165l275 -699h-160zM467 252l-106 277l-104 -276q46 -17 107 -17q57 0 103 16zM240.5 789q-50.5 42 -51.5 112h116q2 -21 17.5 -35.5t44.5 -14.5t44 14.5t17 35.5h116q-1 -70 -51.5 -112t-125.5 -42
q-76 0 -126.5 42z" />
    <glyph glyph-name="abreve" unicode="&#x103;" horiz-adv-x="638" 
d="M571 487v-487h-142v49q-57 -62 -147 -62q-68 0 -124.5 32.5t-89 91t-32.5 132.5t32.5 133t89 91.5t124.5 32.5q90 0 147 -62v49h142zM396 150q36 37 36 93q0 55 -36 93t-89 38t-89 -37.5t-36 -93.5t36 -93t89 -37t89 37zM191.5 587q-50.5 42 -51.5 112h116
q2 -21 17.5 -35.5t44.5 -14.5t44 14.5t17 35.5h116q-1 -70 -51.5 -112t-125.5 -42q-76 0 -126.5 42z" />
    <glyph glyph-name="Aogonek" unicode="&#x104;" horiz-adv-x="731" 
d="M754 -209q-13 -7 -35.5 -11t-42.5 -4q-77 0 -112 32t-35 82q0 34 16 62t43 48h-25l-46 121q-70 -26 -153 -26q-87 0 -157 27l-46 -122h-153l275 699h165l275 -699q-35 -12 -56.5 -31.5t-21.5 -44.5q0 -19 15 -29.5t41 -10.5q19 0 31 4zM467 252l-106 277l-104 -276
q46 -17 107 -17q57 0 103 16z" />
    <glyph glyph-name="aogonek" unicode="&#x105;" horiz-adv-x="638" 
d="M601 -209q-13 -7 -35.5 -11t-42.5 -4q-77 0 -112 32t-35 82q0 34 16 62t43 48h-6v49q-57 -62 -147 -62q-68 0 -124.5 32.5t-89 91t-32.5 132.5t32.5 133t89 91.5t124.5 32.5q90 0 147 -62v49h142v-487h-1q-35 -12 -56.5 -31.5t-21.5 -44.5q0 -19 15 -29.5t41 -10.5
q19 0 31 4zM396 150q36 37 36 93q0 55 -36 93t-89 38t-89 -37.5t-36 -93.5t36 -93t89 -37t89 37z" />
    <glyph glyph-name="Cacute" unicode="&#x106;" horiz-adv-x="749" 
d="M226.5 35.5q-85.5 48.5 -136 131.5t-50.5 183t50.5 183t136 131.5t185.5 48.5q99 0 181.5 -43t133.5 -119l-126 -77q-34 45 -83.5 71t-105.5 26q-59 0 -109.5 -29t-80.5 -79.5t-30 -112.5t30 -112.5t80.5 -79.5t109.5 -29q58 0 108 27t84 74l124 -80q-51 -76 -134 -119.5
t-182 -43.5q-100 0 -185.5 48.5zM416 901h161l-87 -142h-153z" />
    <glyph glyph-name="cacute" unicode="&#x107;" horiz-adv-x="553" 
d="M167.5 19.5q-61.5 33.5 -96.5 92.5t-35 131t35 131t96.5 92.5t136.5 33.5q74 0 133 -29.5t95 -81.5l-112 -76q-47 58 -116 58q-51 0 -86.5 -37t-35.5 -91t35.5 -91t86.5 -37q73 0 120 63l109 -79q-37 -53 -95 -83t-134 -30q-75 0 -136.5 33.5zM304 699h161l-87 -142h-153
z" />
    <glyph glyph-name="Cdotaccent" unicode="&#x10a;" horiz-adv-x="749" 
d="M226.5 35.5q-85.5 48.5 -136 131.5t-50.5 183t50.5 183t136 131.5t185.5 48.5q99 0 181.5 -43t133.5 -119l-126 -77q-34 45 -83.5 71t-105.5 26q-59 0 -109.5 -29t-80.5 -79.5t-30 -112.5t30 -112.5t80.5 -79.5t109.5 -29q58 0 108 27t84 74l124 -80q-51 -76 -134 -119.5
t-182 -43.5q-100 0 -185.5 48.5zM353 770.5q-27 26.5 -27 63.5t26.5 63.5t64.5 26.5t64.5 -26.5t26.5 -63.5t-27 -63.5t-64 -26.5t-64 26.5z" />
    <glyph glyph-name="cdotaccent" unicode="&#x10b;" horiz-adv-x="553" 
d="M167.5 19.5q-61.5 33.5 -96.5 92.5t-35 131t35 131t96.5 92.5t136.5 33.5q74 0 133 -29.5t95 -81.5l-112 -76q-47 58 -116 58q-51 0 -86.5 -37t-35.5 -91t35.5 -91t86.5 -37q73 0 120 63l109 -79q-37 -53 -95 -83t-134 -30q-75 0 -136.5 33.5zM241 568.5
q-27 26.5 -27 63.5t26.5 63.5t64.5 26.5t64.5 -26.5t26.5 -63.5t-27 -63.5t-64 -26.5t-64 26.5z" />
    <glyph glyph-name="Ccaron" unicode="&#x10c;" horiz-adv-x="749" 
d="M226.5 35.5q-85.5 48.5 -136 131.5t-50.5 183t50.5 183t136 131.5t185.5 48.5q99 0 181.5 -43t133.5 -119l-126 -77q-34 45 -83.5 71t-105.5 26q-59 0 -109.5 -29t-80.5 -79.5t-30 -112.5t30 -112.5t80.5 -79.5t109.5 -29q58 0 108 27t84 74l124 -80q-51 -76 -134 -119.5
t-182 -43.5q-100 0 -185.5 48.5zM214 901h156l46 -64l48 64h155l-99 -142h-208z" />
    <glyph glyph-name="ccaron" unicode="&#x10d;" horiz-adv-x="553" 
d="M167.5 19.5q-61.5 33.5 -96.5 92.5t-35 131t35 131t96.5 92.5t136.5 33.5q74 0 133 -29.5t95 -81.5l-112 -76q-47 58 -116 58q-51 0 -86.5 -37t-35.5 -91t35.5 -91t86.5 -37q73 0 120 63l109 -79q-37 -53 -95 -83t-134 -30q-75 0 -136.5 33.5zM102 699h156l46 -64l48 64
h155l-99 -142h-208z" />
    <glyph glyph-name="Dcaron" unicode="&#x10e;" horiz-adv-x="742" 
d="M521 654.5q85 -44.5 133 -124.5t48 -181t-48 -180.5t-133 -124t-192 -44.5h-259v699h259q107 0 192 -44.5zM445 168q50 26 77.5 73t27.5 108q0 62 -27.5 109t-77.5 73t-116 26h-109v-415h109q66 0 116 26zM139 901h156l46 -64l48 64h155l-99 -142h-208z" />
    <glyph glyph-name="dcaron" unicode="&#x10f;" horiz-adv-x="753" 
d="M571 699v-699h-142v49q-57 -62 -147 -62q-68 0 -124.5 32.5t-89 91t-32.5 132.5t32.5 133t89 91.5t124.5 32.5q88 0 145 -60v259h144zM396 150q36 37 36 93q0 55 -36 93t-89 38t-89 -37.5t-36 -93.5t36 -93t89 -37t89 37zM641 699h125l-36 -186h-120z" />
    <glyph glyph-name="Dcroat" unicode="&#x110;" horiz-adv-x="762" 
d="M541 654.5q85 -44.5 133 -124.5t48 -181t-48 -180.5t-133 -124t-192 -44.5h-259v282h-60v136h60v281h259q107 0 192 -44.5zM465 168q50 26 77.5 73t27.5 108q0 62 -27.5 109t-77.5 73t-116 26h-109v-139h157v-136h-157v-140h109q66 0 116 26z" />
    <glyph glyph-name="dcroat" unicode="&#x111;" horiz-adv-x="658" 
d="M655 516h-84v-516h-142v46q-57 -59 -147 -59q-68 0 -124.5 31t-89 87.5t-32.5 127.5t32.5 127.5t89 88t124.5 31.5q89 0 145 -58v94h-128v117h128v66h144v-66h84v-117zM396 147.5q36 34.5 36 85.5t-36 86t-89 35t-89 -35t-36 -86q0 -52 36 -86t89 -34t89 34.5z" />
    <glyph glyph-name="Emacron" unicode="&#x112;" horiz-adv-x="650" 
d="M616 44q-51 -27 -127.5 -42.5t-155.5 -15.5q-120 0 -193.5 49.5t-73.5 164.5v499h522v-140h-372v-124h318v-140h-318v-57q0 -59 36 -82.5t103 -23.5q63 0 122 13t101 34zM174 881h314v-119h-314v119z" />
    <glyph glyph-name="emacron" unicode="&#x113;" 
d="M430 465.5q60 -34.5 92 -95.5t27 -137l-353 -65q37 -54 119 -54q76 0 144 51l75 -103q-51 -42 -105.5 -59t-114.5 -17q-80 0 -143.5 33t-99 91.5t-35.5 131.5q0 71 34 130t93.5 93.5t132.5 34.5q74 0 134 -34.5zM217.5 351.5q-31.5 -27.5 -40.5 -73.5l222 41
q-15 28 -42 44t-62 16q-46 0 -77.5 -27.5zM145 679h314v-119h-314v119z" />
    <glyph glyph-name="Edotaccent" unicode="&#x116;" horiz-adv-x="650" 
d="M616 44q-51 -27 -127.5 -42.5t-155.5 -15.5q-120 0 -193.5 49.5t-73.5 164.5v499h522v-140h-372v-124h318v-140h-318v-57q0 -59 36 -82.5t103 -23.5q63 0 122 13t101 34zM267 770.5q-27 26.5 -27 63.5t26.5 63.5t64.5 26.5t64.5 -26.5t26.5 -63.5t-27 -63.5t-64 -26.5
t-64 26.5z" />
    <glyph glyph-name="edotaccent" unicode="&#x117;" 
d="M430 465.5q60 -34.5 92 -95.5t27 -137l-353 -65q37 -54 119 -54q76 0 144 51l75 -103q-51 -42 -105.5 -59t-114.5 -17q-80 0 -143.5 33t-99 91.5t-35.5 131.5q0 71 34 130t93.5 93.5t132.5 34.5q74 0 134 -34.5zM217.5 351.5q-31.5 -27.5 -40.5 -73.5l222 41
q-15 28 -42 44t-62 16q-46 0 -77.5 -27.5zM238 568.5q-27 26.5 -27 63.5t26.5 63.5t64.5 26.5t64.5 -26.5t26.5 -63.5t-27 -63.5t-64 -26.5t-64 26.5z" />
    <glyph glyph-name="Eogonek" unicode="&#x118;" horiz-adv-x="650" 
d="M632 -210q-13 -7 -35.5 -11t-41.5 -4q-78 0 -114 34.5t-36 87.5q0 51 38 97q-58 -8 -110 -8q-120 0 -193.5 49.5t-73.5 164.5v499h522v-140h-372v-124h318v-140h-318v-57q0 -59 36 -82.5t103 -23.5q63 0 122 13t101 34l38 -135q-47 -29 -70.5 -54.5t-23.5 -55.5
q0 -25 15 -38t42 -13q19 0 31 4z" />
    <glyph glyph-name="eogonek" unicode="&#x119;" 
d="M430 465.5q60 -34.5 92 -95.5t27 -137l-353 -65q37 -54 119 -54q76 0 144 51l75 -103q-27 -22 -51 -35q-33 -23 -49.5 -45t-16.5 -47t15 -38t42 -13q19 0 31 4l22 -97q-13 -7 -35.5 -11t-41.5 -4q-78 0 -114 34.5t-36 87.5q0 46 31 88h-17q-80 0 -143.5 33t-99 91.5
t-35.5 131.5q0 71 34 130t93.5 93.5t132.5 34.5q74 0 134 -34.5zM217.5 351.5q-31.5 -27.5 -40.5 -73.5l222 41q-15 28 -42 44t-62 16q-46 0 -77.5 -27.5z" />
    <glyph glyph-name="Ecaron" unicode="&#x11a;" horiz-adv-x="650" 
d="M616 44q-51 -27 -127.5 -42.5t-155.5 -15.5q-120 0 -193.5 49.5t-73.5 164.5v499h522v-140h-372v-124h318v-140h-318v-57q0 -59 36 -82.5t103 -23.5q63 0 122 13t101 34zM128 901h156l46 -64l48 64h155l-99 -142h-208z" />
    <glyph glyph-name="ecaron" unicode="&#x11b;" 
d="M430 465.5q60 -34.5 92 -95.5t27 -137l-353 -65q37 -54 119 -54q76 0 144 51l75 -103q-51 -42 -105.5 -59t-114.5 -17q-80 0 -143.5 33t-99 91.5t-35.5 131.5q0 71 34 130t93.5 93.5t132.5 34.5q74 0 134 -34.5zM217.5 351.5q-31.5 -27.5 -40.5 -73.5l222 41
q-15 28 -42 44t-62 16q-46 0 -77.5 -27.5zM99 699h156l46 -64l48 64h155l-99 -142h-208z" />
    <glyph glyph-name="Gbreve" unicode="&#x11e;" horiz-adv-x="788" 
d="M225 35q-88 48 -136.5 131t-48.5 184q0 100 50.5 183t136 131.5t185.5 48.5q95 0 177 -43t133 -117l-128 -74q-30 43 -78.5 67.5t-104.5 24.5q-59 0 -109.5 -29t-80 -79.5t-29.5 -112.5q0 -63 28.5 -113.5t80.5 -79.5t119 -29q49 0 90.5 13t66 37t24.5 54q0 43 -83 43
q-34 0 -73.5 -6.5t-67.5 -15.5l-36 127q88 31 206 31q105 0 155.5 -42.5t50.5 -109.5q0 -83 -47.5 -144.5t-123 -94.5t-157.5 -33q-112 0 -200 48zM271.5 789q-50.5 42 -51.5 112h116q2 -21 17.5 -35.5t44.5 -14.5t44 14.5t17 35.5h116q-1 -70 -51.5 -112t-125.5 -42
q-76 0 -126.5 42z" />
    <glyph glyph-name="gbreve" unicode="&#x11f;" horiz-adv-x="634" 
d="M567 487v-453q0 -78 -33 -134t-92 -85.5t-135 -29.5q-68 0 -130 17t-111 52l66 114q34 -24 76.5 -39.5t91.5 -15.5q59 0 92 29t33 81v34q-55 -60 -144 -60q-67 0 -122.5 32t-88 89t-32.5 130t32.5 130.5t88 89.5t122.5 32q89 0 144 -60v47h142zM392.5 158.5
q35.5 35.5 35.5 89.5q0 53 -35.5 89.5t-86.5 36.5q-52 0 -87 -36.5t-35 -89.5q0 -54 35 -89.5t87 -35.5q51 0 86.5 35.5zM187.5 587q-50.5 42 -51.5 112h116q2 -21 17.5 -35.5t44.5 -14.5t44 14.5t17 35.5h116q-1 -70 -51.5 -112t-125.5 -42q-76 0 -126.5 42z" />
    <glyph glyph-name="Gdotaccent" unicode="&#x120;" horiz-adv-x="788" 
d="M225 35q-88 48 -136.5 131t-48.5 184q0 100 50.5 183t136 131.5t185.5 48.5q95 0 177 -43t133 -117l-128 -74q-30 43 -78.5 67.5t-104.5 24.5q-59 0 -109.5 -29t-80 -79.5t-29.5 -112.5q0 -63 28.5 -113.5t80.5 -79.5t119 -29q49 0 90.5 13t66 37t24.5 54q0 43 -83 43
q-34 0 -73.5 -6.5t-67.5 -15.5l-36 127q88 31 206 31q105 0 155.5 -42.5t50.5 -109.5q0 -83 -47.5 -144.5t-123 -94.5t-157.5 -33q-112 0 -200 48zM334 770.5q-27 26.5 -27 63.5t26.5 63.5t64.5 26.5t64.5 -26.5t26.5 -63.5t-27 -63.5t-64 -26.5t-64 26.5z" />
    <glyph glyph-name="gdotaccent" unicode="&#x121;" horiz-adv-x="634" 
d="M567 487v-453q0 -78 -33 -134t-92 -85.5t-135 -29.5q-68 0 -130 17t-111 52l66 114q34 -24 76.5 -39.5t91.5 -15.5q59 0 92 29t33 81v34q-55 -60 -144 -60q-67 0 -122.5 32t-88 89t-32.5 130t32.5 130.5t88 89.5t122.5 32q89 0 144 -60v47h142zM392.5 158.5
q35.5 35.5 35.5 89.5q0 53 -35.5 89.5t-86.5 36.5q-52 0 -87 -36.5t-35 -89.5q0 -54 35 -89.5t87 -35.5q51 0 86.5 35.5zM250 568.5q-27 26.5 -27 63.5t26.5 63.5t64.5 26.5t64.5 -26.5t26.5 -63.5t-27 -63.5t-64 -26.5t-64 26.5z" />
    <glyph glyph-name="uni0122" unicode="&#x122;" horiz-adv-x="788" 
d="M225 35q-88 48 -136.5 131t-48.5 184q0 100 50.5 183t136 131.5t185.5 48.5q95 0 177 -43t133 -117l-128 -74q-30 43 -78.5 67.5t-104.5 24.5q-59 0 -109.5 -29t-80 -79.5t-29.5 -112.5q0 -63 28.5 -113.5t80.5 -79.5t119 -29q49 0 90.5 13t66 37t24.5 54q0 43 -83 43
q-34 0 -73.5 -6.5t-67.5 -15.5l-36 127q88 31 206 31q105 0 155.5 -42.5t50.5 -109.5q0 -83 -47.5 -144.5t-123 -94.5t-157.5 -33q-112 0 -200 48zM324 -53h140l-59 -140h-137z" />
    <glyph glyph-name="uni0123" unicode="&#x123;" horiz-adv-x="634" 
d="M567 487v-453q0 -78 -33 -134t-92 -85.5t-135 -29.5q-68 0 -130 17t-111 52l66 114q34 -24 76.5 -39.5t91.5 -15.5q59 0 92 29t33 81v34q-55 -60 -144 -60q-67 0 -122.5 32t-88 89t-32.5 130t32.5 130.5t88 89.5t122.5 32q89 0 144 -60v47h142zM392.5 158.5
q35.5 35.5 35.5 89.5q0 53 -35.5 89.5t-86.5 36.5q-52 0 -87 -36.5t-35 -89.5q0 -54 35 -89.5t87 -35.5q51 0 86.5 35.5zM290 699h144l-61 -142h-142z" />
    <glyph glyph-name="Hbar" unicode="&#x126;" horiz-adv-x="769" 
d="M749 508h-50v-508h-150v292q-80 -33 -165 -33t-164 33v-292h-150v508h-52v117h52v74h150v-74h329v74h150v-74h50v-117zM549 508h-329v-63q31 -21 73 -33t91 -12q99 0 165 45v63z" />
    <glyph glyph-name="hbar" unicode="&#x127;" horiz-adv-x="610" 
d="M500.5 427.5q49.5 -52.5 49.5 -138.5v-289h-146v261q0 42 -25.5 66t-64.5 24q-44 0 -73.5 -30.5t-29.5 -79.5v-241h-144v516h-84v117h84v66h144v-66h128v-117h-128v-97q58 61 155 61q85 0 134.5 -52.5z" />
    <glyph glyph-name="Imacron" unicode="&#x12a;" horiz-adv-x="290" 
d="M70 699h150v-699h-150v699zM-12 881h314v-119h-314v119z" />
    <glyph glyph-name="imacron" unicode="&#x12b;" horiz-adv-x="278" 
d="M67 487h144v-487h-144v487zM-18 679h314v-119h-314v119z" />
    <glyph glyph-name="Iogonek" unicode="&#x12e;" horiz-adv-x="290" 
d="M251 -209q-13 -7 -35.5 -11t-42.5 -4q-77 0 -112 32t-35 82q0 34 16 62t43 48h-15v699h150v-699q-35 -12 -56.5 -31.5t-21.5 -44.5q0 -19 15 -29.5t41 -10.5q19 0 31 4z" />
    <glyph glyph-name="iogonek" unicode="&#x12f;" horiz-adv-x="278" 
d="M75 568.5q-27 26.5 -27 63.5t26.5 63.5t64.5 26.5t64.5 -26.5t26.5 -63.5t-27 -63.5t-64 -26.5t-64 26.5zM242 -209q-13 -7 -35.5 -11t-42.5 -4q-77 0 -112 32t-35 82q0 34 16 62t43 48h-9v487h144v-487q-35 -12 -56.5 -31.5t-21.5 -44.5q0 -19 15 -29.5t41 -10.5
q19 0 31 4z" />
    <glyph glyph-name="Idotaccent" unicode="&#x130;" horiz-adv-x="290" 
d="M70 699h150v-699h-150v699zM81 770.5q-27 26.5 -27 63.5t26.5 63.5t64.5 26.5t64.5 -26.5t26.5 -63.5t-27 -63.5t-64 -26.5t-64 26.5z" />
    <glyph glyph-name="dotlessi" unicode="&#x131;" horiz-adv-x="278" 
d="M67 487h144v-487h-144v487z" />
    <glyph glyph-name="uni0136" unicode="&#x136;" horiz-adv-x="676" 
d="M511 291q59 -65 93.5 -143t40.5 -148h-159q-6 53 -41 122.5t-95 120.5t-134 52v-295h-146v699h146v-281l256 281h196l-291 -311q75 -32 134 -97zM273 -54h140l-59 -140h-137z" />
    <glyph glyph-name="uni0137" unicode="&#x137;" horiz-adv-x="574" 
d="M487.5 168q48.5 -80 58.5 -168h-151q-5 44 -29 92.5t-64 84t-91 41.5v-218h-144v699h144v-396l163 184h183l-187 -200q69 -39 117.5 -119zM205 -53h140l-59 -140h-137z" />
    <glyph glyph-name="Lacute" unicode="&#x139;" horiz-adv-x="594" 
d="M220 140h332v-140h-482v700h150v-560zM150 901h161l-87 -142h-153z" />
    <glyph glyph-name="lacute" unicode="&#x13a;" horiz-adv-x="278" 
d="M67 699h144v-699h-144v699zM138 898h161l-87 -142h-153z" />
    <glyph glyph-name="uni013B" unicode="&#x13b;" horiz-adv-x="594" 
d="M220 140h332v-140h-482v700h150v-560zM226 -53h140l-59 -140h-137z" />
    <glyph glyph-name="uni013C" unicode="&#x13c;" horiz-adv-x="278" 
d="M67 699h144v-699h-144v699zM68 -53h140l-59 -140h-137z" />
    <glyph glyph-name="Lcaron" unicode="&#x13d;" horiz-adv-x="594" 
d="M220 140h332v-140h-482v700h150v-560zM298 699h125l-36 -186h-120z" />
    <glyph glyph-name="lcaron" unicode="&#x13e;" horiz-adv-x="393" 
d="M67 699h144v-699h-144v699zM278 699h125l-36 -186h-120z" />
    <glyph glyph-name="Lslash" unicode="&#x141;" horiz-adv-x="604" 
d="M230 140h332v-140h-482v219l-72 -36v149l72 36v332h150v-258l153 75v-147l-153 -76v-154z" />
    <glyph glyph-name="lslash" unicode="&#x142;" horiz-adv-x="408" 
d="M358 489v-139l-82 -45v-305h-144v227l-82 -45v136l82 46v335h144v-256z" />
    <glyph glyph-name="Nacute" unicode="&#x143;" horiz-adv-x="775" 
d="M705 699v-699h-150q-88 87 -184.5 216.5t-153.5 242.5v-459h-147v699h179q52 -120 143 -261.5t166 -230.5v492h147zM387 901h161l-87 -142h-153z" />
    <glyph glyph-name="nacute" unicode="&#x144;" horiz-adv-x="610" 
d="M500.5 447.5q49.5 -52.5 49.5 -138.5v-309h-144v281q0 42 -26 66t-65 24q-44 0 -74 -30.5t-30 -79.5v-261h-144v487h142v-50q59 63 157 63q85 0 134.5 -52.5zM307 699h161l-87 -142h-153z" />
    <glyph glyph-name="uni0145" unicode="&#x145;" horiz-adv-x="775" 
d="M705 699v-699h-150q-88 87 -184.5 216.5t-153.5 242.5v-459h-147v699h179q52 -120 143 -261.5t166 -230.5v492h147zM317 -53h140l-59 -140h-137z" />
    <glyph glyph-name="uni0146" unicode="&#x146;" horiz-adv-x="610" 
d="M500.5 447.5q49.5 -52.5 49.5 -138.5v-309h-144v281q0 42 -26 66t-65 24q-44 0 -74 -30.5t-30 -79.5v-261h-144v487h142v-50q59 63 157 63q85 0 134.5 -52.5zM237 -53h140l-59 -140h-137z" />
    <glyph glyph-name="Ncaron" unicode="&#x147;" horiz-adv-x="775" 
d="M705 699v-699h-150q-88 87 -184.5 216.5t-153.5 242.5v-459h-147v699h179q52 -120 143 -261.5t166 -230.5v492h147zM185 901h156l46 -64l48 64h155l-99 -142h-208z" />
    <glyph glyph-name="ncaron" unicode="&#x148;" horiz-adv-x="610" 
d="M500.5 447.5q49.5 -52.5 49.5 -138.5v-309h-144v281q0 42 -26 66t-65 24q-44 0 -74 -30.5t-30 -79.5v-261h-144v487h142v-50q59 63 157 63q85 0 134.5 -52.5zM105 699h156l46 -64l48 64h155l-99 -142h-208z" />
    <glyph glyph-name="Eng" unicode="&#x14a;" horiz-adv-x="775" 
d="M705 0h-2q0 -97 -41.5 -151.5t-141.5 -54.5q-50 0 -79 8l20 123q17 -4 39 -4q35 0 47 16.5t12 52.5v10h-4q-88 87 -184.5 216.5t-153.5 242.5v-459h-147v699h179q52 -120 143 -261.5t166 -230.5v492h147v-699z" />
    <glyph glyph-name="eng" unicode="&#x14b;" horiz-adv-x="610" 
d="M500.5 447.5q49.5 -52.5 49.5 -138.5v-309h-5q0 -95 -41.5 -150.5t-141.5 -55.5q-50 0 -79 8l20 123q17 -4 39 -4q35 0 47 16.5t12 52.5v197h5v94q0 42 -26 66t-65 24q-44 0 -74 -30.5t-30 -79.5v-261h-144v487h142v-50q59 63 157 63q85 0 134.5 -52.5z" />
    <glyph glyph-name="Omacron" unicode="&#x14c;" horiz-adv-x="824" 
d="M226.5 35.5q-85.5 48.5 -136 131.5t-50.5 183t50.5 183t136 131.5t185.5 48.5t185.5 -48.5t136 -131.5t50.5 -183t-50.5 -183t-136 -131.5t-185.5 -48.5t-185.5 48.5zM521.5 158q50.5 29 80.5 79.5t30 112.5t-30 112.5t-80.5 79.5t-109.5 29t-109.5 -29t-80.5 -79.5
t-30 -112.5t30 -112.5t80.5 -79.5t109.5 -29t109.5 29zM255 881h314v-119h-314v119z" />
    <glyph glyph-name="omacron" unicode="&#x14d;" horiz-adv-x="610" 
d="M168.5 20.5q-61.5 33.5 -97 92t-35.5 130.5t35.5 131t97 92.5t136.5 33.5t136.5 -33.5t97 -92.5t35.5 -131t-35.5 -130.5t-97 -92t-136.5 -33.5t-136.5 33.5zM392.5 152q35.5 36 35.5 91t-35.5 91.5t-87.5 36.5t-87.5 -36.5t-35.5 -91.5t35.5 -91t87.5 -36t87.5 36z
M149 679h314v-119h-314v119z" />
    <glyph glyph-name="Ohungarumlaut" unicode="&#x150;" horiz-adv-x="824" 
d="M226.5 35.5q-85.5 48.5 -136 131.5t-50.5 183t50.5 183t136 131.5t185.5 48.5t185.5 -48.5t136 -131.5t50.5 -183t-50.5 -183t-136 -131.5t-185.5 -48.5t-185.5 48.5zM521.5 158q50.5 29 80.5 79.5t30 112.5t-30 112.5t-80.5 79.5t-109.5 29t-109.5 -29t-80.5 -79.5
t-30 -112.5t30 -112.5t80.5 -79.5t109.5 -29t109.5 29zM300 901h149l-79 -142h-146zM515 901h150l-79 -142h-147z" />
    <glyph glyph-name="ohungarumlaut" unicode="&#x151;" horiz-adv-x="610" 
d="M168.5 20.5q-61.5 33.5 -97 92t-35.5 130.5t35.5 131t97 92.5t136.5 33.5t136.5 -33.5t97 -92.5t35.5 -131t-35.5 -130.5t-97 -92t-136.5 -33.5t-136.5 33.5zM392.5 152q35.5 36 35.5 91t-35.5 91.5t-87.5 36.5t-87.5 -36.5t-35.5 -91.5t35.5 -91t87.5 -36t87.5 36z
M194 699h149l-79 -142h-146zM409 699h150l-79 -142h-147z" />
    <glyph glyph-name="OE" unicode="&#x152;" horiz-adv-x="1217" 
d="M1183 44q-51 -27 -127.5 -42.5t-155.5 -15.5q-83 0 -146 24t-94 77q-48 -48 -111.5 -74t-136.5 -26q-100 0 -185.5 48.5t-136 131.5t-50.5 183t50.5 183t136 131.5t185.5 48.5q63 0 119 -19.5t102 -55.5v61h522v-140h-372v-124h318v-140h-318v-57q0 -59 36 -82.5
t103 -23.5q63 0 122 13t101 34zM521.5 158q50.5 29 80.5 79.5t30 112.5t-30 112.5t-80.5 79.5t-109.5 29t-109.5 -29t-80.5 -79.5t-30 -112.5t30 -112.5t80.5 -79.5t109.5 -29t109.5 29z" />
    <glyph glyph-name="oe" unicode="&#x153;" horiz-adv-x="971" 
d="M816 465.5q60 -34.5 92 -95.5t27 -137l-352 -65q37 -54 118 -54q76 0 144 51l75 -103q-51 -42 -105.5 -59t-114.5 -17q-63 0 -115.5 23t-88.5 65q-34 -41 -83.5 -64t-108.5 -23q-75 0 -136.5 33.5t-96.5 92t-35 130.5t35 131t96.5 92.5t136.5 33.5q59 0 108.5 -23.5
t83.5 -64.5q34 41 82 64.5t104 23.5q74 0 134 -34.5zM604.5 351q-30.5 -27 -39.5 -72l217 41q-15 27 -41 42.5t-60 15.5q-46 0 -76.5 -27zM391 152.5q36 36.5 36 90.5q0 36 -16.5 65t-45 46t-61.5 17q-51 0 -86.5 -37t-35.5 -91t35.5 -90.5t86.5 -36.5t87 36.5z" />
    <glyph glyph-name="Racute" unicode="&#x154;" horiz-adv-x="666" 
d="M584 159q34 -74 39 -159h-150q-11 95 -61.5 169t-153.5 74h-42v-243h-146v699h300q69 0 126 -28.5t90.5 -79.5t33.5 -115q0 -68 -35 -119t-95 -75q60 -49 94 -123zM358 372q50 0 80 25.5t30 68.5q0 42 -30.5 67.5t-79.5 25.5h-142v-187h142zM332 901h161l-87 -142h-153z
" />
    <glyph glyph-name="racute" unicode="&#x155;" horiz-adv-x="449" 
d="M429 361q-94 -8 -156 -68.5t-62 -197.5v-95h-144v487h142v-98q65 104 197 107zM258 699h161l-87 -142h-153z" />
    <glyph glyph-name="uni0156" unicode="&#x156;" horiz-adv-x="666" 
d="M584 159q34 -74 39 -159h-150q-11 95 -61.5 169t-153.5 74h-42v-243h-146v699h300q69 0 126 -28.5t90.5 -79.5t33.5 -115q0 -68 -35 -119t-95 -75q60 -49 94 -123zM358 372q50 0 80 25.5t30 68.5q0 42 -30.5 67.5t-79.5 25.5h-142v-187h142zM262 -53h140l-59 -140h-137z
" />
    <glyph glyph-name="uni0157" unicode="&#x157;" horiz-adv-x="449" 
d="M429 361q-94 -8 -156 -68.5t-62 -197.5v-95h-144v487h142v-98q65 104 197 107zM63 -53h140l-59 -140h-137z" />
    <glyph glyph-name="Rcaron" unicode="&#x158;" horiz-adv-x="666" 
d="M584 159q34 -74 39 -159h-150q-11 95 -61.5 169t-153.5 74h-42v-243h-146v699h300q69 0 126 -28.5t90.5 -79.5t33.5 -115q0 -68 -35 -119t-95 -75q60 -49 94 -123zM358 372q50 0 80 25.5t30 68.5q0 42 -30.5 67.5t-79.5 25.5h-142v-187h142zM130 901h156l46 -64l48 64
h155l-99 -142h-208z" />
    <glyph glyph-name="rcaron" unicode="&#x159;" horiz-adv-x="449" 
d="M429 361q-94 -8 -156 -68.5t-62 -197.5v-95h-144v487h142v-98q65 104 197 107zM56 699h156l46 -64l48 64h155l-99 -142h-208z" />
    <glyph glyph-name="Sacute" unicode="&#x15a;" horiz-adv-x="587" 
d="M197 149q54 -23 102 -23q50 0 80 21t30 57q0 31 -25.5 47t-79.5 31l-59 17q-197 56 -197 202q0 61 32 109.5t89.5 76t129.5 27.5q73 0 140 -24t108 -62l-95 -113q-27 28 -70.5 44.5t-83.5 16.5q-43 0 -70.5 -20t-27.5 -50q0 -25 25.5 -40.5t72.5 -28.5l59 -17
q96 -28 150 -78.5t54 -133.5q0 -63 -34 -114t-93 -80t-133 -29q-80 0 -157.5 29t-125.5 79l89 115q36 -36 90 -59zM300 901h161l-87 -142h-153z" />
    <glyph glyph-name="sacute" unicode="&#x15b;" horiz-adv-x="487" 
d="M169.5 125.5q42.5 -16.5 84.5 -16.5q60 0 60 33q0 15 -18 24t-58 19l-41 10q-71 17 -110.5 52t-39.5 95q0 44 25 80.5t70 58t102 21.5q62 0 114.5 -18.5t85.5 -46.5l-74 -102q-25 21 -59 32t-64 11q-27 0 -41.5 -8t-14.5 -20q0 -13 13.5 -20.5t44.5 -15.5l38 -10
q84 -22 126 -55.5t42 -97.5q0 -48 -24 -85.5t-68.5 -58.5t-104.5 -21q-71 0 -133.5 20.5t-105.5 58.5l80 100q28 -23 70.5 -39.5zM252 699h161l-87 -142h-153z" />
    <glyph glyph-name="Scedilla" unicode="&#x15e;" horiz-adv-x="587" 
d="M533 102.5q-28 -47.5 -78.5 -78t-114.5 -37.5q33 -16 52 -42t19 -62q0 -51 -39 -82t-97 -31q-38 0 -73.5 12.5t-57.5 31.5l42 73q38 -30 83 -30q43 0 43 30q0 16 -22 28.5t-67 19.5l30 53q-69 8 -131.5 35.5t-103.5 69.5l89 115q36 -36 90 -59t102 -23q50 0 80 21t30 57
q0 31 -25.5 47t-79.5 31l-59 17q-197 56 -197 202q0 61 32 109.5t89.5 76t129.5 27.5q73 0 140 -24t108 -62l-95 -113q-27 28 -70.5 44.5t-83.5 16.5q-43 0 -70.5 -20t-27.5 -50q0 -25 25.5 -40.5t72.5 -28.5l59 -17q96 -28 150 -78.5t54 -133.5q0 -58 -28 -105.5z" />
    <glyph glyph-name="scedilla" unicode="&#x15f;" horiz-adv-x="487" 
d="M408.5 38.5q-46.5 -44.5 -126.5 -51.5q71 -36 71 -104q0 -51 -39 -82t-97 -31q-38 0 -73.5 12.5t-57.5 31.5l42 73q38 -30 83 -30q43 0 43 30q0 16 -22 28.5t-67 19.5l31 55q-108 14 -177 75l80 100q28 -23 70.5 -39.5t84.5 -16.5q60 0 60 33q0 15 -18 24t-58 19l-41 10
q-71 17 -110.5 52t-39.5 95q0 44 25 80.5t70 58t102 21.5q62 0 114.5 -18.5t85.5 -46.5l-74 -102q-25 21 -59 32t-64 11q-27 0 -41.5 -8t-14.5 -20q0 -13 13.5 -20.5t44.5 -15.5l38 -10q84 -22 126 -55.5t42 -97.5q0 -68 -46.5 -112.5z" />
    <glyph glyph-name="Scaron" unicode="&#x160;" horiz-adv-x="587" 
d="M197 149q54 -23 102 -23q50 0 80 21t30 57q0 31 -25.5 47t-79.5 31l-59 17q-197 56 -197 202q0 61 32 109.5t89.5 76t129.5 27.5q73 0 140 -24t108 -62l-95 -113q-27 28 -70.5 44.5t-83.5 16.5q-43 0 -70.5 -20t-27.5 -50q0 -25 25.5 -40.5t72.5 -28.5l59 -17
q96 -28 150 -78.5t54 -133.5q0 -63 -34 -114t-93 -80t-133 -29q-80 0 -157.5 29t-125.5 79l89 115q36 -36 90 -59zM98 901h156l46 -64l48 64h155l-99 -142h-208z" />
    <glyph glyph-name="scaron" unicode="&#x161;" horiz-adv-x="487" 
d="M169.5 125.5q42.5 -16.5 84.5 -16.5q60 0 60 33q0 15 -18 24t-58 19l-41 10q-71 17 -110.5 52t-39.5 95q0 44 25 80.5t70 58t102 21.5q62 0 114.5 -18.5t85.5 -46.5l-74 -102q-25 21 -59 32t-64 11q-27 0 -41.5 -8t-14.5 -20q0 -13 13.5 -20.5t44.5 -15.5l38 -10
q84 -22 126 -55.5t42 -97.5q0 -48 -24 -85.5t-68.5 -58.5t-104.5 -21q-71 0 -133.5 20.5t-105.5 58.5l80 100q28 -23 70.5 -39.5zM50 699h156l46 -64l48 64h155l-99 -142h-208z" />
    <glyph glyph-name="uni0162" unicode="&#x162;" horiz-adv-x="632" 
d="M391 0h-35q77 -35 77 -107q0 -51 -39 -82t-97 -31q-38 0 -73.5 12.5t-57.5 31.5l42 73q38 -30 83 -30q43 0 43 30q0 16 -22 28.5t-67 19.5l31 55h-35v559h-210v140h570v-140h-210v-559z" />
    <glyph glyph-name="uni0163" unicode="&#x163;" horiz-adv-x="485" 
d="M393 -117q0 -51 -39 -82t-97 -31q-38 0 -73.5 12.5t-57.5 31.5l42 73q38 -30 83 -30q43 0 43 30q0 16 -22 28.5t-67 19.5l34 60q-60 16 -90.5 62.5t-30.5 122.5v181h-85v126h85v130h144v-130h173v-126h-173v-168q0 -73 67 -73q44 0 88 25l44 -114q-61 -40 -140 -44
q72 -34 72 -104z" />
    <glyph glyph-name="Tcaron" unicode="&#x164;" horiz-adv-x="632" 
d="M241 559h-210v140h570v-140h-210v-559h-150v559zM114 901h156l46 -64l48 64h155l-99 -142h-208z" />
    <glyph glyph-name="tcaron" unicode="&#x165;" horiz-adv-x="485" 
d="M305 -13q-92 0 -139.5 49t-47.5 144v181h-85v126h85v130h144v-130h173v-126h-173v-168q0 -73 67 -73q44 0 88 25l44 -114q-67 -44 -156 -44zM340 729h125l-36 -186h-120z" />
    <glyph glyph-name="Tbar" unicode="&#x166;" horiz-adv-x="632" 
d="M601 559h-210v-141h104v-136h-104v-282h-150v282h-102v136h102v141h-210v140h570v-140z" />
    <glyph glyph-name="tbar" unicode="&#x167;" horiz-adv-x="485" 
d="M461 31q-67 -44 -156 -44q-92 0 -139.5 49t-47.5 144v8h-85v117h85v56h-85v126h85v130h144v-130h173v-126h-173v-56h127v-117h-127q2 -68 67 -68q44 0 88 25z" />
    <glyph glyph-name="Umacron" unicode="&#x16a;" horiz-adv-x="742" 
d="M209 27q-69 40 -105.5 108t-36.5 152v412h150v-411q0 -68 41.5 -113.5t112.5 -45.5q72 0 113 45t41 114v411h150v-412q0 -84 -36.5 -152t-105.5 -108t-162 -40t-162 40zM214 881h314v-119h-314v119z" />
    <glyph glyph-name="umacron" unicode="&#x16b;" horiz-adv-x="592" 
d="M173 14.5q-54 27.5 -83.5 78t-29.5 115.5v279h144v-271q0 -43 25.5 -71.5t66.5 -28.5t66.5 28.5t25.5 71.5v271h144v-279q0 -65 -29.5 -115.5t-83.5 -78t-123 -27.5t-123 27.5zM139 679h314v-119h-314v119z" />
    <glyph glyph-name="Uring" unicode="&#x16e;" horiz-adv-x="742" 
d="M209 27q-69 40 -105.5 108t-36.5 152v412h150v-411q0 -68 41.5 -113.5t112.5 -45.5q72 0 113 45t41 114v411h150v-412q0 -84 -36.5 -152t-105.5 -108t-162 -40t-162 40zM295.5 634.5q-34.5 18.5 -54.5 51t-20 71.5t20 71.5t54.5 51.5t75.5 19t75.5 -19t54.5 -51.5
t20 -71.5t-20 -71.5t-54.5 -51t-75.5 -18.5t-75.5 18.5zM411.5 717.5q16.5 15.5 16.5 39.5t-16.5 40t-40.5 16q-25 0 -41.5 -16t-16.5 -40t16.5 -39.5t41.5 -15.5q24 0 40.5 15.5z" />
    <glyph glyph-name="uring" unicode="&#x16f;" horiz-adv-x="592" 
d="M225 551.5q-32 17.5 -51 47.5t-19 67q0 36 19 66t51 47.5t71 17.5t71 -17.5t51 -47.5t19 -66q0 -37 -19 -67t-51 -47.5t-71 -17.5t-71 17.5zM335.5 628.5q16.5 15.5 16.5 37.5t-16.5 37.5t-39.5 15.5t-39.5 -15.5t-16.5 -37.5t16.5 -37.5t39.5 -15.5t39.5 15.5zM173 14.5
q-54 27.5 -83.5 78t-29.5 115.5v279h144v-271q0 -43 25.5 -71.5t66.5 -28.5t66.5 28.5t25.5 71.5v271h144v-279q0 -65 -29.5 -115.5t-83.5 -78t-123 -27.5t-123 27.5z" />
    <glyph glyph-name="Uhungarumlaut" unicode="&#x170;" horiz-adv-x="742" 
d="M209 27q-69 40 -105.5 108t-36.5 152v412h150v-411q0 -68 41.5 -113.5t112.5 -45.5q72 0 113 45t41 114v411h150v-412q0 -84 -36.5 -152t-105.5 -108t-162 -40t-162 40zM259 901h149l-79 -142h-146zM474 901h150l-79 -142h-147z" />
    <glyph glyph-name="uhungarumlaut" unicode="&#x171;" horiz-adv-x="592" 
d="M173 14.5q-54 27.5 -83.5 78t-29.5 115.5v279h144v-271q0 -43 25.5 -71.5t66.5 -28.5t66.5 28.5t25.5 71.5v271h144v-279q0 -65 -29.5 -115.5t-83.5 -78t-123 -27.5t-123 27.5zM184 699h149l-79 -142h-146zM399 699h150l-79 -142h-147z" />
    <glyph glyph-name="Uogonek" unicode="&#x172;" horiz-adv-x="742" 
d="M675 699v-412q0 -86 -38 -155t-108 -107q-31 -23 -47 -44t-16 -46t15 -38t42 -13q19 0 31 4l22 -97q-13 -7 -35.5 -11t-41.5 -4q-78 0 -114 34.5t-36 87.5q0 47 32 89h-10q-93 0 -162 40t-105.5 108t-36.5 152v412h150v-411q0 -68 41.5 -113.5t112.5 -45.5q72 0 113 45
t41 114v411h150z" />
    <glyph glyph-name="uogonek" unicode="&#x173;" horiz-adv-x="592" 
d="M380 -25q-12 -19 -12 -40q0 -25 15 -38t42 -13q19 0 31 4l22 -97q-13 -7 -35.5 -11t-41.5 -4q-78 0 -114 34.5t-36 87.5q0 47 32 89q-66 3 -116.5 31.5t-78.5 77.5t-28 112v279h144v-271q0 -43 25.5 -71.5t66.5 -28.5t66.5 28.5t25.5 71.5v271h144v-279q0 -67 -31 -118
t-86 -77q-23 -19 -35 -38z" />
    <glyph glyph-name="Wcircumflex" unicode="&#x174;" horiz-adv-x="1084" 
d="M1064 699l-208 -699h-188q-56 239 -128 472q-64 -210 -128 -472h-184l-208 699h161l146 -506q55 233 139 476h148q89 -244 147 -477l143 507h160zM440 901h208l99 -142h-155l-48 65l-46 -65h-157z" />
    <glyph glyph-name="wcircumflex" unicode="&#x175;" horiz-adv-x="889" 
d="M879 465q-56 -78 -117.5 -211.5t-99.5 -253.5h-141l-91 262l-95 -262h-138l-182 487h154l105 -304l97 274h122l96 -269q24 80 74.5 184.5t92.5 157.5zM325 699h208l99 -142h-155l-48 65l-46 -65h-157z" />
    <glyph glyph-name="Ycircumflex" unicode="&#x176;" horiz-adv-x="652" 
d="M543.5 473.5q-62.5 -108.5 -142.5 -199.5v-274h-150v276q-80 90 -143 198.5t-94 224.5h163q23 -74 62.5 -151t87.5 -133q49 55 88.5 132.5t62.5 151.5h160q-32 -117 -94.5 -225.5zM221 901h208l99 -142h-155l-48 65l-46 -65h-157z" />
    <glyph glyph-name="ycircumflex" unicode="&#x177;" horiz-adv-x="602" 
d="M577 487q-47 -187 -144 -381.5t-214 -326.5l-116 73q69 81 120 160l-207 475h160l134 -319q68 141 113 319h154zM190 699h208l99 -142h-155l-48 65l-46 -65h-157z" />
    <glyph glyph-name="Ydieresis" unicode="&#x178;" horiz-adv-x="652" 
d="M543.5 473.5q-62.5 -108.5 -142.5 -199.5v-274h-150v276q-80 90 -143 198.5t-94 224.5h163q23 -74 62.5 -151t87.5 -133q49 55 88.5 132.5t62.5 151.5h160q-32 -117 -94.5 -225.5zM128.5 772q-26.5 26 -26.5 61q0 36 26.5 61.5t62.5 25.5t62.5 -25.5t26.5 -61.5
q0 -35 -26.5 -61t-62.5 -26t-62.5 26zM397.5 772q-26.5 26 -26.5 61q0 36 26.5 61.5t62.5 25.5t62.5 -25.5t26.5 -61.5q0 -35 -26.5 -61t-62.5 -26t-62.5 26z" />
    <glyph glyph-name="Zacute" unicode="&#x179;" horiz-adv-x="643" 
d="M443 335q-96 -110 -194 -195h350v-140h-556v138q116 106 218 213t166 208h-374v140h547v-140q-61 -114 -157 -224zM322 901h161l-87 -142h-153z" />
    <glyph glyph-name="zacute" unicode="&#x17a;" horiz-adv-x="524" 
d="M473 126v-126h-422v124q136 108 252 237h-252v126h418v-126q-75 -106 -221 -235h225zM263 699h161l-87 -142h-153z" />
    <glyph glyph-name="Zdotaccent" unicode="&#x17b;" horiz-adv-x="643" 
d="M443 335q-96 -110 -194 -195h350v-140h-556v138q116 106 218 213t166 208h-374v140h547v-140q-61 -114 -157 -224zM259 770.5q-27 26.5 -27 63.5t26.5 63.5t64.5 26.5t64.5 -26.5t26.5 -63.5t-27 -63.5t-64 -26.5t-64 26.5z" />
    <glyph glyph-name="zdotaccent" unicode="&#x17c;" horiz-adv-x="524" 
d="M473 126v-126h-422v124q136 108 252 237h-252v126h418v-126q-75 -106 -221 -235h225zM200 568.5q-27 26.5 -27 63.5t26.5 63.5t64.5 26.5t64.5 -26.5t26.5 -63.5t-27 -63.5t-64 -26.5t-64 26.5z" />
    <glyph glyph-name="Zcaron" unicode="&#x17d;" horiz-adv-x="643" 
d="M443 335q-96 -110 -194 -195h350v-140h-556v138q116 106 218 213t166 208h-374v140h547v-140q-61 -114 -157 -224zM120 901h156l46 -64l48 64h155l-99 -142h-208z" />
    <glyph glyph-name="zcaron" unicode="&#x17e;" horiz-adv-x="524" 
d="M473 126v-126h-422v124q136 108 252 237h-252v126h418v-126q-75 -106 -221 -235h225zM61 699h156l46 -64l48 64h155l-99 -142h-208z" />
    <glyph glyph-name="uni0218" unicode="&#x218;" horiz-adv-x="587" 
d="M197 149q54 -23 102 -23q50 0 80 21t30 57q0 31 -25.5 47t-79.5 31l-59 17q-197 56 -197 202q0 61 32 109.5t89.5 76t129.5 27.5q73 0 140 -24t108 -62l-95 -113q-27 28 -70.5 44.5t-83.5 16.5q-43 0 -70.5 -20t-27.5 -50q0 -25 25.5 -40.5t72.5 -28.5l59 -17
q96 -28 150 -78.5t54 -133.5q0 -63 -34 -114t-93 -80t-133 -29q-80 0 -157.5 29t-125.5 79l89 115q36 -36 90 -59zM224 -53h140l-59 -140h-137z" />
    <glyph glyph-name="uni0219" unicode="&#x219;" horiz-adv-x="487" 
d="M169.5 125.5q42.5 -16.5 84.5 -16.5q60 0 60 33q0 15 -18 24t-58 19l-41 10q-71 17 -110.5 52t-39.5 95q0 44 25 80.5t70 58t102 21.5q62 0 114.5 -18.5t85.5 -46.5l-74 -102q-25 21 -59 32t-64 11q-27 0 -41.5 -8t-14.5 -20q0 -13 13.5 -20.5t44.5 -15.5l38 -10
q84 -22 126 -55.5t42 -97.5q0 -48 -24 -85.5t-68.5 -58.5t-104.5 -21q-71 0 -133.5 20.5t-105.5 58.5l80 100q28 -23 70.5 -39.5zM166 -53h140l-59 -140h-137z" />
    <glyph glyph-name="uni021A" unicode="&#x21a;" horiz-adv-x="632" 
d="M241 559h-210v140h570v-140h-210v-559h-150v559zM246 -43h140l-59 -140h-137z" />
    <glyph glyph-name="uni021B" unicode="&#x21b;" horiz-adv-x="485" 
d="M305 -13q-92 0 -139.5 49t-47.5 144v181h-85v126h85v130h144v-130h173v-126h-173v-168q0 -73 67 -73q44 0 88 25l44 -114q-67 -44 -156 -44zM206 -53h140l-59 -140h-137z" />
    <glyph glyph-name="uni0237" unicode="&#x237;" horiz-adv-x="279" 
d="M185.5 -29q-26.5 -98 -72.5 -174l-129 52q41 74 61.5 156t20.5 213v269h146v-284q0 -134 -26.5 -232z" />
    <glyph glyph-name="circumflex" unicode="&#x2c6;" horiz-adv-x="496" 
d="M144 699h208l99 -142h-155l-48 65l-46 -65h-157z" />
    <glyph glyph-name="caron" unicode="&#x2c7;" horiz-adv-x="495" 
d="M45 699h156l46 -64l48 64h155l-99 -142h-208z" />
    <glyph glyph-name="breve" unicode="&#x2d8;" horiz-adv-x="445" 
d="M96.5 587q-50.5 42 -51.5 112h116q2 -21 17.5 -35.5t44.5 -14.5t44 14.5t17 35.5h116q-1 -70 -51.5 -112t-125.5 -42q-76 0 -126.5 42z" />
    <glyph glyph-name="dotaccent" unicode="&#x2d9;" horiz-adv-x="272" 
d="M72 568.5q-27 26.5 -27 63.5t26.5 63.5t64.5 26.5t64.5 -26.5t26.5 -63.5t-27 -63.5t-64 -26.5t-64 26.5z" />
    <glyph glyph-name="ring" unicode="&#x2da;" horiz-adv-x="372" 
d="M115 551.5q-32 17.5 -51 47.5t-19 67q0 36 19 66t51 47.5t71 17.5t71 -17.5t51 -47.5t19 -66q0 -37 -19 -67t-51 -47.5t-71 -17.5t-71 17.5zM225.5 628.5q16.5 15.5 16.5 37.5t-16.5 37.5t-39.5 15.5t-39.5 -15.5t-16.5 -37.5t16.5 -37.5t39.5 -15.5t39.5 15.5z" />
    <glyph glyph-name="ogonek" unicode="&#x2db;" horiz-adv-x="315" 
d="M80 -192q-35 32 -35 82q0 62 48 101t111 50l35 -41q-35 -12 -56.5 -31.5t-21.5 -44.5q0 -19 15 -29.5t41 -10.5q19 0 31 4l22 -97q-13 -7 -35.5 -11t-42.5 -4q-77 0 -112 32z" />
    <glyph glyph-name="tilde" unicode="&#x2dc;" horiz-adv-x="477" 
d="M266 554q-19 7 -39 19q-27 16 -41 16q-31 0 -37 -42h-104q7 76 41 114t81 38q23 0 41 -7t40 -19q15 -9 24 -13t18 -4q31 0 36 43h106q-6 -77 -40 -114.5t-82 -37.5q-25 0 -44 7z" />
    <glyph glyph-name="hungarumlaut" unicode="&#x2dd;" horiz-adv-x="531" 
d="M121 699h149l-79 -142h-146zM336 699h150l-79 -142h-147z" />
    <glyph glyph-name="gravecomb" unicode="&#x300;" horiz-adv-x="0" 
d="M-197 557l-88 142h161l79 -142h-152z" />
    <glyph glyph-name="acutecomb" unicode="&#x301;" horiz-adv-x="0" 
d="M-206 699h161l-87 -142h-153z" />
    <glyph glyph-name="uni0302" unicode="&#x302;" horiz-adv-x="0" 
d="M-352 699h208l99 -142h-155l-48 65l-46 -65h-157z" />
    <glyph glyph-name="tildecomb" unicode="&#x303;" horiz-adv-x="0" 
d="M-211 554q-19 7 -39 19q-27 16 -41 16q-31 0 -37 -42h-104q7 76 41 114t81 38q23 0 41 -7t40 -19q15 -9 24 -13t18 -4q31 0 36 43h106q-6 -77 -40 -114.5t-82 -37.5q-25 0 -44 7z" />
    <glyph glyph-name="uni0304" unicode="&#x304;" horiz-adv-x="0" 
d="M-359 679h314v-119h-314v119z" />
    <glyph glyph-name="uni0306" unicode="&#x306;" horiz-adv-x="0" 
d="M-348.5 587q-50.5 42 -51.5 112h116q2 -21 17.5 -35.5t44.5 -14.5t44 14.5t17 35.5h116q-1 -70 -51.5 -112t-125.5 -42q-76 0 -126.5 42z" />
    <glyph glyph-name="uni0307" unicode="&#x307;" horiz-adv-x="0" 
d="M-185 568.5q-27 26.5 -27 63.5t26.5 63.5t64.5 26.5t64.5 -26.5t26.5 -63.5t-27 -63.5t-64 -26.5t-64 26.5z" />
    <glyph glyph-name="uni0308" unicode="&#x308;" horiz-adv-x="0" 
d="M-430 571.5q-26 25.5 -26 60.5q0 36 26 61t62 25t62 -25t26 -61q0 -35 -26 -60.5t-62 -25.5t-62 25.5zM-195 571.5q-26 25.5 -26 60.5q0 36 26 61t62 25t62 -25t26 -61q0 -35 -26 -60.5t-62 -25.5t-62 25.5z" />
    <glyph glyph-name="uni030B" unicode="&#x30b;" horiz-adv-x="0" 
d="M-410 699h149l-79 -142h-146zM-195 699h150l-79 -142h-147z" />
    <glyph glyph-name="uni030C" unicode="&#x30c;" horiz-adv-x="0" 
d="M-450 699h156l46 -64l48 64h155l-99 -142h-208z" />
    <glyph glyph-name="uni0312" unicode="&#x312;" horiz-adv-x="0" 
d="M-189 699h144l-61 -142h-142z" />
    <glyph glyph-name="uni0326" unicode="&#x326;" horiz-adv-x="0" 
d="M-185 -53h140l-59 -140h-137z" />
    <glyph glyph-name="uni0327" unicode="&#x327;" horiz-adv-x="0" 
d="M-187 -143q43 0 43 30q0 16 -22 28.5t-67 19.5l42 75q63 -10 104.5 -41.5t41.5 -85.5q0 -51 -39 -82t-97 -31q-38 0 -73.5 12.5t-57.5 31.5l42 73q38 -30 83 -30z" />
    <glyph glyph-name="uni0328" unicode="&#x328;" horiz-adv-x="0" 
d="M-235 -192q-35 32 -35 82q0 62 48 101t111 50l35 -41q-35 -12 -56.5 -31.5t-21.5 -44.5q0 -19 15 -29.5t41 -10.5q19 0 31 4l22 -97q-13 -7 -35.5 -11t-42.5 -4q-77 0 -112 32z" />
    <glyph glyph-name="uni0394" unicode="&#x394;" horiz-adv-x="725" 
d="M445 699l272 -699h-709l272 699h165zM216 150h285l-143 378z" />
    <glyph glyph-name="uni0394" unicode="&#x3b4;" horiz-adv-x="725" 
d="M445 699l272 -699h-709l272 699h165zM216 150h285l-143 378z" />
    <glyph glyph-name="uni03A9" unicode="&#x3a9;" horiz-adv-x="796" 
d="M689 142h83v-142h-289v142q62 24 99.5 79.5t37.5 127.5q0 63 -29.5 114.5t-80 81.5t-112.5 30t-112.5 -30t-80 -81.5t-29.5 -114.5q0 -72 37.5 -127.5t99.5 -79.5v-142h-289v142h83q-83 88 -83 212q0 96 49.5 179.5t135 133.5t189.5 50t189.5 -50t135 -133.5t49.5 -180.5
q0 -123 -83 -211z" />
    <glyph glyph-name="uni03A9" unicode="&#x3c9;" horiz-adv-x="796" 
d="M689 142h83v-142h-289v142q62 24 99.5 79.5t37.5 127.5q0 63 -29.5 114.5t-80 81.5t-112.5 30t-112.5 -30t-80 -81.5t-29.5 -114.5q0 -72 37.5 -127.5t99.5 -79.5v-142h-289v142h83q-83 88 -83 212q0 96 49.5 179.5t135 133.5t189.5 50t189.5 -50t135 -133.5t49.5 -180.5
q0 -123 -83 -211z" />
    <glyph glyph-name="uni03BC" unicode="&#x3bc;" horiz-adv-x="615" 
d="M548 0h-134v50q-36 -61 -113 -61q-54 0 -90 34v-203h-144v667h144v-283q0 -36 28.5 -61.5t68.5 -25.5t68 25.5t28 61.5v283h144v-487z" />
    <glyph glyph-name="pi" unicode="&#x3c0;" horiz-adv-x="662" 
d="M638 364h-79v-364h-146v364h-155v-364h-147v364h-78v133h605v-133z" />
    <glyph glyph-name="uni0401" unicode="&#x401;" horiz-adv-x="650" 
d="M616 44q-51 -27 -127.5 -42.5t-155.5 -15.5q-120 0 -193.5 49.5t-73.5 164.5v499h522v-140h-372v-124h318v-140h-318v-57q0 -59 36 -82.5t103 -23.5q63 0 122 13t101 34zM124.5 772q-26.5 26 -26.5 61q0 36 26.5 61.5t62.5 25.5t62.5 -25.5t26.5 -61.5q0 -35 -26.5 -61
t-62.5 -26t-62.5 26zM393.5 772q-26.5 26 -26.5 61q0 36 26.5 61.5t62.5 25.5t62.5 -25.5t26.5 -61.5q0 -35 -26.5 -61t-62.5 -26t-62.5 26z" />
    <glyph glyph-name="uni0402" unicode="&#x402;" horiz-adv-x="811" 
d="M707.5 378q73.5 -62 73.5 -188q0 -64 -37 -137.5t-123 -139.5l-107 97q43 31 79 80.5t36 100.5q0 54 -35.5 81t-101.5 27q-68 0 -118 -26v-273h-150v559h-193v140h553v-140h-210v-149q63 30 136 30q124 0 197.5 -62z" />
    <glyph glyph-name="uni0403" unicode="&#x403;" horiz-adv-x="607" 
d="M576 699v-140h-356v-559h-150v699h506zM332 901h161l-87 -142h-153z" />
    <glyph glyph-name="uni0404" unicode="&#x404;" horiz-adv-x="749" 
d="M728 150q-51 -76 -134 -119.5t-182 -43.5q-100 0 -185.5 48.5t-136 131.5t-50.5 183t50.5 183t136 131.5t185.5 48.5q99 0 181.5 -43t133.5 -119l-126 -77q-34 45 -83.5 71t-105.5 26q-70 0 -126.5 -39.5t-80.5 -104.5h279v-140h-283q20 -70 79 -114t132 -44q58 0 108 27
t84 74z" />
    <glyph glyph-name="uni0405" unicode="&#x405;" horiz-adv-x="587" 
d="M197 149q54 -23 102 -23q50 0 80 21t30 57q0 31 -25.5 47t-79.5 31l-59 17q-197 56 -197 202q0 61 32 109.5t89.5 76t129.5 27.5q73 0 140 -24t108 -62l-95 -113q-27 28 -70.5 44.5t-83.5 16.5q-43 0 -70.5 -20t-27.5 -50q0 -25 25.5 -40.5t72.5 -28.5l59 -17
q96 -28 150 -78.5t54 -133.5q0 -63 -34 -114t-93 -80t-133 -29q-80 0 -157.5 29t-125.5 79l89 115q36 -36 90 -59z" />
    <glyph glyph-name="uni0406" unicode="&#x406;" horiz-adv-x="290" 
d="M70 699h150v-699h-150v699z" />
    <glyph glyph-name="uni0407" unicode="&#x407;" horiz-adv-x="290" 
d="M70 699h150v-699h-150v699zM-35 773.5q-26 25.5 -26 60.5q0 36 26 61t62 25t62 -25t26 -61q0 -35 -26 -60.5t-62 -25.5t-62 25.5zM200 773.5q-26 25.5 -26 60.5q0 36 26 61t62 25t62 -25t26 -61q0 -35 -26 -60.5t-62 -25.5t-62 25.5z" />
    <glyph glyph-name="uni0408" unicode="&#x408;" horiz-adv-x="457" 
d="M143 129q48 0 72.5 24.5t24.5 90.5v455h150v-485q0 -120 -65.5 -174.5t-171.5 -54.5q-78 0 -152 28l50 134q49 -18 92 -18z" />
    <glyph glyph-name="uni0409" unicode="&#x409;" horiz-adv-x="1146" 
d="M992 433q58 -29 91 -82t33 -121q0 -66 -31 -118.5t-86 -82t-123 -29.5h-296v559h-198q-7 -212 -45 -332t-106.5 -173t-178.5 -67l-35 140q79 13 124 56t68 141t26 278l2 97h496v-256q60 19 127 19q74 0 132 -29zM933.5 163q30.5 26 30.5 69q0 42 -32 67.5t-91 25.5
q-57 0 -108 -20v-168h112q58 0 88.5 26z" />
    <glyph glyph-name="uni040A" unicode="&#x40a;" horiz-adv-x="1115" 
d="M961 433q58 -29 91 -82t33 -121q0 -66 -31 -118.5t-86 -82t-123 -29.5h-296v292q-80 -33 -165 -33t-164 33v-292h-150v699h150v-254q31 -21 73 -33t91 -12q99 0 165 45v254h150v-257q60 20 130 20q74 0 132 -29zM902.5 163q30.5 26 30.5 69q0 42 -32 67.5t-91 25.5
t-111 -21v-167h115q58 0 88.5 26z" />
    <glyph glyph-name="uni040B" unicode="&#x40b;" horiz-adv-x="836" 
d="M714.5 377.5q71.5 -62.5 71.5 -192.5v-185h-150v168q0 131 -140 131q-66 0 -122 -24v-275h-150v559h-193v140h553v-140h-210v-148q73 29 143 29q126 0 197.5 -62.5z" />
    <glyph glyph-name="uni040C" unicode="&#x40c;" horiz-adv-x="676" 
d="M511 291q59 -65 93.5 -143t40.5 -148h-159q-6 53 -41 122.5t-95 120.5t-134 52v-295h-146v699h146v-281l256 281h196l-291 -311q75 -32 134 -97zM321 901h161l-87 -142h-153z" />
    <glyph glyph-name="uni040E" unicode="&#x40e;" horiz-adv-x="682" 
d="M663 699q-41 -167 -134 -355t-210 -344h-172q63 84 128 186l-261 513h168l180 -360q105 199 145 360h156zM197 776.5q-58 46.5 -60 124.5h131q2 -30 20.5 -51t56.5 -21t56.5 21t20.5 51h131q-2 -78 -60 -124.5t-148 -46.5t-148 46.5z" />
    <glyph glyph-name="uni040F" unicode="&#x40f;" horiz-adv-x="741" 
d="M671 699v-699h-199h-17v-161h-149v167q-89 8 -140.5 30t-75 64t-23.5 112v487h150v-447q0 -48 20 -71t70.5 -32t152.5 -9h61v559h150z" />
    <glyph glyph-name="uni0410" unicode="&#x410;" horiz-adv-x="731" 
d="M563 0l-46 121q-70 -26 -153 -26q-87 0 -157 27l-46 -122h-153l275 699h165l275 -699h-160zM467 252l-106 277l-104 -276q46 -17 107 -17q57 0 103 16z" />
    <glyph glyph-name="uni0411" unicode="&#x411;" horiz-adv-x="641" 
d="M482 433q58 -29 91 -82t33 -121q0 -66 -31 -118.5t-86 -82t-123 -29.5h-296v699h495v-140h-345v-117q60 20 130 20q74 0 132 -29zM423.5 163q30.5 26 30.5 69q0 42 -32 67.5t-91 25.5t-111 -21v-167h115q58 0 88.5 26z" />
    <glyph glyph-name="uni0412" unicode="&#x412;" horiz-adv-x="661" 
d="M596.5 300q26.5 -41 26.5 -93q0 -59 -28.5 -106.5t-81 -74t-121.5 -26.5h-322v699h310q67 0 118.5 -24t79.5 -67t28 -97q0 -47 -21.5 -84.5t-59.5 -61.5q45 -24 71.5 -65zM216 564v-139h159q38 0 60 18.5t22 50.5q0 31 -23 50.5t-60 19.5h-158zM449.5 157.5
q24.5 22.5 24.5 57.5q0 36 -25 57.5t-69 21.5h-164v-159h168q41 0 65.5 22.5z" />
    <glyph glyph-name="uni0413" unicode="&#x413;" horiz-adv-x="607" 
d="M576 699v-140h-356v-559h-150v699h506z" />
    <glyph glyph-name="uni0414" unicode="&#x414;" horiz-adv-x="873" 
d="M838 140v-301h-148v161h-504v-161h-148v302q60 16 96.5 47t62.5 127t30 287l2 97h489v-559h120zM568 140v419h-194q-6 -165 -30.5 -265t-67.5 -154h292z" />
    <glyph glyph-name="uni0415" unicode="&#x415;" horiz-adv-x="650" 
d="M616 44q-51 -27 -127.5 -42.5t-155.5 -15.5q-120 0 -193.5 49.5t-73.5 164.5v499h522v-140h-372v-124h318v-140h-318v-57q0 -59 36 -82.5t103 -23.5q63 0 122 13t101 34z" />
    <glyph glyph-name="uni0416" unicode="&#x416;" horiz-adv-x="988" 
d="M844 288q50 -62 79 -137.5t35 -150.5h-160q-5 65 -34.5 131.5t-79.5 112t-113 51.5h-4v-295h-146v295h-4q-63 -6 -112.5 -51.5t-79 -111.5t-35.5 -132h-160q6 75 35 150.5t79 137.5t114 95l-240 316h190l213 -290v290h146v-290l213 290h190l-240 -316q64 -33 114 -95z
" />
    <glyph glyph-name="uni0417" unicode="&#x417;" horiz-adv-x="603" 
d="M536 300.5q29 -41.5 29 -94.5q0 -64 -33 -114t-93 -78t-140 -28q-86 0 -160.5 30t-120.5 77l88 114q34 -35 87.5 -58t105.5 -23q53 0 84 23t31 60t-33 60t-95 23h-71v138h70q59 0 87 20t28 54q0 31 -28.5 51.5t-77.5 20.5q-44 0 -87.5 -18t-74.5 -49l-90 110
q47 45 116 70t141 25q73 0 130.5 -24.5t89.5 -68.5t32 -101q0 -49 -25.5 -88t-71.5 -64q53 -26 82 -67.5z" />
    <glyph glyph-name="uni0418" unicode="&#x418;" horiz-adv-x="776" 
d="M706 699v-699h-150v505q-74 -82 -171 -230.5t-151 -274.5h-164v699h150v-449q57 112 153 240.5t180 208.5h153z" />
    <glyph glyph-name="uni0419" unicode="&#x419;" horiz-adv-x="776" 
d="M706 699v-699h-150v505q-74 -82 -171 -230.5t-151 -274.5h-164v699h150v-449q57 112 153 240.5t180 208.5h153zM240 776.5q-58 46.5 -60 124.5h131q2 -30 20.5 -51t56.5 -21t56.5 21t20.5 51h131q-2 -78 -60 -124.5t-148 -46.5t-148 46.5z" />
    <glyph glyph-name="uni041A" unicode="&#x41a;" horiz-adv-x="676" 
d="M511 291q59 -65 93.5 -143t40.5 -148h-159q-6 53 -41 122.5t-95 120.5t-134 52v-295h-146v699h146v-281l256 281h196l-291 -311q75 -32 134 -97z" />
    <glyph glyph-name="uni041B" unicode="&#x41b;" horiz-adv-x="803" 
d="M733 0h-150v559h-201q-7 -212 -45 -332t-106.5 -173t-178.5 -67l-35 140q79 13 124 56t68 141t26 278l2 97h496v-699z" />
    <glyph glyph-name="uni041C" unicode="&#x41c;" horiz-adv-x="896" 
d="M686 0l-28 491q-50 -136 -146 -303h-132q-96 171 -146 306l-28 -494h-145l39 699h190q62 -165 157 -343q90 169 157 343h191l40 -699h-149z" />
    <glyph glyph-name="uni041D" unicode="&#x41d;" horiz-adv-x="769" 
d="M699 699v-699h-150v292q-80 -33 -165 -33t-164 33v-292h-150v699h150v-254q31 -21 73 -33t91 -12q99 0 165 45v254h150z" />
    <glyph glyph-name="uni041E" unicode="&#x41e;" horiz-adv-x="824" 
d="M226.5 35.5q-85.5 48.5 -136 131.5t-50.5 183t50.5 183t136 131.5t185.5 48.5t185.5 -48.5t136 -131.5t50.5 -183t-50.5 -183t-136 -131.5t-185.5 -48.5t-185.5 48.5zM521.5 158q50.5 29 80.5 79.5t30 112.5t-30 112.5t-80.5 79.5t-109.5 29t-109.5 -29t-80.5 -79.5
t-30 -112.5t30 -112.5t80.5 -79.5t109.5 -29t109.5 29z" />
    <glyph glyph-name="uni041F" unicode="&#x41f;" horiz-adv-x="752" 
d="M682 699v-699h-150v559h-312v-559h-150v699h612z" />
    <glyph glyph-name="uni0420" unicode="&#x420;" horiz-adv-x="650" 
d="M494 667.5q60 -31.5 93 -86t33 -122.5q0 -71 -35.5 -127.5t-96.5 -88t-136 -31.5q-74 0 -132 18v-230h-150v699h288q76 0 136 -31.5zM433.5 381q34.5 31 34.5 78q0 45 -33.5 72.5t-88.5 27.5h-126v-188q53 -21 114 -21q65 0 99.5 31z" />
    <glyph glyph-name="uni0421" unicode="&#x421;" horiz-adv-x="749" 
d="M226.5 35.5q-85.5 48.5 -136 131.5t-50.5 183t50.5 183t136 131.5t185.5 48.5q99 0 181.5 -43t133.5 -119l-126 -77q-34 45 -83.5 71t-105.5 26q-59 0 -109.5 -29t-80.5 -79.5t-30 -112.5t30 -112.5t80.5 -79.5t109.5 -29q58 0 108 27t84 74l124 -80q-51 -76 -134 -119.5
t-182 -43.5q-100 0 -185.5 48.5z" />
    <glyph glyph-name="uni0422" unicode="&#x422;" horiz-adv-x="632" 
d="M241 559h-210v140h570v-140h-210v-559h-150v559z" />
    <glyph glyph-name="uni0423" unicode="&#x423;" horiz-adv-x="682" 
d="M663 699q-41 -167 -134 -355t-210 -344h-172q63 84 128 186l-261 513h168l180 -360q105 199 145 360h156z" />
    <glyph glyph-name="uni0424" unicode="&#x424;" horiz-adv-x="878" 
d="M797.5 197q-40.5 -66 -114 -103.5t-170.5 -39.5v-76h-146v76q-96 2 -170.5 39.5t-115.5 103.5t-41 152t41 152.5t115.5 104t170.5 39.5v76h146v-76q97 -2 170.5 -40t114 -104t40.5 -152t-40.5 -152zM238 237.5q47 -43.5 129 -46.5v317q-83 -3 -129.5 -46.5t-46.5 -112.5
q0 -68 47 -111.5zM641 237.5q46 43.5 46 111.5q0 69 -46 112t-128 47v-317q82 3 128 46.5z" />
    <glyph glyph-name="uni0425" unicode="&#x425;" horiz-adv-x="694" 
d="M503 0q-57 150 -156 269q-99 -119 -156 -269h-166q32 98 85 189.5t119 168.5q-135 165 -190 341h163q53 -138 145 -255q92 117 145 255h163q-55 -176 -190 -341q66 -77 119 -168.5t85 -189.5h-166z" />
    <glyph glyph-name="uni0426" unicode="&#x426;" horiz-adv-x="807" 
d="M772 140v-301h-148v161h-152q-158 0 -243 17t-123.5 62t-38.5 133v487h150v-447q0 -48 20 -71t70.5 -32t152.5 -9h61v559h150v-559h101z" />
    <glyph glyph-name="uni0427" unicode="&#x427;" horiz-adv-x="690" 
d="M620 699v-699h-150v281q-59 -25 -134 -25q-137 0 -211.5 64t-74.5 198v181h150v-164q0 -138 144 -138q68 0 126 28v274h150z" />
    <glyph glyph-name="uni0428" unicode="&#x428;" horiz-adv-x="1023" 
d="M953 699v-699h-432q-175 0 -271 17.5t-139.5 63.5t-43.5 135v483h150v-443q0 -43 15.5 -65t61.5 -34t141 -15v557h150v-559h218v559h150z" />
    <glyph glyph-name="uni0429" unicode="&#x429;" horiz-adv-x="1090" 
d="M1055 140v-301h-148v161h-386q-175 0 -271 17.5t-139.5 63.5t-43.5 135v483h150v-443q0 -43 15.5 -65t61.5 -34t141 -15v557h150v-559h218v559h150v-559h102z" />
    <glyph glyph-name="uni042A" unicode="&#x42a;" horiz-adv-x="787" 
d="M633 433q58 -29 91 -82t33 -121q0 -66 -31 -118.5t-86 -82t-123 -29.5h-296v557h-190v142h340v-257q60 20 130 20q74 0 132 -29zM574.5 163q30.5 26 30.5 69q0 42 -32 67.5t-91 25.5t-111 -21v-167h115q58 0 88.5 26z" />
    <glyph glyph-name="uni042B" unicode="&#x42b;" horiz-adv-x="918" 
d="M482 433q58 -29 91 -82t33 -121q0 -66 -31 -118.5t-86 -82t-123 -29.5h-296v699h150v-257q60 20 130 20q74 0 132 -29zM423.5 163q30.5 26 30.5 69q0 42 -32 67.5t-91 25.5t-111 -21v-167h115q58 0 88.5 26zM698 699h150v-699h-150v699z" />
    <glyph glyph-name="uni042C" unicode="&#x42c;" horiz-adv-x="636" 
d="M482 433q58 -29 91 -82t33 -121q0 -66 -31 -118.5t-86 -82t-123 -29.5h-296v699h150v-257q60 20 130 20q74 0 132 -29zM423.5 163q30.5 26 30.5 69q0 42 -32 67.5t-91 25.5t-111 -21v-167h115q58 0 88.5 26z" />
    <glyph glyph-name="uni042D" unicode="&#x42d;" horiz-adv-x="749" 
d="M522.5 664.5q85.5 -48.5 136 -131.5t50.5 -183t-50.5 -183t-136 -131.5t-185.5 -48.5q-99 0 -182 43.5t-134 119.5l124 80q34 -47 84 -74t108 -27q73 0 132 44t79 114h-283v140h279q-24 65 -80.5 104.5t-126.5 39.5q-56 0 -105.5 -26t-83.5 -71l-126 77q51 76 133.5 119
t181.5 43q100 0 185.5 -48.5z" />
    <glyph glyph-name="uni042E" unicode="&#x42e;" horiz-adv-x="1074" 
d="M847.5 664.5q85.5 -48.5 136 -131.5t50.5 -183t-50.5 -183t-136 -131.5t-185.5 -48.5q-90 0 -169 39.5t-131.5 108.5t-66.5 155h-75v-290h-150v699h150v-271h79q18 82 70.5 147t129 101.5t163.5 36.5q100 0 185.5 -48.5zM771.5 158q50.5 29 80.5 79.5t30 112.5t-30 112.5
t-80.5 79.5t-109.5 29t-109.5 -29t-80.5 -79.5t-30 -112.5t30 -112.5t80.5 -79.5t109.5 -29t109.5 29z" />
    <glyph glyph-name="uni042F" unicode="&#x42f;" horiz-adv-x="669" 
d="M599 0h-146v243h-42q-103 0 -153.5 -74t-61.5 -169h-153q5 85 39.5 159t95.5 123q-59 24 -94 75.5t-35 118.5q0 64 33.5 115t90.5 79.5t126 28.5h300v-699zM453 372v187h-142q-49 0 -79.5 -25.5t-30.5 -67.5q0 -43 30 -68.5t80 -25.5h142z" />
    <glyph glyph-name="uni0430" unicode="&#x430;" horiz-adv-x="637" 
d="M571 487v-487h-142v49q-57 -62 -147 -62q-68 0 -124.5 32.5t-89 91t-32.5 132.5t32.5 133t89 91.5t124.5 32.5q90 0 147 -62v49h142zM396 150q36 37 36 93q0 55 -36 93t-89 38t-89 -37.5t-36 -93.5t36 -93t89 -37t89 37z" />
    <glyph glyph-name="uni0431" unicode="&#x431;" horiz-adv-x="626" 
d="M472 439.5q54 -31.5 86 -86t32 -118.5q0 -68 -35 -125t-95 -90t-131 -33q-77 0 -141.5 35t-103 109t-38.5 184q0 155 57.5 243.5t196.5 118.5l31 7q59 12 99 23t74 27l31 -138q-29 -14 -61.5 -22t-80.5 -16q-11 -1 -31 -5q-63 -11 -99 -30t-52.5 -49t-21.5 -77
q26 35 68.5 54.5t96.5 19.5q64 0 118 -31.5zM412.5 148.5q33.5 32.5 33.5 82.5t-33.5 82.5t-83.5 32.5t-83.5 -32.5t-33.5 -82.5t33.5 -82.5t83.5 -32.5t83.5 32.5z" />
    <glyph glyph-name="uni0432" unicode="&#x432;" horiz-adv-x="550" 
d="M490 210.5q19 -28.5 19 -66.5q0 -65 -45.5 -104.5t-119.5 -39.5h-278v487h272q67 0 112 -36t45 -94q0 -65 -57 -101q33 -17 52 -45.5zM206 372v-78h108q21 0 32.5 11t11.5 29q0 16 -12.5 27t-31.5 11h-108zM352.5 127q12.5 12 12.5 29t-12.5 29.5t-33.5 12.5h-113v-83
h113q21 0 33.5 12z" />
    <glyph glyph-name="uni0433" unicode="&#x433;" horiz-adv-x="476" 
d="M440 487v-126h-230v-361h-144v487h374z" />
    <glyph glyph-name="uni0434" unicode="&#x434;" horiz-adv-x="696" 
d="M668 126v-262h-144v136h-348v-136h-144v262q41 12 70 42t46.5 94.5t19.5 171.5l1 53h397v-361h102zM422 126v235h-119q-11 -156 -65 -235h184z" />
    <glyph glyph-name="uni0435" unicode="&#x435;" 
d="M430 465.5q60 -34.5 92 -95.5t27 -137l-353 -65q37 -54 119 -54q76 0 144 51l75 -103q-51 -42 -105.5 -59t-114.5 -17q-80 0 -143.5 33t-99 91.5t-35.5 131.5q0 71 34 130t93.5 93.5t132.5 34.5q74 0 134 -34.5zM217.5 351.5q-31.5 -27.5 -40.5 -73.5l222 41
q-15 28 -42 44t-62 16q-46 0 -77.5 -27.5z" />
    <glyph glyph-name="uni0436" unicode="&#x436;" horiz-adv-x="854" 
d="M764 158.5q44 -75.5 53 -158.5h-147q-5 43 -28 89.5t-60.5 80.5t-84.5 38v-208h-140v208q-47 -4 -84.5 -38t-60.5 -80.5t-28 -89.5h-147q9 83 53 158.5t107 115.5l-173 213h179l154 -202v202h140v-202l154 202h179l-173 -213q63 -40 107 -115.5z" />
    <glyph glyph-name="uni0437" unicode="&#x437;" horiz-adv-x="503" 
d="M442 209.5q20 -28.5 20 -64.5q0 -45 -25.5 -81t-73 -56.5t-110.5 -20.5q-76 0 -133.5 22t-93.5 58l78 95q25 -22 64 -38t77 -16t56.5 12.5t18.5 32.5t-22.5 32t-67.5 12h-37v105h34q77 0 77 42q0 16 -16.5 26.5t-47.5 10.5q-32 0 -66 -13.5t-57 -34.5l-73 99
q35 33 90 51.5t114 18.5q94 0 148.5 -38.5t54.5 -103.5t-65 -104q36 -18 56 -46.5z" />
    <glyph glyph-name="uni0438" unicode="&#x438;" horiz-adv-x="633" 
d="M567 487v-487h-144v326q-54 -64 -112.5 -156.5t-88.5 -169.5h-156v487h144v-283q41 74 100 153t111 130h146z" />
    <glyph glyph-name="uni0439" unicode="&#x439;" horiz-adv-x="633" 
d="M567 487v-487h-144v326q-54 -64 -112.5 -156.5t-88.5 -169.5h-156v487h144v-283q41 74 100 153t111 130h146zM172 574.5q-58 46.5 -60 124.5h131q2 -30 20.5 -51t56.5 -21t56.5 21t20.5 51h131q-2 -78 -60 -124.5t-148 -46.5t-148 46.5z" />
    <glyph glyph-name="uni043A" unicode="&#x43a;" horiz-adv-x="573" 
d="M486.5 168q48.5 -80 58.5 -168h-151q-5 44 -29 92.5t-64 84t-91 41.5v-218h-144v487h144v-184l163 184h183l-187 -200q69 -39 117.5 -119z" />
    <glyph glyph-name="uni043B" unicode="&#x43b;" horiz-adv-x="650" 
d="M584 0h-144v361h-126q-9 -138 -42.5 -217t-88.5 -113t-136 -43l-32 123q54 12 88 40.5t54 95t22 187.5l1 53h404v-487z" />
    <glyph glyph-name="uni043C" unicode="&#x43c;" horiz-adv-x="730" 
d="M541 0l-23 322q-40 -102 -101 -207h-106q-61 110 -98 205l-24 -320h-133l33 487h172q42 -112 104 -231q62 119 104 231h171l34 -487h-133z" />
    <glyph glyph-name="uni043D" unicode="&#x43d;" horiz-adv-x="628" 
d="M562 487v-487h-144v184q-51 -15 -104 -15q-55 0 -104 15v-184h-144v487h144v-170q45 -20 104 -20t104 20v170h144z" />
    <glyph glyph-name="uni043E" unicode="&#x43e;" horiz-adv-x="610" 
d="M168.5 20.5q-61.5 33.5 -97 92t-35.5 130.5t35.5 131t97 92.5t136.5 33.5t136.5 -33.5t97 -92.5t35.5 -131t-35.5 -130.5t-97 -92t-136.5 -33.5t-136.5 33.5zM392.5 152q35.5 36 35.5 91t-35.5 91.5t-87.5 36.5t-87.5 -36.5t-35.5 -91.5t35.5 -91t87.5 -36t87.5 36z" />
    <glyph glyph-name="uni043F" unicode="&#x43f;" horiz-adv-x="619" 
d="M553 487v-487h-144v355h-199v-355h-144v487h487z" />
    <glyph glyph-name="uni0440" unicode="&#x440;" horiz-adv-x="638" 
d="M480.5 467.5q56.5 -32.5 89 -91.5t32.5 -133t-32.5 -132.5t-89 -91t-124.5 -32.5q-90 0 -146 61v-248h-144v687h142v-50q57 63 148 63q68 0 124.5 -32.5zM420 150q36 37 36 93t-36 93.5t-89 37.5t-89 -38t-36 -93q0 -56 36 -93t89 -37t89 37z" />
    <glyph glyph-name="uni0441" unicode="&#x441;" horiz-adv-x="553" 
d="M167.5 19.5q-61.5 33.5 -96.5 92.5t-35 131t35 131t96.5 92.5t136.5 33.5q74 0 133 -29.5t95 -81.5l-112 -76q-47 58 -116 58q-51 0 -86.5 -37t-35.5 -91t35.5 -91t86.5 -37q73 0 120 63l109 -79q-37 -53 -95 -83t-134 -30q-75 0 -136.5 33.5z" />
    <glyph glyph-name="uni0442" unicode="&#x442;" horiz-adv-x="528" 
d="M492 487v-126h-156v-361h-144v361h-156v126h456z" />
    <glyph glyph-name="uni0443" unicode="&#x443;" horiz-adv-x="602" 
d="M577 487q-47 -187 -144 -381.5t-214 -326.5l-116 73q69 81 120 160l-207 475h160l134 -319q68 141 113 319h154z" />
    <glyph glyph-name="uni0444" unicode="&#x444;" horiz-adv-x="746" 
d="M674 115.5q-36 -57.5 -97 -91t-135 -35.5v-189h-138v189q-74 2 -135 35.5t-97 91t-36 127.5q0 71 36 128t97 90.5t135 35.5v202h138v-202q74 -2 135 -35.5t97 -90.5t36 -128q0 -70 -36 -127.5zM216.5 155q34.5 -34 87.5 -36v249q-53 -2 -87.5 -36.5t-34.5 -88.5t34.5 -88
zM529.5 156q34.5 34 34.5 87q0 54 -34.5 88.5t-87.5 36.5v-248q53 2 87.5 36z" />
    <glyph glyph-name="uni0445" unicode="&#x445;" horiz-adv-x="571" 
d="M391 0q-34 93 -105 179q-72 -85 -106 -179h-156q39 126 145 246q-103 119 -139 241h156q33 -89 99 -172q66 82 100 172h156q-36 -122 -139 -239q108 -124 145 -248h-156z" />
    <glyph glyph-name="uni0446" unicode="&#x446;" horiz-adv-x="662" 
d="M634 -136h-144v136h-94q-129 0 -199.5 15t-102 54t-31.5 116v302h144v-269q0 -39 13.5 -58.5t46.5 -26.5t99 -7h35v361h144v-361h89v-262z" />
    <glyph glyph-name="uni0447" unicode="&#x447;" horiz-adv-x="588" 
d="M522 487v-487h-144v152q-50 -15 -103 -15q-102 0 -165 50.5t-63 156.5v143h144v-121q0 -49 24.5 -75.5t82.5 -26.5q43 0 80 15v208h144z" />
    <glyph glyph-name="uni0448" unicode="&#x448;" horiz-adv-x="851" 
d="M785 487v-487h-389q-130 0 -200 15t-101.5 54t-31.5 116v302h144v-269q0 -38 12 -57t42.5 -26.5t90.5 -8.5v361h144v-361h145v361h144z" />
    <glyph glyph-name="uni0449" unicode="&#x449;" horiz-adv-x="888" 
d="M860 126v-262h-144v136h-320q-130 0 -200 15t-101.5 54t-31.5 116v302h144v-269q0 -38 12 -57t42.5 -26.5t90.5 -8.5v361h144v-361h145v361h144v-361h75z" />
    <glyph glyph-name="uni044A" unicode="&#x44a;" horiz-adv-x="647" 
d="M532.5 327.5q44.5 -23.5 68 -63t23.5 -86.5q0 -48 -23 -89t-63.5 -65t-91.5 -24h-264v361h-146v126h290v-153q43 17 100 17q62 0 106.5 -23.5zM465.5 133q19.5 15 19.5 41q0 28 -20 44.5t-60 16.5q-46 0 -79 -12v-105h90q30 0 49.5 15z" />
    <glyph glyph-name="uni044B" unicode="&#x44b;" horiz-adv-x="786" 
d="M416.5 327.5q44.5 -23.5 68 -63t23.5 -86.5q0 -48 -23 -89t-63.5 -65t-91.5 -24h-264v487h144v-153q43 17 100 17q62 0 106.5 -23.5zM349.5 133q19.5 15 19.5 41q0 28 -20 44.5t-60 16.5q-46 0 -79 -12v-105h90q30 0 49.5 15zM576 487h144v-487h-144v487z" />
    <glyph glyph-name="uni044C" unicode="&#x44c;" horiz-adv-x="531" 
d="M416.5 327.5q44.5 -23.5 68 -63t23.5 -86.5q0 -48 -23 -89t-63.5 -65t-91.5 -24h-264v487h144v-153q43 17 100 17q62 0 106.5 -23.5zM349.5 133q19.5 15 19.5 41q0 28 -20 44.5t-60 16.5q-46 0 -79 -12v-105h90q30 0 49.5 15z" />
    <glyph glyph-name="uni044D" unicode="&#x44d;" horiz-adv-x="553" 
d="M385.5 466.5q61.5 -33.5 96.5 -92.5t35 -131t-35 -131t-96.5 -92.5t-136.5 -33.5q-76 0 -134 30t-95 83l109 79q47 -63 120 -63q39 0 69.5 22.5t44.5 58.5h-177v107h171q-15 31 -44 49.5t-64 18.5q-69 0 -116 -58l-112 76q36 52 95 81.5t133 29.5q75 0 136.5 -33.5z" />
    <glyph glyph-name="uni044E" unicode="&#x44e;" horiz-adv-x="826" 
d="M657.5 466.5q61.5 -33.5 97 -92.5t35.5 -131t-35.5 -130.5t-97 -92t-136.5 -33.5q-66 0 -121.5 26t-93 72t-49.5 105h-47v-190h-144v487h144v-171h52q24 82 95 133t164 51q75 0 136.5 -33.5zM608.5 152q35.5 36 35.5 91t-35.5 91.5t-87.5 36.5t-87.5 -36.5t-35.5 -91.5
t35.5 -91t87.5 -36t87.5 36z" />
    <glyph glyph-name="uni044F" unicode="&#x44f;" horiz-adv-x="558" 
d="M492 0h-138v165h-7q-74 0 -109 -48.5t-45 -116.5h-147q3 61 29.5 113.5t74.5 86.5q-44 17 -70 51.5t-26 79.5t23.5 80.5t63 55.5t87.5 20h264v-487zM354 278v93h-95q-25 0 -41 -13t-16 -34t15.5 -33.5t41.5 -12.5h95z" />
    <glyph glyph-name="uni0451" unicode="&#x451;" 
d="M430 465.5q60 -34.5 92 -95.5t27 -137l-353 -65q37 -54 119 -54q76 0 144 51l75 -103q-51 -42 -105.5 -59t-114.5 -17q-80 0 -143.5 33t-99 91.5t-35.5 131.5q0 71 34 130t93.5 93.5t132.5 34.5q74 0 134 -34.5zM217.5 351.5q-31.5 -27.5 -40.5 -73.5l222 41
q-15 28 -42 44t-62 16q-46 0 -77.5 -27.5zM120 571.5q-26 25.5 -26 60.5q0 36 26 61t62 25t62 -25t26 -61q0 -35 -26 -60.5t-62 -25.5t-62 25.5zM355 571.5q-26 25.5 -26 60.5q0 36 26 61t62 25t62 -25t26 -61q0 -35 -26 -60.5t-62 -25.5t-62 25.5z" />
    <glyph glyph-name="uni0452" unicode="&#x452;" horiz-adv-x="610" 
d="M501 423.5q49 -56.5 49 -157.5v-132q0 -109 -34 -193t-115 -154l-111 91q45 43 79.5 104t34.5 160v101q0 54 -25 81t-65 27q-44 0 -73.5 -30.5t-29.5 -79.5v-241h-144v516h-84v117h84v66h144v-66h128v-117h-128v-97q58 61 155 61q86 0 135 -56.5z" />
    <glyph glyph-name="uni0453" unicode="&#x453;" horiz-adv-x="476" 
d="M440 487v-126h-230v-361h-144v487h374zM257 699h161l-87 -142h-153z" />
    <glyph glyph-name="uni0454" unicode="&#x454;" horiz-adv-x="553" 
d="M533 99q-37 -53 -95 -83t-134 -30q-75 0 -136.5 33.5t-96.5 92.5t-35 131t35 131t96.5 92.5t136.5 33.5q74 0 133 -29.5t95 -81.5l-112 -76q-47 58 -116 58q-35 0 -64 -18.5t-44 -49.5h171v-107h-177q14 -36 44.5 -58.5t69.5 -22.5q73 0 120 63z" />
    <glyph glyph-name="uni0455" unicode="&#x455;" horiz-adv-x="487" 
d="M169.5 125.5q42.5 -16.5 84.5 -16.5q60 0 60 33q0 15 -18 24t-58 19l-41 10q-71 17 -110.5 52t-39.5 95q0 44 25 80.5t70 58t102 21.5q62 0 114.5 -18.5t85.5 -46.5l-74 -102q-25 21 -59 32t-64 11q-27 0 -41.5 -8t-14.5 -20q0 -13 13.5 -20.5t44.5 -15.5l38 -10
q84 -22 126 -55.5t42 -97.5q0 -48 -24 -85.5t-68.5 -58.5t-104.5 -21q-71 0 -133.5 20.5t-105.5 58.5l80 100q28 -23 70.5 -39.5z" />
    <glyph glyph-name="uni0456" unicode="&#x456;" horiz-adv-x="278" 
d="M67 487h144v-487h-144v487zM75 568.5q-27 26.5 -27 63.5t26.5 63.5t64.5 26.5t64.5 -26.5t26.5 -63.5t-27 -63.5t-64 -26.5t-64 26.5z" />
    <glyph glyph-name="uni0457" unicode="&#x457;" horiz-adv-x="278" 
d="M-30 571.5q-26 25.5 -26 60.5q0 36 26 61t62 25t62 -25t26 -61q0 -35 -26 -60.5t-62 -25.5t-62 25.5zM183 571.5q-26 25.5 -26 60.5q0 36 26 61t62 25t62 -25t26 -61q0 -35 -26 -60.5t-62 -25.5t-62 25.5zM211 487v-487h-144v487h144z" />
    <glyph glyph-name="uni0458" unicode="&#x458;" horiz-adv-x="279" 
d="M185.5 -29q-26.5 -98 -72.5 -174l-129 52q41 74 61.5 156t20.5 213v269h146v-284q0 -134 -26.5 -232zM75 568.5q-27 26.5 -27 63.5t26.5 63.5t64.5 26.5t64.5 -26.5t26.5 -63.5t-27 -63.5t-64 -26.5t-64 26.5z" />
    <glyph glyph-name="uni0459" unicode="&#x459;" horiz-adv-x="926" 
d="M811.5 327.5q44.5 -23.5 68 -63t23.5 -86.5q0 -48 -23 -89t-63.5 -65t-91.5 -24h-264v361h-126q-9 -138 -42.5 -217t-88.5 -113t-136 -43l-32 123q54 12 88 40.5t54 95t22 187.5l1 53h404v-153q43 17 100 17q62 0 106.5 -23.5zM744.5 133q19.5 15 19.5 41q0 28 -20 44.5
t-60 16.5q-46 0 -79 -12v-105h90q30 0 49.5 15z" />
    <glyph glyph-name="uni045A" unicode="&#x45a;" horiz-adv-x="883" 
d="M768.5 327.5q44.5 -23.5 68 -63t23.5 -86.5q0 -48 -23 -89t-63.5 -65t-91.5 -24h-264v184q-51 -15 -104 -15q-55 0 -104 15v-184h-144v487h144v-170q45 -20 104 -20t104 20v170h144v-153q43 17 100 17q62 0 106.5 -23.5zM701.5 133q19.5 15 19.5 41q0 28 -20 44.5
t-60 16.5q-46 0 -79 -12v-105h90q30 0 49.5 15z" />
    <glyph glyph-name="uni045B" unicode="&#x45b;" horiz-adv-x="610" 
d="M500.5 427.5q49.5 -52.5 49.5 -138.5v-289h-146v261q0 42 -25.5 66t-64.5 24q-44 0 -73.5 -30.5t-29.5 -79.5v-241h-144v516h-84v117h84v66h144v-66h128v-117h-128v-97q58 61 155 61q85 0 134.5 -52.5z" />
    <glyph glyph-name="uni045C" unicode="&#x45c;" horiz-adv-x="573" 
d="M486.5 168q48.5 -80 58.5 -168h-151q-5 44 -29 92.5t-64 84t-91 41.5v-218h-144v487h144v-184l163 184h183l-187 -200q69 -39 117.5 -119zM291 699h161l-87 -142h-153z" />
    <glyph glyph-name="uni045E" unicode="&#x45e;" horiz-adv-x="602" 
d="M577 487q-47 -187 -144 -381.5t-214 -326.5l-116 73q69 81 120 160l-207 475h160l134 -319q68 141 113 319h154zM149 574.5q-58 46.5 -60 124.5h131q2 -30 20.5 -51t56.5 -21t56.5 21t20.5 51h131q-2 -78 -60 -124.5t-148 -46.5t-148 46.5z" />
    <glyph glyph-name="uni045F" unicode="&#x45f;" horiz-adv-x="611" 
d="M545 487v-487h-149h-8v-136h-144v143q-67 8 -106 28t-57 55.5t-18 94.5v302h144v-269q0 -39 13 -58.5t46 -26.5t100 -7h35v361h144z" />
    <glyph glyph-name="uni0490" unicode="&#x490;" horiz-adv-x="607" 
d="M428 850h148v-291h-356v-559h-150v699h358v151z" />
    <glyph glyph-name="uni0491" unicode="&#x491;" horiz-adv-x="513" 
d="M333 628h144v-267h-267v-361h-144v487h267v141z" />
    <glyph glyph-name="uni04D8" unicode="&#x4d8;" horiz-adv-x="807" 
d="M582 664.5q85 -48.5 135 -131.5t50 -183q0 -99 -50 -182.5t-135.5 -132t-186.5 -48.5q-100 0 -183 48t-131 131t-48 183q0 12 2 36h578q-8 53 -38.5 95.5t-77.5 66t-102 23.5q-111 0 -182 -83l-113 92q56 65 131.5 99.5t163.5 34.5q102 0 187 -48.5zM526 168
q55 39 77 103h-407q20 -63 73.5 -102.5t127.5 -39.5t129 39z" />
    <glyph glyph-name="uni04D9" unicode="&#x4d9;" 
d="M416.5 468q62.5 -33 97.5 -91t35 -131q0 -71 -33 -130.5t-92 -94t-133 -34.5q-75 0 -133.5 32.5t-90.5 89t-32 127.5q0 33 5 55h363q-13 39 -47.5 60.5t-85.5 21.5q-77 0 -144 -50l-75 102q51 42 106 59t116 17q81 0 143.5 -33zM360 129.5q29 21.5 42 57.5h-224
q12 -36 41.5 -57.5t71.5 -21.5q40 0 69 21.5z" />
    <glyph glyph-name="Wgrave" unicode="&#x1e80;" horiz-adv-x="1084" 
d="M1064 699l-208 -699h-188q-56 239 -128 472q-64 -210 -128 -472h-184l-208 699h161l146 -506q55 233 139 476h148q89 -244 147 -477l143 507h160zM473 759l-88 142h161l79 -142h-152z" />
    <glyph glyph-name="wgrave" unicode="&#x1e81;" horiz-adv-x="889" 
d="M879 465q-56 -78 -117.5 -211.5t-99.5 -253.5h-141l-91 262l-95 -262h-138l-182 487h154l105 -304l97 274h122l96 -269q24 80 74.5 184.5t92.5 157.5zM358 557l-88 142h161l79 -142h-152z" />
    <glyph glyph-name="Wacute" unicode="&#x1e82;" horiz-adv-x="1084" 
d="M1064 699l-208 -699h-188q-56 239 -128 472q-64 -210 -128 -472h-184l-208 699h161l146 -506q55 233 139 476h148q89 -244 147 -477l143 507h160zM544 901h161l-87 -142h-153z" />
    <glyph glyph-name="wacute" unicode="&#x1e83;" horiz-adv-x="889" 
d="M879 465q-56 -78 -117.5 -211.5t-99.5 -253.5h-141l-91 262l-95 -262h-138l-182 487h154l105 -304l97 274h122l96 -269q24 80 74.5 184.5t92.5 157.5zM429 699h161l-87 -142h-153z" />
    <glyph glyph-name="Wdieresis" unicode="&#x1e84;" horiz-adv-x="1084" 
d="M1064 699l-208 -699h-188q-56 239 -128 472q-64 -210 -128 -472h-184l-208 699h161l146 -506q55 233 139 476h148q89 -244 147 -477l143 507h160zM347.5 772q-26.5 26 -26.5 61q0 36 26.5 61.5t62.5 25.5t62.5 -25.5t26.5 -61.5q0 -35 -26.5 -61t-62.5 -26t-62.5 26z
M616.5 772q-26.5 26 -26.5 61q0 36 26.5 61.5t62.5 25.5t62.5 -25.5t26.5 -61.5q0 -35 -26.5 -61t-62.5 -26t-62.5 26z" />
    <glyph glyph-name="wdieresis" unicode="&#x1e85;" horiz-adv-x="889" 
d="M879 465q-56 -78 -117.5 -211.5t-99.5 -253.5h-141l-91 262l-95 -262h-138l-182 487h154l105 -304l97 274h122l96 -269q24 80 74.5 184.5t92.5 157.5zM250 571.5q-26 25.5 -26 60.5q0 36 26 61t62 25t62 -25t26 -61q0 -35 -26 -60.5t-62 -25.5t-62 25.5zM485 571.5
q-26 25.5 -26 60.5q0 36 26 61t62 25t62 -25t26 -61q0 -35 -26 -60.5t-62 -25.5t-62 25.5z" />
    <glyph glyph-name="uni1E9E" unicode="&#x1e9e;" horiz-adv-x="787" 
d="M711.5 332q55.5 -51 55.5 -134q0 -62 -31.5 -110.5t-85.5 -75.5t-119 -27q-84 0 -142 17t-111 53l68 127q34 -24 79 -40t94 -16q39 0 68 19.5t29 52.5q0 30 -24 49.5t-76 35t-151 35.5v118l119 123h-264v-559h-150v699h608v-134l-141 -148q119 -34 174.5 -85z" />
    <glyph glyph-name="Ygrave" unicode="&#x1ef2;" horiz-adv-x="652" 
d="M543.5 473.5q-62.5 -108.5 -142.5 -199.5v-274h-150v276q-80 90 -143 198.5t-94 224.5h163q23 -74 62.5 -151t87.5 -133q49 55 88.5 132.5t62.5 151.5h160q-32 -117 -94.5 -225.5zM254 759l-88 142h161l79 -142h-152z" />
    <glyph glyph-name="ygrave" unicode="&#x1ef3;" horiz-adv-x="602" 
d="M577 487q-47 -187 -144 -381.5t-214 -326.5l-116 73q69 81 120 160l-207 475h160l134 -319q68 141 113 319h154zM223 557l-88 142h161l79 -142h-152z" />
    <glyph glyph-name="endash" unicode="&#x2013;" horiz-adv-x="766" 
d="M56 330h654v-140h-654v140z" />
    <glyph glyph-name="emdash" unicode="&#x2014;" horiz-adv-x="1093" 
d="M56 330h981v-140h-981v140z" />
    <glyph glyph-name="quoteleft" unicode="&#x2018;" horiz-adv-x="290" 
d="M221 561q24 -28 24 -64q0 -40 -29 -69t-70 -29q-42 0 -71.5 30.5t-29.5 76.5q0 53 31 105.5t61 85.5h92q-17 -18 -36 -45.5t-32 -57.5q36 -5 60 -33z" />
    <glyph glyph-name="quoteright" unicode="&#x2019;" horiz-adv-x="290" 
d="M215.5 680.5q29.5 -30.5 29.5 -76.5q0 -53 -31 -105.5t-61 -85.5h-92q17 18 36 45.5t32 57.5q-36 5 -60 33t-24 64q0 40 29 69t70 29q42 0 71.5 -30.5z" />
    <glyph glyph-name="quotesinglbase" unicode="&#x201a;" horiz-adv-x="290" 
d="M215.5 154.5q29.5 -30.5 29.5 -76.5q0 -53 -31 -105.5t-61 -85.5h-92q17 18 36 45.5t32 57.5q-36 5 -60 33t-24 64q0 40 29 69t70 29q42 0 71.5 -30.5z" />
    <glyph glyph-name="quotedblleft" unicode="&#x201c;" horiz-adv-x="535" 
d="M466 561q24 -28 24 -64q0 -40 -29 -69t-70 -29q-42 0 -71.5 30.5t-29.5 76.5q0 53 31 105.5t61 85.5h92q-17 -18 -36 -45.5t-32 -57.5q36 -5 60 -33zM221 561q24 -28 24 -64q0 -40 -29 -69t-70 -29q-42 0 -71.5 30.5t-29.5 76.5q0 53 31 105.5t61 85.5h92
q-17 -18 -36 -45.5t-32 -57.5q36 -5 60 -33z" />
    <glyph glyph-name="quotedblright" unicode="&#x201d;" horiz-adv-x="535" 
d="M460.5 680.5q29.5 -30.5 29.5 -76.5q0 -53 -31 -105.5t-61 -85.5h-92q17 18 36 45.5t32 57.5q-36 5 -60 33t-24 64q0 40 29 69t70 29q42 0 71.5 -30.5zM215.5 680.5q29.5 -30.5 29.5 -76.5q0 -53 -31 -105.5t-61 -85.5h-92q17 18 36 45.5t32 57.5q-36 5 -60 33t-24 64
q0 40 29 69t70 29q42 0 71.5 -30.5z" />
    <glyph glyph-name="quotedblbase" unicode="&#x201e;" horiz-adv-x="535" 
d="M460.5 154.5q29.5 -30.5 29.5 -76.5q0 -53 -31 -105.5t-61 -85.5h-92q17 18 36 45.5t32 57.5q-36 5 -60 33t-24 64q0 40 29 69t70 29q42 0 71.5 -30.5zM215.5 154.5q29.5 -30.5 29.5 -76.5q0 -53 -31 -105.5t-61 -85.5h-92q17 18 36 45.5t32 57.5q-36 5 -60 33t-24 64
q0 40 29 69t70 29q42 0 71.5 -30.5z" />
    <glyph glyph-name="dagger" unicode="&#x2020;" horiz-adv-x="672" 
d="M265 424h-190v137h190v139h143v-139h190v-137h-190v-560h-143v560z" />
    <glyph glyph-name="daggerdbl" unicode="&#x2021;" horiz-adv-x="672" 
d="M265 169h-190v138h190v117h-190v137h190v139h143v-139h190v-137h-190v-117h190v-138h-190v-305h-143v305z" />
    <glyph glyph-name="bullet" unicode="&#x2022;" horiz-adv-x="492" 
d="M167.5 210q-35.5 21 -56.5 56.5t-21 78.5t21 78.5t56.5 56.5t78.5 21t78.5 -21t56.5 -56.5t21 -78.5t-21 -78.5t-56.5 -56.5t-78.5 -21t-78.5 21z" />
    <glyph glyph-name="ellipsis" unicode="&#x2026;" horiz-adv-x="861" 
d="M645 18q-29 29 -29 70t29 70t71 29t71 -29t29 -70t-29 -70t-71 -29t-71 29zM361 18q-29 29 -29 70t29 70t71 29t71 -29t29 -70t-29 -70t-71 -29t-71 29zM74 18q-29 29 -29 70t29 70t71 29t71 -29t29 -70t-29 -70t-71 -29t-71 29z" />
    <glyph glyph-name="perthousand" unicode="&#x2030;" horiz-adv-x="1232" 
d="M122.5 410q-38.5 22 -60.5 59.5t-22 82.5t22 82.5t60.5 59.5t85.5 22t85 -21.5t60 -59.5t22 -83t-22 -83t-60 -59.5t-85 -21.5t-85.5 22zM211 -9l-87 68l508 649l87 -68zM251.5 503.5q17.5 19.5 17.5 48.5t-17.5 48.5t-43.5 19.5t-43.5 -19.5t-17.5 -48.5t17.5 -48.5
t43.5 -19.5t43.5 19.5zM551.5 8q-38.5 22 -60.5 59.5t-22 82.5t22 82.5t60.5 59.5t85.5 22t85 -21.5t60 -59.5t22 -83t-22 -83t-60 -59.5t-85 -21.5t-85.5 22zM939.5 8q-38.5 22 -60.5 59.5t-22 82.5t22 82.5t60.5 59.5t85.5 22t85 -21.5t60 -59.5t22 -83t-22 -83t-60 -59.5
t-85 -21.5t-85.5 22zM680.5 101.5q17.5 19.5 17.5 48.5t-17.5 48.5t-43.5 19.5t-43.5 -19.5t-17.5 -48.5t17.5 -48.5t43.5 -19.5t43.5 19.5zM1068.5 101.5q17.5 19.5 17.5 48.5t-17.5 48.5t-43.5 19.5t-43.5 -19.5t-17.5 -48.5t17.5 -48.5t43.5 -19.5t43.5 19.5z" />
    <glyph glyph-name="guilsinglleft" unicode="&#x2039;" horiz-adv-x="384" 
d="M40 277l141 201h163l-139 -201l139 -201h-163z" />
    <glyph glyph-name="guilsinglright" unicode="&#x203a;" horiz-adv-x="384" 
d="M40 76l141 201l-141 201h164l140 -201l-140 -201h-164z" />
    <glyph glyph-name="fraction" unicode="&#x2044;" horiz-adv-x="259" 
d="M340 708l87 -68l-508 -649l-87 68z" />
    <glyph glyph-name="Euro" unicode="&#x20ac;" horiz-adv-x="696" 
d="M505.5 138q27.5 14 47.5 42l122 -78q-39 -57 -99.5 -87.5t-129.5 -30.5q-108 0 -185.5 67.5t-101.5 189.5h-90v78h81q-1 9 -1 29q0 22 1 32h-81v78h91q25 121 102 187.5t184 66.5q69 0 129.5 -30.5t99.5 -87.5l-122 -78q-20 28 -47.5 42t-59.5 14q-48 0 -83 -28.5
t-52 -85.5h183v-78h-196q-1 -10 -1 -32q0 -20 1 -29h196v-78h-184q17 -59 52 -88t84 -29q32 0 59.5 14z" />
    <glyph glyph-name="uni20BA" unicode="&#x20ba;" horiz-adv-x="663" 
d="M628 237q-30 -118 -110 -177.5t-200 -59.5h-163v226l-77 -38v97l77 38v69l-77 -38v95l77 38v212h147v-139l153 75v-95l-153 -75v-69l153 75v-97l-153 -75v-166h16q137 0 176 141z" />
    <glyph glyph-name="uni20BD" unicode="&#x20bd;" horiz-adv-x="692" 
d="M312 281v-55h254v-98h-254v-128h-147v128h-97v98h97v55h-97v132h97v286h256q61 0 111.5 -27.5t79.5 -75.5t29 -107t-29 -106.5t-79.5 -74.5t-111.5 -27h-109zM312 413h108q34 0 57 22t23 54q0 34 -23 56t-57 22h-108v-154z" />
    <glyph glyph-name="uni2116" unicode="&#x2116;" horiz-adv-x="1180" 
d="M823.5 337.5q-47.5 26.5 -75.5 72.5t-28 101q0 54 28 100.5t76 73.5t105 27t105.5 -27t76.5 -73.5t28 -100.5q0 -55 -28 -101t-76 -72.5t-106 -26.5t-105.5 26.5zM488 699h147v-699h-150q-76 73 -151 189.5t-117 225.5v-415h-147v699h179q29 -119 101.5 -267t137.5 -234
v501zM871.5 570q-23.5 -24 -23.5 -59t23.5 -58.5t57.5 -23.5q36 0 59.5 23.5t23.5 58.5t-23.5 59t-59.5 24q-34 0 -57.5 -24zM739 131v132h381v-132h-381z" />
    <glyph glyph-name="uni2117" unicode="&#x2117;" horiz-adv-x="832" 
d="M604.5 667q86.5 -49 137 -133t50.5 -184t-50.5 -184t-137 -133t-188.5 -49t-188.5 49t-137 133t-50.5 184t50.5 184t137 133t188.5 49t188.5 -49zM562.5 100.5q66.5 37.5 105.5 103t39 146.5t-39 146.5t-105.5 103t-146.5 37.5t-146.5 -37.5t-105 -103t-38.5 -146.5
t38.5 -146.5t105 -103t146.5 -37.5t146.5 37.5zM551.5 514q42.5 -39 42.5 -99q0 -62 -43 -101.5t-115 -39.5q-24 0 -49 3v-126h-96v402h155q63 0 105.5 -39zM480.5 376q16.5 14 16.5 38q0 21 -15 34.5t-40 13.5h-55v-97q21 -3 45 -3q32 0 48.5 14z" />
    <glyph glyph-name="trademark" unicode="&#x2122;" horiz-adv-x="708" 
d="M12 630v69h247v-69h-87v-222h-73v222h-87zM566 408l-12 203q-23 -59 -60 -125h-65q-38 66 -61 127l-12 -205h-70l17 291h99q19 -55 60 -134q36 70 60 134h99l17 -291h-72z" />
    <glyph glyph-name="minus" unicode="&#x2212;" horiz-adv-x="652" 
d="M66 399h520v-139h-520v139z" />
    <glyph glyph-name="approxequal" unicode="&#x2248;" horiz-adv-x="695" 
d="M116.5 265q43.5 46 111.5 46q27 0 54.5 -7.5t67.5 -21.5q30 -11 50.5 -17t37.5 -6q30 0 43.5 13.5t15.5 39.5h132q-7 -81 -50.5 -128t-108.5 -47q-30 0 -58.5 7.5t-69.5 22.5q-36 12 -53 17t-33 5q-31 0 -44.5 -13.5t-15.5 -39.5h-130q7 83 50.5 129zM116.5 475
q43.5 46 111.5 46q27 0 54.5 -7.5t67.5 -21.5q30 -11 50.5 -17t37.5 -6q30 0 43.5 13.5t15.5 39.5h132q-7 -81 -50.5 -128t-108.5 -47q-30 0 -58.5 7.5t-69.5 22.5q-36 12 -53 17t-33 5q-31 0 -44.5 -13.5t-15.5 -39.5h-130q7 83 50.5 129z" />
    <glyph glyph-name="notequal" unicode="&#x2260;" horiz-adv-x="652" 
d="M586 379h-179l-45 -99h224v-139h-287l-43 -94h-117l43 94h-116v139h179l45 99h-224v139h288l43 95h117l-43 -95h115v-139z" />
    <glyph glyph-name="lessequal" unicode="&#x2264;" horiz-adv-x="652" 
d="M66 143h520v-139h-520v139zM586 660v-143l-332 -97l332 -97v-142l-520 167v145z" />
    <glyph glyph-name="greaterequal" unicode="&#x2265;" horiz-adv-x="652" 
d="M586 493v-145l-520 -167v142l332 97l-332 97v143zM586 4h-520v139h520v-139z" />
    <glyph glyph-name="uniE000" unicode="&#xe000;" horiz-adv-x="1351" 
d="M930.5 781.5q116.5 -68.5 184.5 -185.5t68 -255t-68 -255t-184.5 -185.5t-254.5 -68.5t-254.5 68.5t-185 185.5t-68.5 255t68.5 255t185 185.5t254.5 68.5t254.5 -68.5zM825.5 75.5q68.5 39.5 110 107.5t43.5 148q0 4 -2.5 7t-6.5 3h-588q-4 0 -7 -3t-3 -7q2 -80 44 -148
t110.5 -107.5t149.5 -39.5t149.5 39.5z" />
    <glyph glyph-name="AE.ss01" horiz-adv-x="1033" 
d="M606 140h377v-140h-527v147h-213l-74 -147h-169l360 699h618v-140h-372v-124h318v-140h-318v-155zM311 282h145v286z" />
    <glyph glyph-name="E.ss01" horiz-adv-x="647" 
d="M220 140h377v-140h-527v699h522v-140h-372v-124h318v-140h-318v-155z" />
    <glyph glyph-name="Eacute.ss01" horiz-adv-x="647" 
d="M220 140h377v-140h-527v699h522v-140h-372v-124h318v-140h-318v-155zM330 901h161l-87 -142h-153z" />
    <glyph glyph-name="Ecaron.ss01" horiz-adv-x="647" 
d="M220 140h377v-140h-527v699h522v-140h-372v-124h318v-140h-318v-155zM128 901h156l46 -64l48 64h155l-99 -142h-208z" />
    <glyph glyph-name="Ecircumflex.ss01" horiz-adv-x="647" 
d="M220 140h377v-140h-527v699h522v-140h-372v-124h318v-140h-318v-155zM226 901h208l99 -142h-155l-48 65l-46 -65h-157z" />
    <glyph glyph-name="Edieresis.ss01" horiz-adv-x="647" 
d="M220 140h377v-140h-527v699h522v-140h-372v-124h318v-140h-318v-155zM133.5 772q-26.5 26 -26.5 61q0 36 26.5 61.5t62.5 25.5t62.5 -25.5t26.5 -61.5q0 -35 -26.5 -61t-62.5 -26t-62.5 26zM402.5 772q-26.5 26 -26.5 61q0 36 26.5 61.5t62.5 25.5t62.5 -25.5t26.5 -61.5
q0 -35 -26.5 -61t-62.5 -26t-62.5 26z" />
    <glyph glyph-name="Edotaccent.ss01" horiz-adv-x="647" 
d="M220 140h377v-140h-527v699h522v-140h-372v-124h318v-140h-318v-155zM267 770.5q-27 26.5 -27 63.5t26.5 63.5t64.5 26.5t64.5 -26.5t26.5 -63.5t-27 -63.5t-64 -26.5t-64 26.5z" />
    <glyph glyph-name="Egrave.ss01" horiz-adv-x="647" 
d="M220 140h377v-140h-527v699h522v-140h-372v-124h318v-140h-318v-155zM259 759l-88 142h161l79 -142h-152z" />
    <glyph glyph-name="Emacron.ss01" horiz-adv-x="647" 
d="M220 140h377v-140h-527v699h522v-140h-372v-124h318v-140h-318v-155zM174 881h314v-119h-314v119z" />
    <glyph glyph-name="Eogonek.ss01" horiz-adv-x="647" 
d="M628 -209q-13 -7 -35.5 -11t-42.5 -4q-77 0 -112 32t-35 82q0 34 16 62t43 48h-392v699h522v-140h-372v-124h318v-140h-318v-155h377v-140q-35 -12 -56.5 -31.5t-21.5 -44.5q0 -19 15 -29.5t41 -10.5q19 0 31 4z" />
    <glyph glyph-name="G.ss01" horiz-adv-x="801" 
d="M762 345q0 -115 -42.5 -195.5t-121 -121.5t-185.5 -41q-110 0 -195 48t-131.5 131t-46.5 184q0 100 50 183t135.5 131.5t187.5 48.5q96 0 177 -42.5t132 -119.5l-125 -77q-29 45 -78.5 71t-106.5 26q-61 0 -111 -29t-79 -79.5t-29 -112.5q0 -64 26 -114t76 -78.5
t120 -28.5q73 0 122.5 32t64.5 85h-220v140h379q1 -14 1 -41z" />
    <glyph glyph-name="Gbreve.ss01" horiz-adv-x="801" 
d="M762 345q0 -115 -42.5 -195.5t-121 -121.5t-185.5 -41q-110 0 -195 48t-131.5 131t-46.5 184q0 100 50 183t135.5 131.5t187.5 48.5q96 0 177 -42.5t132 -119.5l-125 -77q-29 45 -78.5 71t-106.5 26q-61 0 -111 -29t-79 -79.5t-29 -112.5q0 -64 26 -114t76 -78.5
t120 -28.5q73 0 122.5 32t64.5 85h-220v140h379q1 -14 1 -41zM271.5 789q-50.5 42 -51.5 112h116q2 -21 17.5 -35.5t44.5 -14.5t44 14.5t17 35.5h116q-1 -70 -51.5 -112t-125.5 -42q-76 0 -126.5 42z" />
    <glyph glyph-name="uni0122.ss01" horiz-adv-x="801" 
d="M762 345q0 -115 -42.5 -195.5t-121 -121.5t-185.5 -41q-110 0 -195 48t-131.5 131t-46.5 184q0 100 50 183t135.5 131.5t187.5 48.5q96 0 177 -42.5t132 -119.5l-125 -77q-29 45 -78.5 71t-106.5 26q-61 0 -111 -29t-79 -79.5t-29 -112.5q0 -64 26 -114t76 -78.5
t120 -28.5q73 0 122.5 32t64.5 85h-220v140h379q1 -14 1 -41zM327 -53h140l-59 -140h-137z" />
    <glyph glyph-name="Gdotaccent.ss01" horiz-adv-x="801" 
d="M762 345q0 -115 -42.5 -195.5t-121 -121.5t-185.5 -41q-110 0 -195 48t-131.5 131t-46.5 184q0 100 50 183t135.5 131.5t187.5 48.5q96 0 177 -42.5t132 -119.5l-125 -77q-29 45 -78.5 71t-106.5 26q-61 0 -111 -29t-79 -79.5t-29 -112.5q0 -64 26 -114t76 -78.5
t120 -28.5q73 0 122.5 32t64.5 85h-220v140h379q1 -14 1 -41zM334 770.5q-27 26.5 -27 63.5t26.5 63.5t64.5 26.5t64.5 -26.5t26.5 -63.5t-27 -63.5t-64 -26.5t-64 26.5z" />
    <glyph glyph-name="L.ss02" horiz-adv-x="587" 
d="M458 -1.5q-60 -12.5 -125 -12.5q-120 0 -193.5 49.5t-73.5 164.5v499h150v-461q0 -59 35 -82.5t102 -23.5q90 0 172 40l41 -137q-48 -24 -108 -36.5z" />
    <glyph glyph-name="Lacute.ss02" horiz-adv-x="587" 
d="M458 -1.5q-60 -12.5 -125 -12.5q-120 0 -193.5 49.5t-73.5 164.5v499h150v-461q0 -59 35 -82.5t102 -23.5q90 0 172 40l41 -137q-48 -24 -108 -36.5zM146 901h161l-87 -142h-153z" />
    <glyph glyph-name="Lcaron.ss02" horiz-adv-x="587" 
d="M458 -1.5q-60 -12.5 -125 -12.5q-120 0 -193.5 49.5t-73.5 164.5v499h150v-461q0 -59 35 -82.5t102 -23.5q90 0 172 40l41 -137q-48 -24 -108 -36.5zM295 699h125l-36 -186h-120z" />
    <glyph glyph-name="uni013B.ss02" horiz-adv-x="587" 
d="M458 -1.5q-60 -12.5 -125 -12.5q-120 0 -193.5 49.5t-73.5 164.5v499h150v-461q0 -59 35 -82.5t102 -23.5q90 0 172 40l41 -137q-48 -24 -108 -36.5zM226 -53h140l-59 -140h-137z" />
    <glyph glyph-name="Lslash.ss02" horiz-adv-x="597" 
d="M576 35q-48 -24 -108 -36.5t-125 -12.5q-120 0 -193.5 49.5t-73.5 164.5v17l-68 -34v149l68 34v333h150v-259l157 77v-147l-157 -78v-54q0 -59 35 -82.5t102 -23.5q90 0 172 40z" />
    <glyph glyph-name="M.ss02" horiz-adv-x="834" 
d="M764 699v-699h-150v345q-35 -58 -84.5 -95t-112.5 -37q-64 0 -113 36.5t-84 95.5v-345h-150v699h150q3 -64 26.5 -141.5t67 -132.5t103.5 -55t103.5 55t67 132.5t26.5 141.5h150z" />
    <glyph glyph-name="OE.ss01" horiz-adv-x="1210" 
d="M1160 140v-140h-527v62q-46 -36 -102 -55.5t-119 -19.5q-100 0 -185.5 48.5t-136 131.5t-50.5 183t50.5 183t136 131.5t185.5 48.5q63 0 119 -19.5t102 -55.5v61h522v-140h-372v-124h318v-140h-318v-155h377zM521.5 158q50.5 29 80.5 79.5t30 112.5t-30 112.5t-80.5 79.5
t-109.5 29t-109.5 -29t-80.5 -79.5t-30 -112.5t30 -112.5t80.5 -79.5t109.5 -29t109.5 29z" />
    <glyph glyph-name="P.ss01" horiz-adv-x="640" 
d="M486 668.5q57 -30.5 90.5 -84.5t33.5 -120t-33.5 -120t-90.5 -84.5t-126 -30.5h-140v-229h-150v699h290q69 0 126 -30.5zM428 393q31 27 31 71t-31 71t-79 27h-129v-196h129q48 0 79 27z" />
    <glyph glyph-name="Thorn.ss01" horiz-adv-x="640" 
d="M486 552.5q57 -30.5 90.5 -84.5t33.5 -120t-33.5 -120t-90.5 -84.5t-126 -30.5h-140v-113h-150v699h150v-116h140q69 0 126 -30.5zM428 277q31 27 31 71t-31 71t-79 27h-129v-196h129q48 0 79 27z" />
    <glyph glyph-name="ae.ss01" horiz-adv-x="980" 
d="M940 196h-362q14 -39 48 -60.5t84 -21.5q77 0 144 50l76 -104q-46 -41 -95 -57.5t-106 -16.5q-50 0 -93 18t-74 51v-55h-133v49q-57 -62 -147 -62q-68 0 -124.5 32.5t-89 91t-32.5 132.5t32.5 133t89 91.5t124.5 32.5q90 0 147 -62v49h133v-49q27 30 63 46t79 16
q71 0 125.5 -32.5t85 -89t30.5 -127.5q0 -32 -5 -55zM623 357.5q-29 -21.5 -42 -57.5h219q-12 36 -40.5 57.5t-68.5 21.5q-39 0 -68 -21.5zM396 150q36 37 36 93q0 55 -36 93t-89 38t-89 -37.5t-36 -93.5t36 -93t89 -37t89 37z" />
    <glyph glyph-name="e.ss01" 
d="M545 196h-363q13 -39 47.5 -60.5t85.5 -21.5q77 0 144 50l75 -102q-51 -42 -106 -59t-116 -17q-81 0 -143.5 33t-97.5 91t-35 131q0 71 33 130.5t92 94t133 34.5q75 0 133.5 -32.5t90.5 -89t32 -127.5q0 -32 -5 -55zM225 357.5q-29 -21.5 -42 -57.5h224
q-12 36 -41.5 57.5t-71.5 21.5q-40 0 -69 -21.5z" />
    <glyph glyph-name="eacute.ss01" 
d="M545 196h-363q13 -39 47.5 -60.5t85.5 -21.5q77 0 144 50l75 -102q-51 -42 -106 -59t-116 -17q-81 0 -143.5 33t-97.5 91t-35 131q0 71 33 130.5t92 94t133 34.5q75 0 133.5 -32.5t90.5 -89t32 -127.5q0 -32 -5 -55zM225 357.5q-29 -21.5 -42 -57.5h224
q-12 36 -41.5 57.5t-71.5 21.5q-40 0 -69 -21.5zM301 699h161l-87 -142h-153z" />
    <glyph glyph-name="ecaron.ss01" 
d="M545 196h-363q13 -39 47.5 -60.5t85.5 -21.5q77 0 144 50l75 -102q-51 -42 -106 -59t-116 -17q-81 0 -143.5 33t-97.5 91t-35 131q0 71 33 130.5t92 94t133 34.5q75 0 133.5 -32.5t90.5 -89t32 -127.5q0 -32 -5 -55zM225 357.5q-29 -21.5 -42 -57.5h224
q-12 36 -41.5 57.5t-71.5 21.5q-40 0 -69 -21.5zM99 699h156l46 -64l48 64h155l-99 -142h-208z" />
    <glyph glyph-name="ecircumflex.ss01" 
d="M545 196h-363q13 -39 47.5 -60.5t85.5 -21.5q77 0 144 50l75 -102q-51 -42 -106 -59t-116 -17q-81 0 -143.5 33t-97.5 91t-35 131q0 71 33 130.5t92 94t133 34.5q75 0 133.5 -32.5t90.5 -89t32 -127.5q0 -32 -5 -55zM225 357.5q-29 -21.5 -42 -57.5h224
q-12 36 -41.5 57.5t-71.5 21.5q-40 0 -69 -21.5zM197 699h208l99 -142h-155l-48 65l-46 -65h-157z" />
    <glyph glyph-name="edieresis.ss01" 
d="M545 196h-363q13 -39 47.5 -60.5t85.5 -21.5q77 0 144 50l75 -102q-51 -42 -106 -59t-116 -17q-81 0 -143.5 33t-97.5 91t-35 131q0 71 33 130.5t92 94t133 34.5q75 0 133.5 -32.5t90.5 -89t32 -127.5q0 -32 -5 -55zM225 357.5q-29 -21.5 -42 -57.5h224
q-12 36 -41.5 57.5t-71.5 21.5q-40 0 -69 -21.5zM122 571.5q-26 25.5 -26 60.5q0 36 26 61t62 25t62 -25t26 -61q0 -35 -26 -60.5t-62 -25.5t-62 25.5zM357 571.5q-26 25.5 -26 60.5q0 36 26 61t62 25t62 -25t26 -61q0 -35 -26 -60.5t-62 -25.5t-62 25.5z" />
    <glyph glyph-name="edotaccent.ss01" 
d="M545 196h-363q13 -39 47.5 -60.5t85.5 -21.5q77 0 144 50l75 -102q-51 -42 -106 -59t-116 -17q-81 0 -143.5 33t-97.5 91t-35 131q0 71 33 130.5t92 94t133 34.5q75 0 133.5 -32.5t90.5 -89t32 -127.5q0 -32 -5 -55zM225 357.5q-29 -21.5 -42 -57.5h224
q-12 36 -41.5 57.5t-71.5 21.5q-40 0 -69 -21.5zM238 568.5q-27 26.5 -27 63.5t26.5 63.5t64.5 26.5t64.5 -26.5t26.5 -63.5t-27 -63.5t-64 -26.5t-64 26.5z" />
    <glyph glyph-name="egrave.ss01" 
d="M545 196h-363q13 -39 47.5 -60.5t85.5 -21.5q77 0 144 50l75 -102q-51 -42 -106 -59t-116 -17q-81 0 -143.5 33t-97.5 91t-35 131q0 71 33 130.5t92 94t133 34.5q75 0 133.5 -32.5t90.5 -89t32 -127.5q0 -32 -5 -55zM225 357.5q-29 -21.5 -42 -57.5h224
q-12 36 -41.5 57.5t-71.5 21.5q-40 0 -69 -21.5zM230 557l-88 142h161l79 -142h-152z" />
    <glyph glyph-name="emacron.ss01" 
d="M545 196h-363q13 -39 47.5 -60.5t85.5 -21.5q77 0 144 50l75 -102q-51 -42 -106 -59t-116 -17q-81 0 -143.5 33t-97.5 91t-35 131q0 71 33 130.5t92 94t133 34.5q75 0 133.5 -32.5t90.5 -89t32 -127.5q0 -32 -5 -55zM225 357.5q-29 -21.5 -42 -57.5h224
q-12 36 -41.5 57.5t-71.5 21.5q-40 0 -69 -21.5zM145 679h314v-119h-314v119z" />
    <glyph glyph-name="eogonek.ss01" 
d="M545 196h-363q13 -39 47.5 -60.5t85.5 -21.5q77 0 144 50l75 -102q-27 -22 -51 -35q-33 -23 -49.5 -45t-16.5 -47t15 -38t42 -13q19 0 31 4l22 -97q-13 -7 -35.5 -11t-41.5 -4q-78 0 -114 34.5t-36 87.5q0 46 31 88h-19q-81 0 -143.5 33t-97.5 91t-35 131q0 71 33 130.5
t92 94t133 34.5q75 0 133.5 -32.5t90.5 -89t32 -127.5q0 -32 -5 -55zM225 357.5q-29 -21.5 -42 -57.5h224q-12 36 -41.5 57.5t-71.5 21.5q-40 0 -69 -21.5z" />
    <glyph glyph-name="f.calt" horiz-adv-x="448" 
d="M341 586q-32 0 -55.5 -18t-23.5 -62v-19h146v-126h-146v-361h-144v361h-85v126h85v29q0 96 53 147t146 51q56 0 109 -17l-28 -120q-30 9 -57 9z" />
    <glyph glyph-name="i.loclTRK" horiz-adv-x="278" 
d="M67 487h144v-487h-144v487zM75 568.5q-27 26.5 -27 63.5t26.5 63.5t64.5 26.5t64.5 -26.5t26.5 -63.5t-27 -63.5t-64 -26.5t-64 26.5z" />
    <glyph glyph-name="oe.ss01" horiz-adv-x="971" 
d="M931 196h-362q14 -39 48 -60.5t84 -21.5q77 0 144 50l75 -102q-51 -42 -106 -59t-116 -17q-63 0 -115.5 23t-87.5 64q-34 -41 -83 -63.5t-108 -22.5q-75 0 -136.5 33.5t-96.5 92t-35 130.5t35 131t96.5 92.5t136.5 33.5q59 0 108 -23t83 -64q34 41 81.5 64t103.5 23
q75 0 133.5 -32.5t90.5 -89t32 -127.5q0 -32 -5 -55zM614 357.5q-29 -21.5 -42 -57.5h219q-12 36 -40.5 57.5t-68.5 21.5q-39 0 -68 -21.5zM391 152.5q36 36.5 36 90.5q0 36 -16.5 65t-45 46t-61.5 17q-51 0 -86.5 -37t-35.5 -91t35.5 -90.5t86.5 -36.5t87 36.5z" />
    <glyph glyph-name="f_f.liga.calt" horiz-adv-x="896" 
d="M341 586q-32 0 -55.5 -18t-23.5 -62v-19h146v-126h-146v-361h-144v361h-85v126h85v29q0 96 53 147t146 51q56 0 109 -17l-28 -120q-30 9 -57 9zM789 586q-32 0 -55.5 -18t-23.5 -62v-19h146v-126h-146v-361h-144v361h-85v126h85v29q0 96 53 147t146 51q56 0 109 -17
l-28 -120q-30 9 -57 9z" />
    <glyph glyph-name="uni0415.ss01" horiz-adv-x="647" 
d="M220 140h377v-140h-527v699h522v-140h-372v-124h318v-140h-318v-155z" />
    <glyph glyph-name="uni0401.ss01" horiz-adv-x="647" 
d="M220 140h377v-140h-527v699h522v-140h-372v-124h318v-140h-318v-155zM124.5 772q-26.5 26 -26.5 61q0 36 26.5 61.5t62.5 25.5t62.5 -25.5t26.5 -61.5q0 -35 -26.5 -61t-62.5 -26t-62.5 26zM393.5 772q-26.5 26 -26.5 61q0 36 26.5 61.5t62.5 25.5t62.5 -25.5t26.5 -61.5
q0 -35 -26.5 -61t-62.5 -26t-62.5 26z" />
    <glyph glyph-name="uni041C.ss02" horiz-adv-x="834" 
d="M764 699v-699h-150v345q-35 -58 -84.5 -95t-112.5 -37q-64 0 -113 36.5t-84 95.5v-345h-150v699h150q3 -64 26.5 -141.5t67 -132.5t103.5 -55t103.5 55t67 132.5t26.5 141.5h150z" />
    <glyph glyph-name="uni0426.ss01" horiz-adv-x="810" 
d="M674 140h101v-301h-148v161h-557v699h150v-559h304v559h150v-559z" />
    <glyph glyph-name="uni0428.ss01" horiz-adv-x="1026" 
d="M70 699h150v-559h218v559h150v-559h218v559h150v-699h-886v699z" />
    <glyph glyph-name="uni0429.ss01" horiz-adv-x="1093" 
d="M956 140h102v-301h-148v161h-840v699h150v-559h218v559h150v-559h218v559h150v-559z" />
    <glyph glyph-name="uni040F.ss01" horiz-adv-x="744" 
d="M524 699h150v-699h-225v-161h-149v161h-230v699h150v-559h304v559z" />
    <glyph glyph-name="uni042C.ss01" horiz-adv-x="636" 
d="M482 433q58 -29 91 -82t33 -121q0 -66 -31 -118.5t-86 -82t-123 -29.5h-296v699h150v-257q60 20 130 20q74 0 132 -29zM423.5 163q30.5 26 30.5 69q0 42 -32 67.5t-91 25.5t-111 -21v-167h115q58 0 88.5 26z" />
    <glyph glyph-name="uni0435.ss01" 
d="M545 196h-363q13 -39 47.5 -60.5t85.5 -21.5q77 0 144 50l75 -102q-51 -42 -106 -59t-116 -17q-81 0 -143.5 33t-97.5 91t-35 131q0 71 33 130.5t92 94t133 34.5q75 0 133.5 -32.5t90.5 -89t32 -127.5q0 -32 -5 -55zM225 357.5q-29 -21.5 -42 -57.5h224
q-12 36 -41.5 57.5t-71.5 21.5q-40 0 -69 -21.5z" />
    <glyph glyph-name="uni0451.ss01" 
d="M545 196h-363q13 -39 47.5 -60.5t85.5 -21.5q77 0 144 50l75 -102q-51 -42 -106 -59t-116 -17q-81 0 -143.5 33t-97.5 91t-35 131q0 71 33 130.5t92 94t133 34.5q75 0 133.5 -32.5t90.5 -89t32 -127.5q0 -32 -5 -55zM225 357.5q-29 -21.5 -42 -57.5h224
q-12 36 -41.5 57.5t-71.5 21.5q-40 0 -69 -21.5zM120 571.5q-26 25.5 -26 60.5q0 36 26 61t62 25t62 -25t26 -61q0 -35 -26 -60.5t-62 -25.5t-62 25.5zM355 571.5q-26 25.5 -26 60.5q0 36 26 61t62 25t62 -25t26 -61q0 -35 -26 -60.5t-62 -25.5t-62 25.5z" />
    <glyph glyph-name="uni043C.ss01" horiz-adv-x="695" 
d="M629 487v-487h-142v203q-26 -37 -61 -60t-78 -23q-79 0 -140 89v-209h-142v487h142q3 -45 19.5 -97.5t47 -90.5t73.5 -38q42 0 72.5 38t47 90.5t19.5 97.5h142z" />
    <glyph glyph-name="uni0446.ss01" horiz-adv-x="665" 
d="M548 126h89v-262h-144v136h-427v487h144v-361h194v361h144v-361z" />
    <glyph glyph-name="uni0448.ss01" horiz-adv-x="854" 
d="M66 487h144v-361h145v361h144v-361h145v361h144v-487h-722v487z" />
    <glyph glyph-name="uni0449.ss01" horiz-adv-x="891" 
d="M788 131h75v-267h-144v136h-653v487h145v-361h144v361h144v-361h145v361h144v-356z" />
    <glyph glyph-name="uni045F.ss01" horiz-adv-x="614" 
d="M548 487v-487h-167v-136h-144v136h-171v487h144v-361h194v361h144z" />
    <glyph glyph-name="zero.tf" horiz-adv-x="640" 
d="M179.5 27.5q-63.5 43.5 -100 125.5t-36.5 195t36.5 195t100 125.5t140.5 43.5t140.5 -43.5t100 -125.5t36.5 -195t-36.5 -195t-100 -125.5t-140.5 -43.5t-140.5 43.5zM413 180.5q35 56.5 35 167.5t-35 167.5t-93 56.5t-93 -56.5t-35 -167.5t35 -167.5t93 -56.5t93 56.5z
" />
    <glyph glyph-name="one.tf" horiz-adv-x="640" 
d="M600 127v-127h-520v127h207v345q-32 -32 -77.5 -46.5t-97.5 -14.5v137q42 0 83 18t69 52.5t33 80.5h137v-572h166z" />
    <glyph glyph-name="two.tf" horiz-adv-x="640" 
d="M580 136v-136h-485v112q136 99 229 197.5t93 177.5q0 44 -28 66t-79 22q-42 0 -86 -22.5t-84 -67.5l-103 97q54 64 125 97t152 33q74 0 132 -25.5t91 -75t33 -119.5q0 -173 -240 -356h250z" />
    <glyph glyph-name="three.tf" horiz-adv-x="640" 
d="M533.5 355q44.5 -55 44.5 -133q0 -65 -34 -119t-92.5 -85.5t-130.5 -31.5q-83 0 -154 28t-115 74l96 109q29 -32 74 -51.5t93 -19.5q52 0 83 28t31 67q0 37 -29.5 62t-81.5 25q-35 0 -72 -13l-71 96q44 33 95 78.5t92 93.5h-290v136h473v-121q-56 -80 -137 -151
q81 -17 125.5 -72z" />
    <glyph glyph-name="four.tf" horiz-adv-x="640" 
d="M616 279v-136h-91v-143h-147v143h-353v114q30 93 110 233.5t155 234.5l127 -74q-58 -70 -120.5 -173t-103.5 -199h185v154h147v-154h91z" />
    <glyph glyph-name="five.tf" horiz-adv-x="640" 
d="M468 416q54 -25 87.5 -74t33.5 -118q0 -65 -34 -119.5t-93 -86.5t-132 -32q-82 0 -152.5 28t-114.5 74l96 109q29 -32 73.5 -51.5t91.5 -19.5q52 0 84 28t32 68q0 38 -31.5 62t-78.5 24q-33 0 -59.5 -8t-42.5 -20l-140 30l40 391q147 -17 233 -17q116 0 184 26l17 -125
q-65 -39 -193 -39q-67 0 -120 10l-15 -141q23 12 55.5 19t62.5 7q62 0 116 -25z" />
    <glyph glyph-name="six.tf" horiz-adv-x="640" 
d="M479.5 431q52.5 -30 82.5 -82.5t30 -117.5q0 -68 -34 -124t-93.5 -88.5t-131.5 -32.5q-74 0 -135 33t-96.5 93t-35.5 138q0 89 37.5 179t103 164.5t147.5 121.5l101 -90q-51 -32 -110 -88t-87 -108q45 32 105 32q64 0 116.5 -30zM411 153q33 31 33 77t-33 76.5t-82 30.5
t-82 -30.5t-33 -76.5t33 -77t82 -31t82 31z" />
    <glyph glyph-name="seven.tf" horiz-adv-x="640" 
d="M565 699v-126q-75 -72 -131 -173.5t-85 -207t-29 -192.5h-163q0 80 28 183.5t78 205t115 174.5h-327v136h514z" />
    <glyph glyph-name="eight.tf" horiz-adv-x="640" 
d="M554 295.5q26 -43.5 26 -95.5q0 -60 -32.5 -109t-90.5 -77t-132 -28t-132 28t-90.5 77t-32.5 109q0 53 26.5 97t72.5 72q-37 27 -58 65.5t-21 82.5q0 55 30.5 100t84.5 71t122 26t122 -26t84.5 -71t30.5 -100q0 -45 -21.5 -83.5t-59.5 -66.5q45 -28 71 -71.5zM261 565
q-25 -23 -25 -57t25.5 -57.5t65.5 -23.5t65.5 23.5t25.5 57.5t-25 57t-66 23t-66 -23zM400 146q30 27 30 66q0 40 -30 66t-75 26t-75 -26t-30 -66q0 -39 30 -66t75 -27t75 27z" />
    <glyph glyph-name="nine.tf" horiz-adv-x="640" 
d="M442 680q61 -33 96.5 -93t35.5 -138q0 -89 -37.5 -179t-103 -164.5t-147.5 -121.5l-101 90q51 32 110 88t87 108q-45 -32 -105 -32q-64 0 -116.5 30t-82.5 82.5t-30 117.5q0 68 34 124t93.5 88.5t131.5 32.5q74 0 135 -33zM393 392.5q33 30.5 33 76.5t-33 77t-82 31
t-82 -31t-33 -77t33 -76.5t82 -30.5t82 30.5z" />
    <glyph glyph-name="hyphen.case" horiz-adv-x="421" 
d="M47 412h327v-144h-327v144z" />
    <glyph glyph-name="endash.case" horiz-adv-x="766" 
d="M56 410h654v-140h-654v140z" />
    <glyph glyph-name="emdash.case" horiz-adv-x="1093" 
d="M56 410h981v-140h-981v140z" />
    <glyph glyph-name="at.case" horiz-adv-x="929" 
d="M684.5 704.5q95.5 -46.5 150 -127.5t54.5 -181q0 -88 -30.5 -145.5t-76.5 -84.5t-94 -27q-96 0 -134 71q-25 -34 -62 -52.5t-82 -18.5q-51 0 -90.5 24t-61.5 65.5t-22 92.5q0 66 26 118.5t71.5 81.5t101.5 29q42 0 75.5 -16t54.5 -46l8 46h108l-38 -217q-3 -18 -3 -32
q0 -31 14.5 -46.5t40.5 -15.5q22 0 42.5 17.5t34 56.5t13.5 98q0 77 -39.5 136.5t-111 92t-164.5 32.5q-90 0 -163.5 -41.5t-116 -116t-42.5 -169.5q0 -85 38.5 -150t112 -101t175.5 -36q43 0 86.5 8.5t71.5 24.5l40 -84q-33 -21 -86.5 -31.5t-113.5 -10.5
q-133 0 -230.5 48.5t-149.5 135t-52 196.5q0 119 57.5 215.5t156.5 151.5t216 55q119 0 214.5 -46.5zM510 275.5q28 38.5 28 92.5q0 39 -22.5 62t-54.5 23q-52 0 -79.5 -36t-27.5 -92q0 -38 23 -63t56 -25q49 0 77 38.5z" />
    <glyph glyph-name="uni0308.case" horiz-adv-x="0" 
d="M-429.5 570q-26.5 26 -26.5 61q0 36 26.5 61.5t62.5 25.5t62.5 -25.5t26.5 -61.5q0 -35 -26.5 -61t-62.5 -26t-62.5 26zM-160.5 570q-26.5 26 -26.5 61q0 36 26.5 61.5t62.5 25.5t62.5 -25.5t26.5 -61.5q0 -35 -26.5 -61t-62.5 -26t-62.5 26z" />
    <glyph glyph-name="uni030C.alt" horiz-adv-x="0" 
d="M-170 699h125l-36 -186h-120z" />
    <glyph glyph-name="uni030A.case" horiz-adv-x="0" 
d="M-270.5 644.5q-34.5 18.5 -54.5 51t-20 71.5t20 71.5t54.5 51.5t75.5 19t75.5 -19t54.5 -51.5t20 -71.5t-20 -71.5t-54.5 -51t-75.5 -18.5t-75.5 18.5zM-154.5 727.5q16.5 15.5 16.5 39.5t-16.5 40t-40.5 16q-25 0 -41.5 -16t-16.5 -40t16.5 -39.5t41.5 -15.5
q24 0 40.5 15.5z" />
    <glyph glyph-name="ogonekcomb_Uue" horiz-adv-x="0" 
d="M-236 -189.5q-36 34.5 -36 87.5q0 60 49 108.5t127 79.5l35 -41q-47 -29 -70.5 -54.5t-23.5 -55.5q0 -25 15 -38t42 -13q19 0 31 4l22 -97q-13 -7 -35.5 -11t-41.5 -4q-78 0 -114 34.5z" />
    <glyph glyph-name="brevecombcy" horiz-adv-x="0" 
d="M-401 574.5q-58 46.5 -60 124.5h131q2 -30 20.5 -51t56.5 -21t56.5 21t20.5 51h131q-2 -78 -60 -124.5t-148 -46.5t-148 46.5z" />
    <glyph glyph-name="newGlyph" horiz-adv-x="600" 
 />
    </font>
</defs>
</svg>
