<svg width="77" height="22" viewBox="0 0 77 22" fill="none" xmlns="http://www.w3.org/2000/svg">
<path fill-rule="evenodd" clip-rule="evenodd" d="M66.1298 3.50477C66.4641 3.82669 66.7655 4.22254 66.9507 4.70553C67.2584 5.50809 67.1667 6.34356 66.7629 7.10201C66.388 7.80625 65.7583 8.42726 64.9854 8.9939C64.1019 9.6417 63.0791 9.91474 62.2091 10.059C61.6223 10.1564 60.9659 10.2112 60.4292 10.2561C60.2101 10.2744 60.011 10.291 59.8447 10.3082C54.282 10.8831 48.822 10.7958 43.3408 10.6094C29.499 10.1387 15.3765 10.2261 1.76146 12.2244C0.923045 12.3475 0.142022 11.7783 0.016994 10.9531C-0.108034 10.1279 0.47028 9.35916 1.30869 9.2361C15.1985 7.19743 29.5386 7.1169 43.4468 7.58981C48.9074 7.77549 54.1872 7.85489 59.5241 7.30336C59.8172 7.27307 60.0848 7.25107 60.3398 7.23012C60.8095 7.19151 61.2361 7.15645 61.699 7.07967C62.3697 6.96844 62.8358 6.80246 63.1516 6.57094C63.7166 6.15668 63.9497 5.86521 64.0342 5.71722C63.9922 5.66997 63.9159 5.59619 63.7827 5.50055C63.52 5.31191 63.135 5.10975 62.6288 4.90739C60.6452 4.11451 57.7689 3.67925 56.4016 3.47234C56.334 3.46211 56.27 3.45243 56.21 3.44329C55.8236 3.38444 55.4982 3.32601 55.2454 3.26605C55.1222 3.23683 54.9802 3.19892 54.8429 3.14842C54.7744 3.12322 54.6786 3.08462 54.5747 3.02842C54.4897 2.98251 54.2947 2.87023 54.1136 2.66342C53.9167 2.43838 53.6244 1.95459 53.7712 1.31808C53.8993 0.762533 54.2831 0.474135 54.428 0.377816C54.7096 0.190602 55.0014 0.129995 55.0801 0.113649L55.0864 0.112335C55.3233 0.0627223 55.6047 0.0400379 55.8543 0.0264173C56.8999 -0.0306364 58.8635 0.00647186 61.126 0.120841C65.6197 0.347998 71.7782 0.904229 74.8593 1.81322C75.402 1.97334 75.9151 2.24841 76.3125 2.68754C76.717 3.13442 76.9161 3.65696 76.9778 4.16433C77.0915 5.09892 76.7472 6.01462 76.4168 6.67937C75.7298 8.06174 74.5722 9.38584 74.0513 9.88488C70.5561 13.2333 67.706 16.8461 65.7158 21.1185C65.3626 21.8769 64.4515 22.2099 63.6809 21.8622C62.9104 21.5145 62.5721 20.6178 62.9254 19.8594C65.1118 15.1655 68.2187 11.2562 71.9102 7.71978C72.263 7.38174 73.1719 6.3324 73.6593 5.35182C73.7751 5.11882 73.8511 4.92061 73.8931 4.76208C73.9002 4.73515 73.906 4.71042 73.9108 4.68782C72.1846 4.19065 69.2197 3.78922 66.1298 3.50477ZM74.0721 4.74311L74.0705 4.74215Z" fill="#C9C9C9"/>
</svg>
