<svg aria-hidden="true" style="position: absolute; width: 0; height: 0; overflow: hidden;" version="1.1" xmlns="http://www.w3.org/2000/svg" xmlns:xlink="http://www.w3.org/1999/xlink">
<defs>
<symbol id="icon-circle" viewBox="0 0 32 32">
<path fill="#c4c4c4" style="fill: var(--color1, #c4c4c4)" d="M28.8 16c0-7.069-5.731-12.8-12.8-12.8v-3.2c8.837 0 16 7.163 16 16s-7.163 16-16 16c-8.837 0-16-7.163-16-16 0-4.238 1.541-8.119 4.203-11h-2.603v-3.2h8.8v7h-3.2v-2.276c-2.5 2.327-4 5.692-4 9.476 0 7.069 5.731 12.8 12.8 12.8s12.8-5.731 12.8-12.8z"></path>
</symbol>
<symbol id="icon-instagram" viewBox="0 0 32 32">
<path fill="#767571" d="M12.508 20.201c0.831 0.555 1.808 0.852 2.807 0.852 1.34 0 2.625-0.532 3.573-1.48s1.48-2.233 1.48-3.573c0-0.999-0.296-1.976-0.852-2.807s-1.344-1.479-2.267-1.861c-0.923-0.382-1.939-0.482-2.919-0.288s-1.88 0.676-2.587 1.383c-0.707 0.707-1.188 1.607-1.383 2.587s-0.095 1.996 0.287 2.919c0.382 0.923 1.030 1.712 1.861 2.267z"></path>
<path fill="#767571" d="M9.066 0.933c-1.613 0.074-2.715 0.33-3.679 0.705-1.011 0.381-1.928 0.977-2.685 1.748-0.771 0.757-1.368 1.673-1.749 2.685-0.374 0.964-0.631 2.066-0.704 3.679-0.074 1.617-0.092 2.133-0.092 6.25s0.017 4.633 0.092 6.25c0.074 1.613 0.33 2.715 0.705 3.679 0.381 1.012 0.977 1.928 1.748 2.685 0.757 0.771 1.673 1.368 2.685 1.748 0.964 0.375 2.066 0.631 3.679 0.704 1.617 0.074 2.133 0.091 6.25 0.091s4.633-0.018 6.25-0.091c1.613-0.074 2.715-0.33 3.679-0.704 1.007-0.389 1.921-0.985 2.685-1.748s1.359-1.678 1.748-2.685c0.375-0.964 0.631-2.066 0.705-3.679 0.074-1.617 0.091-2.133 0.091-6.25s-0.018-4.633-0.091-6.25c-0.074-1.613-0.33-2.715-0.705-3.679-0.38-1.011-0.977-1.928-1.748-2.685-0.757-0.771-1.673-1.368-2.685-1.749-0.964-0.374-2.066-0.631-3.68-0.704-1.616-0.074-2.133-0.092-6.249-0.092s-4.633 0.017-6.249 0.091zM25.225 7.909c0 1.005-0.814 1.819-1.819 1.819s-1.819-0.814-1.819-1.819 0.814-1.819 1.819-1.819c1.004 0 1.819 0.814 1.819 1.819zM10.991 9.528c1.28-0.855 2.785-1.312 4.324-1.312 2.064 0 4.044 0.82 5.504 2.28s2.28 3.44 2.28 5.504c0 1.54-0.456 3.044-1.312 4.324s-2.071 2.278-3.493 2.867c-1.422 0.589-2.987 0.743-4.497 0.443s-2.897-1.042-3.985-2.13c-1.089-1.088-1.83-2.475-2.13-3.985s-0.146-3.075 0.443-4.497c0.589-1.422 1.587-2.638 2.867-3.493z"></path>
</symbol>
<symbol id="icon-youtube" viewBox="0 0 32 32">
<path fill="#767571" d="M28.958 7.612c0.473 0.439 0.814 0.986 0.989 1.585 1.007 3.761 0.774 9.7 0.020 13.605-0.175 0.599-0.516 1.146-0.989 1.585s-1.062 0.756-1.708 0.918c-2.365 0.599-11.884 0.599-11.884 0.599s-9.519 0-11.883-0.599c-0.646-0.162-1.235-0.479-1.708-0.918s-0.814-0.986-0.989-1.585c-1.012-3.744-0.735-9.687-0.019-13.587 0.175-0.6 0.516-1.146 0.989-1.585s1.062-0.756 1.708-0.918c2.365-0.599 11.883-0.617 11.883-0.617s9.519 0 11.884 0.599c0.646 0.162 1.235 0.479 1.708 0.918zM20.232 16l-7.896 4.245v-8.49l7.896 4.245z"></path>
</symbol>
<symbol id="icon-facebook" viewBox="0 0 32 32">
<path fill="#767571" d="M20.537 5.087c-1.984 0-2.558 0.876-2.558 2.809v3.206h5.293l-0.53 5.18h-4.76v15.718h-6.352v-15.718h-4.279v-5.18h4.279v-3.118c0-5.224 2.116-7.984 8.020-7.984 1.237-0.003 2.473 0.070 3.701 0.219v4.874l-2.813-0.006z"></path>
</symbol>
<symbol id="icon-vk" viewBox="0 0 32 32">
<path fill="#767571" d="M16.802 25.043c-10.458 0-16.423-6.789-16.671-18.087h5.238c0.172 8.292 4.034 11.805 7.093 12.529v-12.529h4.933v7.152c3.021-0.308 6.194-3.567 7.265-7.152h4.933c-0.822 4.418-4.263 7.677-6.711 9.016 2.447 1.086 6.367 3.929 7.858 9.071h-5.43c-1.166-3.44-4.072-6.101-7.915-6.463v6.463h-0.593z"></path>
</symbol>
<symbol id="icon-habits-3" viewBox="0 0 30 32">
<path fill="#00a365" style="fill: var(--color3, #00a365)" d="M8.54 32h18.982c1.417 0 2.573-1.154 2.573-2.567v-19.572l-6.265-9.86h-11.56l-1.156 1.637c-0.186 0.26-0.112 0.595 0.149 0.781s0.597 0.112 0.783-0.149l0.82-1.191h10.367l5.743 9.079v19.274c0 0.781-0.634 1.451-1.454 1.451h-18.944c-0.783 0-1.454-0.633-1.454-1.451v-19.274l1.715-3.349c0.149-0.26 0.037-0.595-0.261-0.744-0.261-0.149-0.597-0.037-0.746 0.261l-1.827 3.609v19.535c0 1.377 1.156 2.53 2.536 2.53z"></path>
<path fill="#00a365" style="fill: var(--color3, #00a365)" d="M4.139 10.27c-1.865-0.595-3.021-1.563-3.021-2.493 0-1.488 3.17-3.163 7.682-3.163 3.021 0 5.407 0.744 6.675 1.674 0.075 0.781 0.522 1.488 1.156 1.898 0.037 0.037 0.112 0.074 0.186 0.112 0.336 0.186 0.746 0.298 1.193 0.298 1.417 0 2.573-1.154 2.573-2.567s-1.156-2.567-2.573-2.567c-1.081 0-1.976 0.67-2.349 1.563-1.604-0.967-4.065-1.563-6.862-1.563-4.923 0-8.801 1.898-8.801 4.279 0 1.451 1.38 2.753 3.804 3.535 0.075 0.037 0.112 0.037 0.186 0.037 0.224 0 0.448-0.149 0.522-0.372 0.075-0.26-0.075-0.595-0.373-0.67zM18.049 4.614c0.783 0 1.454 0.633 1.454 1.451 0 0.781-0.634 1.451-1.454 1.451-0.149 0-0.336-0.037-0.485-0.074-0.112-0.558-0.41-1.116-0.932-1.6 0.112-0.707 0.709-1.228 1.417-1.228z"></path>
<path fill="#00a365" style="fill: var(--color3, #00a365)" d="M24.576 14.661c0.186-0.335 0.709-1.414 1.193-1.637l2.499-1.228-2.76 0.186c-4.214 0.298-8.987 0.93-12.306 3.609-3.133 2.53-3.692 5.953-1.641 9.674 0.037 0.074 0.075 0.112 0.112 0.149-0.261 0.633-0.485 1.265-0.671 1.898-0.075 0.298 0.075 0.595 0.373 0.707 0.037 0 0.112 0.037 0.149 0.037 0.261 0 0.485-0.149 0.522-0.409 1.044-3.609 3.505-7.219 6.265-9.153 0.261-0.186 0.298-0.521 0.149-0.781-0.186-0.26-0.522-0.298-0.783-0.149-2.163 1.526-4.102 3.944-5.445 6.623-1.082-2.195-1.492-5.172 1.641-7.702 2.722-2.195 6.563-2.94 10.218-3.237-0.224 0.335-0.373 0.67-0.559 1.005l-0.037 0.074c-0.746 1.488-0.709 3.014-0.671 4.465 0.037 1.302 0.075 2.493-0.41 3.646-1.081 2.493-4.811 3.646-7.272 3.014-0.298-0.074-0.597 0.112-0.671 0.409s0.112 0.595 0.41 0.67c0.522 0.149 1.119 0.186 1.715 0.186 2.685 0 5.78-1.377 6.862-3.87 0.597-1.377 0.559-2.791 0.522-4.13-0.037-1.377-0.112-2.679 0.522-3.944l0.075-0.112z"></path>
</symbol>
<symbol id="icon-habits-2" viewBox="0 0 32 32">
<path fill="#00a365" style="fill: var(--color3, #00a365)" d="M15.5 17.064c-0.151 0-0.296-0.060-0.403-0.167s-0.167-0.252-0.167-0.403v-6.462c0-0.151 0.060-0.296 0.167-0.403s0.252-0.167 0.403-0.167c0.151 0 0.296 0.060 0.403 0.167s0.167 0.252 0.167 0.403v6.462c0 0.151-0.060 0.296-0.167 0.403s-0.252 0.167-0.403 0.167z"></path>
<path fill="#00a365" style="fill: var(--color3, #00a365)" d="M13.508 17.064c-0.151 0-0.296-0.060-0.403-0.167s-0.167-0.252-0.167-0.403v-6.462c0-0.151 0.060-0.296 0.167-0.403s0.252-0.167 0.403-0.167c0.151 0 0.296 0.060 0.403 0.167s0.167 0.252 0.167 0.403v6.462c0 0.151-0.060 0.296-0.167 0.403s-0.252 0.167-0.403 0.167z"></path>
<path fill="#00a365" style="fill: var(--color3, #00a365)" d="M13.010 21.546c-0.103-0-0.205-0.029-0.293-0.084-0.528-0.299-0.969-0.732-1.279-1.254s-0.478-1.116-0.489-1.723v-7.466c0-0.151 0.060-0.296 0.167-0.403s0.252-0.167 0.403-0.167c0.151 0 0.296 0.060 0.403 0.167s0.167 0.252 0.167 0.403v7.466c0.008 0.411 0.125 0.813 0.338 1.164s0.517 0.64 0.878 0.836c0.108 0.064 0.192 0.162 0.238 0.278s0.054 0.245 0.020 0.366c-0.034 0.121-0.106 0.227-0.207 0.302s-0.223 0.115-0.348 0.114z"></path>
<path fill="#00a365" style="fill: var(--color3, #00a365)" d="M15.998 32c-0.151 0-0.296-0.060-0.403-0.167s-0.167-0.252-0.167-0.403v-10.777l0.277-0.167c0.361-0.197 0.663-0.486 0.876-0.837s0.331-0.752 0.34-1.163v-7.466c0-0.151 0.060-0.296 0.167-0.403s0.252-0.167 0.403-0.167c0.151 0 0.296 0.060 0.403 0.167s0.167 0.252 0.167 0.403v7.466c-0.005 0.552-0.144 1.094-0.404 1.58s-0.634 0.903-1.090 1.214v10.15c0 0.075-0.015 0.149-0.043 0.218s-0.071 0.132-0.124 0.185c-0.053 0.053-0.116 0.095-0.185 0.124s-0.143 0.043-0.218 0.043z"></path>
<path fill="#00a365" style="fill: var(--color3, #00a365)" d="M13.010 32c-0.151-0.001-0.295-0.061-0.402-0.168s-0.167-0.251-0.168-0.402v-10.454c0-0.151 0.060-0.296 0.167-0.403s0.252-0.167 0.403-0.167c0.151 0 0.296 0.060 0.403 0.167s0.167 0.252 0.167 0.403v10.454c0 0.151-0.060 0.296-0.167 0.403s-0.252 0.167-0.403 0.167z"></path>
<path fill="#00a365" style="fill: var(--color3, #00a365)" d="M14.006 22.044c-0.088-0-0.176-0.021-0.255-0.061l-0.996-0.498c-0.134-0.068-0.236-0.186-0.284-0.328s-0.037-0.298 0.029-0.432c0.068-0.134 0.185-0.236 0.327-0.284s0.297-0.039 0.433 0.026l0.992 0.498c0.134 0.068 0.236 0.185 0.284 0.327s0.039 0.298-0.026 0.433c-0.047 0.094-0.12 0.173-0.209 0.23s-0.192 0.087-0.297 0.090z"></path>
<path fill="#00a365" style="fill: var(--color3, #00a365)" d="M9.030 32c-0.151 0-0.296-0.060-0.403-0.167s-0.167-0.252-0.167-0.403v-20.782c-2.699 0.544-2.843 4.923-2.843 5.847v5.288l1.38 1.836c0.091 0.121 0.13 0.273 0.108 0.423s-0.101 0.285-0.222 0.376-0.273 0.13-0.423 0.108c-0.15-0.021-0.285-0.101-0.376-0.222l-1.608-2.14v-5.668c0-5.189 2.353-7.040 4.562-7.040h0.57v21.976c0 0.076-0.015 0.15-0.044 0.22s-0.072 0.133-0.126 0.186c-0.054 0.053-0.118 0.095-0.188 0.123s-0.145 0.042-0.221 0.041z"></path>
<path fill="#00a365" style="fill: var(--color3, #00a365)" d="M19.982 26.515c-0.114 0.001-0.225-0.033-0.32-0.097s-0.167-0.155-0.209-0.261c-0.056-0.14-0.055-0.297 0.004-0.436s0.171-0.249 0.311-0.305c1.223-0.526 2.33-1.288 3.259-2.242s1.66-2.082 2.153-3.319c0.493-1.237 0.737-2.559 0.719-3.89s-0.298-2.646-0.824-3.869c-0.526-1.223-1.288-2.33-2.242-3.259s-2.082-1.66-3.319-2.153-2.559-0.737-3.89-0.719c-1.331 0.018-2.646 0.298-3.869 0.824-0.137 0.065-0.293 0.073-0.436 0.022s-0.259-0.156-0.324-0.292-0.073-0.293-0.023-0.436c0.051-0.143 0.156-0.259 0.292-0.324 1.478-0.686 3.088-1.039 4.718-1.034 2.617 0.005 5.15 0.921 7.166 2.589s3.388 3.986 3.883 6.556 0.079 5.231-1.173 7.528c-1.253 2.297-3.266 4.087-5.694 5.063-0.057 0.028-0.119 0.046-0.182 0.053z"></path>
<path fill="#00a365" style="fill: var(--color3, #00a365)" d="M15.998 32c-0.151 0-0.296-0.060-0.403-0.167s-0.167-0.252-0.167-0.403c0-0.151 0.060-0.296 0.167-0.403s0.252-0.167 0.403-0.167c3.437 0 6.767-1.191 9.424-3.37s4.477-5.213 5.149-8.583c0.672-3.37 0.155-6.87-1.463-9.902s-4.237-5.41-7.411-6.728c-3.174-1.318-6.706-1.495-9.996-0.502s-6.134 3.097-8.047 5.952c-1.913 2.855-2.778 6.285-2.446 9.705s1.838 6.621 4.264 9.055v-0.555c0-0.151 0.060-0.296 0.167-0.403s0.252-0.167 0.403-0.167c0.151 0 0.296 0.060 0.403 0.167s0.167 0.252 0.167 0.403v3.083l-0.939-0.794c-2.872-2.426-4.797-5.786-5.439-9.491s0.041-7.516 1.93-10.767c1.888-3.251 4.861-5.733 8.396-7.011s7.408-1.27 10.938 0.022 6.493 3.786 8.368 7.044c1.875 3.258 2.543 7.073 1.887 10.775s-2.595 7.054-5.476 9.469c-2.881 2.415-6.521 3.738-10.28 3.738z"></path>
</symbol>
<symbol id="icon-habits-1" viewBox="0 0 32 32">
<path fill="#00a365" style="fill: var(--color3, #00a365)" d="M15.998 21.903c-2.24 0-4.062 1.834-4.062 4.088s1.822 4.088 4.062 4.088c2.24 0 4.062-1.834 4.062-4.088s-1.822-4.088-4.062-4.088zM15.998 28.896c-1.595 0-2.923-1.299-2.923-2.942s1.291-2.942 2.923-2.942 2.923 1.299 2.923 2.942c0 1.643-1.291 2.942-2.923 2.942z"></path>
<path fill="#00a365" style="fill: var(--color3, #00a365)" d="M25.641 15.904c-2.582-2.598-5.998-4.012-9.605-4.012h-0.038c-3.607 0-7.024 1.414-9.605 4.050-1.139 1.146-1.101 2.904 0.038 4.088 0.569 0.573 1.291 0.917 2.050 0.917s1.443-0.306 2.012-0.841c1.481-1.49 3.455-2.331 5.581-2.331 2.088 0 4.062 0.841 5.581 2.331 0.532 0.535 1.253 0.841 1.974 0.841 0 0 0 0 0.038 0 0.759 0 1.481-0.344 2.050-0.917 1.063-1.184 1.063-2.942-0.076-4.127zM24.805 19.229c-0.342 0.344-0.797 0.573-1.215 0.573-0.456 0-0.873-0.191-1.177-0.497-1.708-1.719-3.948-2.636-6.378-2.636-2.392 0-4.67 0.955-6.378 2.636-0.342 0.344-0.759 0.535-1.177 0.497-0.456 0-0.873-0.191-1.215-0.573-0.683-0.726-0.721-1.796 0-2.522 2.354-2.369 5.467-3.668 8.808-3.668h0.038c3.303 0 6.416 1.299 8.77 3.668l0.038 0.038c0.607 0.688 0.607 1.758-0.114 2.484z"></path>
<path fill="#00a365" style="fill: var(--color3, #00a365)" d="M31.146 8.339c-4.024-4.088-9.491-6.419-15.034-6.419-0.076 0-0.152 0-0.228 0-5.505 0-10.972 2.331-15.034 6.457-1.139 1.146-1.139 2.942 0.038 4.127 0.569 0.573 1.291 0.917 2.050 0.917s1.443-0.306 2.012-0.841c2.961-3.018 6.91-4.7 11.086-4.738 4.176 0.038 8.087 1.719 11.086 4.738 0.532 0.535 1.253 0.841 1.974 0.841 0.759 0 1.481-0.344 2.050-0.917 1.139-1.223 1.139-2.98 0-4.165zM30.311 11.663c-0.342 0.344-0.797 0.573-1.215 0.573s-0.835-0.191-1.177-0.497c-3.189-3.248-7.403-5.044-11.883-5.082-4.48 0.038-8.694 1.834-11.883 5.082-0.342 0.344-0.759 0.497-1.177 0.497-0.456 0-0.873-0.191-1.215-0.573-0.721-0.726-0.721-1.796 0-2.522 3.834-3.859 8.998-6.075 14.237-6.075 0.038 0 0.076 0 0.114 0 5.239-0.038 10.478 2.178 14.313 6.075l0.038 0.038c0.569 0.65 0.569 1.758-0.152 2.484z"></path>
</symbol>
<symbol id="icon-arrow" viewBox="0 0 32 32">
<path fill="#c9c9c9" style="fill: var(--color4, #c9c9c9)" d="M27.483 12.885c0.139 0.134 0.264 0.298 0.341 0.499 0.128 0.334 0.090 0.681-0.078 0.996-0.156 0.293-0.418 0.551-0.739 0.786-0.367 0.269-0.792 0.383-1.154 0.443-0.244 0.040-0.517 0.063-0.74 0.082-0.091 0.008-0.174 0.014-0.243 0.022-2.312 0.239-4.581 0.203-6.859 0.125-5.752-0.196-11.622-0.159-17.28 0.671-0.348 0.051-0.673-0.185-0.725-0.528s0.188-0.662 0.537-0.714c5.772-0.847 11.732-0.881 17.512-0.684 2.269 0.077 4.464 0.11 6.681-0.119 0.122-0.013 0.233-0.022 0.339-0.030 0.195-0.016 0.372-0.031 0.565-0.063 0.279-0.046 0.472-0.115 0.604-0.211 0.235-0.172 0.332-0.293 0.367-0.355-0.017-0.020-0.049-0.050-0.105-0.090-0.109-0.078-0.269-0.162-0.48-0.246-0.824-0.329-2.020-0.51-2.588-0.596-0.028-0.004-0.055-0.008-0.080-0.012-0.161-0.024-0.296-0.049-0.401-0.074-0.051-0.012-0.11-0.028-0.167-0.049-0.028-0.010-0.068-0.027-0.111-0.050-0.035-0.019-0.116-0.066-0.192-0.152-0.082-0.094-0.203-0.295-0.142-0.559 0.053-0.231 0.213-0.351 0.273-0.391 0.117-0.078 0.238-0.103 0.271-0.11l0.003-0.001c0.098-0.021 0.215-0.030 0.319-0.036 0.435-0.024 1.251-0.008 2.191 0.039 1.867 0.094 4.427 0.326 5.707 0.703 0.226 0.067 0.439 0.181 0.604 0.363 0.168 0.186 0.251 0.403 0.276 0.614 0.047 0.388-0.096 0.769-0.233 1.045-0.285 0.575-0.767 1.125-0.983 1.332-1.453 1.392-2.637 2.893-3.464 4.669-0.147 0.315-0.525 0.454-0.846 0.309s-0.461-0.517-0.314-0.832c0.909-1.951 2.2-3.575 3.734-5.045 0.147-0.14 0.524-0.577 0.727-0.984 0.048-0.097 0.080-0.179 0.097-0.245 0.003-0.011 0.005-0.021 0.007-0.031-0.717-0.207-1.95-0.373-3.234-0.492zM30.783 13.4v0z"></path>
</symbol>
</defs>
</svg>
